<?xml version="1.0" encoding="utf-8"?>
<!-- Generator: Adobe Illustrator 27.5.0, SVG Export Plug-In . SVG Version: 6.00 Build 0)  -->
<svg version="1.1" xmlns="http://www.w3.org/2000/svg" xmlns:xlink="http://www.w3.org/1999/xlink" x="0px" y="0px"
	 viewBox="0 0 3710 3710" style="enable-background:new 0 0 3710 3710;" xml:space="preserve">
<g id="Background">
	<g>
		<g>
			<rect style="fill:#FFFFFF;" width="3710" height="3710"/>
		</g>
	</g>
</g>
<g id="Illustration">
	<g>
		<path style="fill:#F4F7FA;" d="M1615.195,3199.684c-719.922-109.027-1304.983-789.698-1198.69-1546.247
			c90.679-645.216,656.362-1147.335,1334.725-1194.75c49.12-3.442,98.807-4.507,148.954-3.052
			c378.434,10.931,714.671,162.298,963.352,391.353c247.511,227.955,408.317,532.854,437.596,852.729
			C3379.104,2550.777,2510.62,3335.293,1615.195,3199.684z"/>
		<g>
			<linearGradient id="SVGID_1_" gradientUnits="userSpaceOnUse" x1="588.3718" y1="1106.5021" x2="1243.7916" y2="1106.5021">
				<stop  offset="0" style="stop-color:#AB316D"/>
				<stop  offset="1" style="stop-color:#792D3D"/>
			</linearGradient>
			<path style="fill:url(#SVGID_1_);" d="M1134.172,1276.495c24.638,12.509,55.592,1.023,69.136-25.655
				c13.545-26.678,4.552-58.445-20.086-70.954c-1.276-0.648-2.579-1.193-3.885-1.714c4.577-14.762,8.028-29.639,10.343-44.522
				c1.412-0.004,2.829-0.028,4.269-0.156c28.109-2.506,50.419-28.335,49.831-57.695c-0.589-29.359-23.854-51.128-51.963-48.622
				c-1.469,0.132-2.912,0.363-4.348,0.619c-2.936-14.549-6.959-28.762-12.034-42.517c1.293-0.757,2.58-1.539,3.837-2.419
				c24.048-16.848,31.738-50.103,17.173-74.275c-14.564-24.173-45.868-30.108-69.917-13.26c-1.233,0.864-2.392,1.796-3.537,2.743
				c-9.498-10.5-19.917-20.232-31.188-29.113c0.793-1.3,1.568-2.616,2.27-3.998c13.545-26.678,31.245-55.819,6.414-67.941
				c-57.442-28.042-82.091-4.037-95.636,22.641c-0.701,1.382-1.306,2.786-1.888,4.191c-13.822-3.859-27.825-6.527-41.908-8
				c0.088-1.483,0.156-2.969,0.127-4.474c-0.589-29.357,8.122-45.245-20.094-45.793c-61.529-1.196-82.288,25.51-81.7,54.867
				c0.031,1.535,0.159,3.035,0.311,4.526c-14.1,4.019-27.948,9.158-41.426,15.373c-0.641-1.31-1.305-2.611-2.066-3.875
				c-14.565-24.172-45.867-30.108-69.917-13.258c-24.05,16.849-31.738,50.103-17.174,74.275c0.746,1.239,1.564,2.396,2.393,3.539
				c-10.65,10.651-20.624,22.217-29.84,34.624c-1.191-0.748-2.401-1.479-3.677-2.126c-24.638-12.509-55.591-1.023-69.136,25.655
				c-13.545,26.678-4.552,58.445,20.085,70.954c1.276,0.649,2.58,1.193,3.886,1.714c-4.577,14.762-8.029,29.639-10.343,44.522
				c-1.413,0.004-2.83,0.028-4.268,0.155c-28.111,2.507-50.42,28.336-49.832,57.696c0.589,29.359,23.854,51.126,51.964,48.62
				c1.468-0.131,2.912-0.362,4.346-0.618c2.936,14.55,6.959,28.762,12.035,42.517c-1.292,0.757-2.579,1.538-3.836,2.419
				c-24.049,16.848-31.738,50.103-17.173,74.275c14.565,24.173,62.783,35.402,86.832,18.554c1.232-0.864-14.524-7.09-13.378-8.036
				c9.499,10.501,19.917,20.232,31.188,29.114c-0.792,1.299-1.568,2.615-2.269,3.997c-13.545,26.678-4.553,58.445,20.085,70.954
				c24.638,12.51,55.592,1.024,69.137-25.654c0.702-1.382,1.306-2.786,1.887-4.192c13.822,3.859,27.825,6.528,41.908,8
				c-0.088,1.483-0.156,2.97-0.126,4.474c0.589,29.358,23.853,51.126,51.963,48.621c28.11-2.506,50.42-28.337,49.831-57.695
				c-0.031-1.534-0.159-3.034-0.311-4.525c14.101-4.019,27.949-9.158,41.427-15.373c0.641,1.309,1.305,2.611,2.067,3.874
				c14.565,24.172,45.867,30.11,69.916,13.26c24.05-16.85,31.739-50.103,17.174-74.277c-0.746-1.237-1.564-2.395-2.393-3.537
				c10.65-10.651,20.623-22.217,29.84-34.623C1131.687,1275.117,1132.895,1275.848,1134.172,1276.495z M827.035,1280.393
				c-89.455-45.419-122.105-160.759-72.926-257.62c49.178-96.862,161.563-138.565,251.018-93.146
				c89.455,45.418,122.106,160.758,72.928,257.619C1028.875,1284.108,916.491,1325.811,827.035,1280.393z"/>
			
				<linearGradient id="SVGID_00000016760467182506738620000001388072727779986867_" gradientUnits="userSpaceOnUse" x1="850.6179" y1="1135.6329" x2="1243.7916" y2="1135.6329">
				<stop  offset="0" style="stop-color:#AB316D"/>
				<stop  offset="1" style="stop-color:#792D3D"/>
			</linearGradient>
			<path style="fill:url(#SVGID_00000016760467182506738620000001388072727779986867_);" d="M1193.949,1133.494
				c28.109-2.507,50.419-28.337,49.831-57.695c-0.589-29.358-23.854-51.128-51.963-48.621c-1.469,0.131-2.912,0.364-4.348,0.618
				c-2.935-14.55-6.959-28.761-12.034-42.517c1.293-0.755,2.58-1.539,3.837-2.419c24.048-16.848,53.802-57.56,36.835-80.11
				c-32.203-42.799-65.529-24.273-89.578-7.425c-1.233,0.864-2.392,1.796-3.537,2.741c-9.499-10.5-19.917-20.231-31.189-29.112
				c0.793-1.299,1.568-2.615,2.27-3.997c7.372-14.519,8.023-30.527,3.154-44.136c-23.229,40.884-46.145,81.939-68.649,123.218
				c71.364,52.294,94.084,155.349,49.477,243.208c-37.8,74.452-112.942,116.258-186.311,111.019
				c-3.273,8.488-6.486,17.022-9.991,25.427c-9.51,22.812-20.315,45.154-31.134,67.466c6.804,1.283,13.638,2.293,20.491,3.01
				c-0.088,1.484-0.156,2.97-0.126,4.474c0.589,29.359,18.413,54.302,69.357,51.6c28.182-1.495,33.025-31.315,32.436-60.674
				c-0.031-1.533-0.159-3.034-0.311-4.524c14.1-4.019,27.948-9.158,41.427-15.373c0.641,1.31,1.305,2.611,2.067,3.874
				c14.565,24.173,65.09,34.444,89.14,17.594c24.05-16.85,12.515-54.437-2.049-78.609c-0.746-1.238-1.564-2.396-2.393-3.539
				c10.65-10.651,20.624-22.216,29.84-34.622c1.192,0.748,2.401,1.479,3.677,2.125c24.638,12.51,55.592,1.023,69.137-25.655
				c13.545-26.677,4.552-58.445-20.086-70.953c-1.276-0.649-2.58-1.193-3.886-1.714c4.577-14.762,8.028-29.64,10.343-44.522
				C1191.092,1133.646,1192.509,1133.622,1193.949,1133.494z"/>
			
				<linearGradient id="SVGID_00000012464141718416241270000017072115120192461721_" gradientUnits="userSpaceOnUse" x1="1131.2117" y1="773.1677" x2="308.9812" y2="2232.7847">
				<stop  offset="0" style="stop-color:#FF9085"/>
				<stop  offset="1" style="stop-color:#FB6FBB"/>
			</linearGradient>
			<path style="fill:url(#SVGID_00000012464141718416241270000017072115120192461721_);" d="M1160.671,1279.509
				c24.638,12.509,55.592,1.023,69.137-25.655c13.545-26.678,4.552-58.445-20.087-70.954c-1.276-0.648-2.579-1.193-3.885-1.714
				c4.578-14.762,8.029-29.639,10.343-44.522c1.413-0.004,2.83-0.027,4.27-0.156c28.11-2.506,50.419-28.336,49.831-57.694
				c-0.588-29.359-23.853-51.128-51.962-48.622c-1.469,0.131-2.912,0.363-4.348,0.618c-2.936-14.549-6.959-28.761-12.035-42.517
				c1.293-0.757,2.58-1.538,3.837-2.419c24.049-16.848,31.738-50.103,17.173-74.276c-14.565-24.172-45.867-30.109-69.917-13.26
				c-1.232,0.864-2.392,1.796-3.537,2.742c-9.499-10.5-19.916-20.231-31.188-29.112c0.793-1.299,1.568-2.616,2.27-3.998
				c13.545-26.678,4.552-58.446-20.086-70.955c-24.638-12.51-55.591-1.023-69.137,25.654c-0.701,1.382-1.306,2.786-1.888,4.192
				c-13.821-3.859-27.825-6.528-41.907-8c0.088-1.483,0.155-2.969,0.126-4.474c-0.589-29.358-23.854-51.126-51.964-48.62
				c-28.109,2.505-50.419,28.337-49.831,57.694c0.031,1.534,0.159,3.034,0.311,4.524c-14.1,4.02-27.948,9.158-41.427,15.374
				c-0.64-1.309-1.305-2.611-2.066-3.875c-14.564-24.172-45.868-30.109-69.917-13.259c-24.05,16.85-31.737,50.104-17.174,74.275
				c0.747,1.238,1.564,2.397,2.394,3.539c-10.65,10.651-20.625,22.216-29.841,34.623c-1.192-0.748-2.401-1.478-3.677-2.126
				c-24.638-12.51-55.591-1.023-69.136,25.654c-13.545,26.678-4.552,58.446,20.086,70.955c1.277,0.648,2.579,1.192,3.886,1.714
				c-4.577,14.762-8.029,29.639-10.343,44.522c-1.412,0.004-2.83,0.028-4.269,0.155c-28.109,2.507-50.42,28.337-49.831,57.696
				c0.588,29.359,23.854,51.126,51.963,48.621c1.468-0.13,2.912-0.362,4.346-0.617c2.936,14.549,6.959,28.761,12.035,42.517
				c-1.292,0.756-2.58,1.538-3.836,2.419c-24.049,16.848-31.738,50.103-17.174,74.275c14.565,24.173,45.868,30.109,69.916,13.261
				c1.233-0.864,2.392-1.796,3.537-2.743c9.5,10.501,19.917,20.232,31.188,29.113c-0.792,1.299-1.568,2.615-2.27,3.998
				c-13.545,26.677-4.552,58.444,20.086,70.954c24.638,12.509,55.592,1.024,69.136-25.655c0.702-1.382,1.306-2.785,1.888-4.191
				c13.821,3.859,27.826,6.527,41.908,8c-0.088,1.483-0.157,2.969-0.127,4.474c0.59,29.357,23.854,51.126,51.963,48.621
				c28.11-2.506,50.42-28.337,49.831-57.694c-0.031-1.534-0.159-3.035-0.311-4.525c14.101-4.019,27.948-9.157,41.427-15.373
				c0.641,1.309,1.307,2.611,2.067,3.873c14.564,24.173,45.867,30.11,69.916,13.261c24.05-16.85,31.738-50.103,17.174-74.276
				c-0.747-1.237-1.564-2.396-2.394-3.538c10.65-10.651,20.624-22.217,29.841-34.624
				C1158.186,1278.13,1159.395,1278.861,1160.671,1279.509z M853.535,1283.406c-89.455-45.418-122.106-160.758-72.927-257.62
				c49.18-96.862,161.563-138.564,251.018-93.146c89.455,45.419,122.106,160.758,72.927,257.62
				C1055.375,1287.122,942.991,1328.824,853.535,1283.406z"/>
		</g>
		<g>
			<g>
				<g>
					<g>
						<g>
							<defs>
								<path id="SVGID_00000154384856023722523810000005963223546309853320_" d="M2274.39,2693.967
									c-28.521,34.201-75.991,79.293-127.992,132.055l700.012,213.512c-46.628-230.301-124.391-476.58,102.306-829.267
									c106.385-165.509,364.611-445.574,310.011-667.145c-62.203-252.432-273.029-179.901-294.342-371.216
									c-33.311-299.022-247.087-536.284-531.573-433.869c-280.776,101.079-351.041,617.031-95.939,1232.402
									C2469.879,2432.642,2423.319,2515.377,2274.39,2693.967z"/>
							</defs>
							<use xlink:href="#SVGID_00000154384856023722523810000005963223546309853320_"  style="overflow:visible;fill:#D8DEE8;"/>
							<clipPath id="SVGID_00000132065080784751800320000004243836816580784558_">
								<use xlink:href="#SVGID_00000154384856023722523810000005963223546309853320_"  style="overflow:visible;"/>
							</clipPath>
							<g style="opacity:0.8;clip-path:url(#SVGID_00000132065080784751800320000004243836816580784558_);">
								<g>
									<path style="fill:#FCFDFE;" d="M2520.667,2895.846c19.597-93.229,33.354-182.154,47.918-276.303l4.862-31.388
										c4.22-45.767,9.623-90.778,14.849-134.308c11.799-98.291,22.945-191.133,21.439-291.741
										c0.56-5.778,1.383-11.345,2.259-17.242c3.12-21.058,6.343-42.833-2.677-65.509l-0.148-0.907
										c30.387-526.237-47.27-1067.555-230.814-1608.913l4.021-1.362c183.663,541.711,261.402,1083.419,231.059,1610.053
										c9.229,23.586,5.791,46.781,2.756,67.26c-0.864,5.845-1.683,11.365-2.219,16.798
										c1.518,100.653-9.644,193.633-21.461,292.071c-5.222,43.5-10.621,88.483-14.85,134.323l-4.881,31.517
										c-14.572,94.205-28.338,183.185-47.958,276.527L2520.667,2895.846z"/>
									<path style="fill:#FCFDFE;" d="M2586.42,2435.161c33.041-246.003,207.133-517.531,347.358-701.999
										c151.859-199.768,297.809-343.301,299.266-344.726l2.972,3.032c-1.455,1.426-147.221,144.778-298.896,344.31
										c-139.902,184.047-313.578,454.879-346.494,699.949L2586.42,2435.161z"/>
									<path style="fill:#FCFDFE;" d="M2585.25,1343.811c20.515-262.999,102.951-534.261,130.041-623.4
										c5.18-17.05,8.603-28.315,8.872-30.564l4.215,0.503c-0.3,2.517-2.985,11.413-9.027,31.298
										c-27.056,89.029-109.389,359.956-129.868,622.494L2585.25,1343.811z"/>
									<path style="fill:#FCFDFE;" d="M2614.98,1773.958c-53.373-237.483-481.634-506.498-485.953-509.188l2.243-3.603
										c4.334,2.698,434.093,272.665,487.851,511.862L2614.98,1773.958z"/>
								</g>
							</g>
						</g>
					</g>
					<g>
						<g>
							<defs>
								<path id="SVGID_00000054236096874723967210000011723460676173950883_" d="M2307.826,1806.836
									c-37.055,356.241,148.119,258.901,302.274,312.347c151.99,285.371,140.786,532.496-156.39,712.598l-298.527-80.667
									c-112.115-18.294-240.387-68.073-215.53-217.302c28.113-168.776,80.751-271.941-101.193-377.51
									c-181.941-105.57-246.622-267.225-148.981-431.26c102.751-172.621-60.323-440.255,93.779-546.034
									C2051.77,994.693,2346.41,1435.882,2307.826,1806.836z"/>
							</defs>
							<use xlink:href="#SVGID_00000054236096874723967210000011723460676173950883_"  style="overflow:visible;fill:#BFC8D6;"/>
							<clipPath id="SVGID_00000147213735514643157890000010140716235782024894_">
								<use xlink:href="#SVGID_00000054236096874723967210000011723460676173950883_"  style="overflow:visible;"/>
							</clipPath>
							<g style="opacity:0.7;clip-path:url(#SVGID_00000147213735514643157890000010140716235782024894_);">
								<g>
									<path style="fill:#FCFDFE;" d="M2309.47,2452.229c-110.756-153.459-202.78-320.39-273.515-496.156
										c-71.342-177.284-120.069-361.2-144.82-546.646c-14.193-106.336-20.467-213.727-18.645-319.187l4.623,0.082
										c-1.814,105.226,4.445,212.383,18.608,318.494c24.699,185.06,73.325,368.602,144.527,545.528
										c70.595,175.419,162.438,342.022,272.972,495.176L2309.47,2452.229z"/>
									<path style="fill:#FCFDFE;" d="M1959.845,2609.733l-1.611-4.338c59.754-22.204,128.909-36.906,205.546-43.697
										c36.518-3.237,72.51-3.995,106.976-2.253l-0.231,4.622c-34.253-1.733-70.03-0.98-106.334,2.242
										C2087.962,2573.062,2019.212,2587.672,1959.845,2609.733z"/>
									<path style="fill:#FCFDFE;" d="M2083.333,2064.433c-139.288-169.928-474.83-194.758-478.197-194.966l0.316-4.617
										c3.401,0.245,340.901,25.167,481.46,196.652L2083.333,2064.433z"/>
									<path style="fill:#FCFDFE;" d="M1935.788,1645.974c-18.901-247.533,194.959-506.27,197.121-508.853l3.547,2.968
										c-2.15,2.571-214.81,259.893-196.054,505.534L1935.788,1645.974z"/>
								</g>
							</g>
						</g>
					</g>
				</g>
			</g>
		</g>
		<g>
			<g>
				
					<linearGradient id="SVGID_00000129175417774093702760000005239732810481705404_" gradientUnits="userSpaceOnUse" x1="1514.751" y1="2199.6201" x2="1589.679" y2="2199.6201" gradientTransform="matrix(1 0 0 1 1180.2716 0)">
					<stop  offset="0" style="stop-color:#311944"/>
					<stop  offset="1" style="stop-color:#6B3976"/>
				</linearGradient>
				<path style="fill:url(#SVGID_00000129175417774093702760000005239732810481705404_);" d="M2710.381,2199.598l37.489-22.526
					h16.918c0,0,5.764,21.454,5.11,22.526c-7.538,12.352-42.636,21.75-64.538,22.526c-3.636,0.129-8.71,0.148-10.021-2.487
					C2693.119,2215.174,2703.039,2205.811,2710.381,2199.598z"/>
				
					<linearGradient id="SVGID_00000165952265709164009920000016567903909210131625_" gradientUnits="userSpaceOnUse" x1="1566.3782" y1="2195.3635" x2="1628.3912" y2="2009.324" gradientTransform="matrix(1 0 0 1 1180.2716 0)">
					<stop  offset="0" style="stop-color:#FFC444"/>
					<stop  offset="0.9964" style="stop-color:#F36F56"/>
				</linearGradient>
				<path style="fill:url(#SVGID_00000165952265709164009920000016567903909210131625_);" d="M2748.534,2152.491
					c0.062,13.125-0.499,22.384-3.784,26.456c-2.312,2.867,19.918,9.318,20.04-1.875c0.08-7.368,1.238-20.004,2.416-23.715
					C2760.981,2153.068,2754.757,2152.78,2748.534,2152.491z"/>
			</g>
			<g>
				
					<linearGradient id="SVGID_00000132791775849509842950000017466770193183071872_" gradientUnits="userSpaceOnUse" x1="1264.0973" y1="2170.0559" x2="1339.0253" y2="2170.0559" gradientTransform="matrix(1 0 0 1 1180.2716 0)">
					<stop  offset="0" style="stop-color:#311944"/>
					<stop  offset="1" style="stop-color:#6B3976"/>
				</linearGradient>
				<path style="fill:url(#SVGID_00000132791775849509842950000017466770193183071872_);" d="M2459.728,2170.033l37.489-22.526
					h16.919c0,0,5.764,21.454,5.11,22.526c-7.538,12.352-42.636,21.75-64.538,22.527c-3.636,0.129-8.711,0.148-10.021-2.488
					C2442.466,2185.61,2452.385,2176.247,2459.728,2170.033z"/>
				
					<linearGradient id="SVGID_00000052819414254792955470000007908593412251110807_" gradientUnits="userSpaceOnUse" x1="1319.7168" y1="2168.6619" x2="1388.0076" y2="1963.7891" gradientTransform="matrix(1 0 0 1 1180.2716 0)">
					<stop  offset="0" style="stop-color:#FFC444"/>
					<stop  offset="0.9964" style="stop-color:#F36F56"/>
				</linearGradient>
				<path style="fill:url(#SVGID_00000052819414254792955470000007908593412251110807_);" d="M2508.604,2123.087
					c-5.463,10.444-11.223,22.223-14.509,26.295c-2.313,2.867,16.16,8.625,20.04-1.875c3.145-8.513,11.962-19.844,13.14-23.555
					C2521.052,2123.664,2514.828,2123.376,2508.604,2123.087z"/>
			</g>
			
				<linearGradient id="SVGID_00000161633150830067628470000014642049708849573798_" gradientUnits="userSpaceOnUse" x1="-1259.5332" y1="1394.1782" x2="-1093.7156" y2="2018.8846" gradientTransform="matrix(-1 0 0 1 1410.557 0)">
				<stop  offset="0" style="stop-color:#311944"/>
				<stop  offset="1" style="stop-color:#6B3976"/>
			</linearGradient>
			<path style="fill:url(#SVGID_00000161633150830067628470000014642049708849573798_);" d="M2516.317,1508.503
				c14.506,96.466,23.981,216.445,15.425,353.486c-6.32,101.221-21.187,191.094-38.562,267.365
				c11.569,2.999,23.138,5.999,34.706,8.998c14.403-3.336,34.82-10.557,48.845-28.279c18.441-23.302,10.031-44.791,23.137-83.551
				c12.512-37.004,27.463-38.968,42.418-70.697c19.507-41.385,7.595-66.734,8.998-122.113
				c2.375-93.683,38.489-100.945,50.131-217.233c6.095-60.882,9.101-95.844-12.854-118.257
				C2657.816,1466.834,2590.217,1472.4,2516.317,1508.503z"/>
			
				<linearGradient id="SVGID_00000142145826807965339150000017388748797251720340_" gradientUnits="userSpaceOnUse" x1="-1463.7885" y1="1827.2836" x2="-1225.8816" y2="1827.2836" gradientTransform="matrix(-1 0 0 1 1410.557 0)">
				<stop  offset="0" style="stop-color:#311944"/>
				<stop  offset="1" style="stop-color:#6B3976"/>
			</linearGradient>
			<path style="fill:url(#SVGID_00000142145826807965339150000017388748797251720340_);" d="M2596.012,1514.93
				c39.623,92.201,80.8,210.285,107.974,350.915c21.716,112.382,29.604,213.891,30.85,299.5c12.854,0,25.708,0,38.562,0
				c11.152-16.231,25.812-41.392,34.706-74.554c8.868-33.064,3.289-41.587,8.998-93.835c7.781-71.207,17.972-74.484,16.711-116.971
				c-1.45-48.826-16.287-48.632-21.852-97.691c-8.233-72.573,21.743-94.973,20.567-161.961
				c-0.528-30.093-7.453-75.423-41.133-131.111C2726.266,1497.791,2661.139,1506.361,2596.012,1514.93z"/>
			
				<linearGradient id="SVGID_00000000921075433834058450000012312757085554922936_" gradientUnits="userSpaceOnUse" x1="-616.6968" y1="1457.7437" x2="-687.394" y2="1699.3995" gradientTransform="matrix(-1 0 0 1 1410.557 0)">
				<stop  offset="0" style="stop-color:#FFC444"/>
				<stop  offset="0.9964" style="stop-color:#F36F56"/>
			</linearGradient>
			<path style="fill:url(#SVGID_00000000921075433834058450000012312757085554922936_);" d="M2089.555,1503.65l-15.115,13.398
				c0,0-33.187-1.309-45.137,1.73c-11.949,3.039-32.566,13.4-32.566,13.4s5.153,7.61,12.463,4.727
				c7.31-2.882,18.603-6.778,20.773-5.721c2.17,1.057,7.279,14.82,24.681,17.121c17.402,2.301,25.5-18.184,25.5-18.184
				l16.477-13.988L2089.555,1503.65z"/>
			
				<linearGradient id="SVGID_00000038375429300689617420000014493332724473720966_" gradientUnits="userSpaceOnUse" x1="-1091.4119" y1="1629.9678" x2="-682.6528" y2="1248.2024" gradientTransform="matrix(-1 0 0 1 1410.557 0)">
				<stop  offset="0" style="stop-color:#AA80F9"/>
				<stop  offset="0.9964" style="stop-color:#6165D7"/>
			</linearGradient>
			<path style="fill:url(#SVGID_00000038375429300689617420000014493332724473720966_);" d="M2262.771,1150.84
				c-6.125,0.752-18.126,4.454-45.311,54.951c-35.179,65.349-44.404,113.619-57.843,153.285
				c-12.576,37.118-36.186,88.371-84.837,144.608c8.034,8.355,16.067,16.71,24.102,25.065
				c68.917-1.709,103.046-23.684,121.47-43.383c26.895-28.754,18.59-50.797,51.095-94.477
				c38.024-51.097,66.846-44.389,80.016-78.088C2376.158,1249.616,2306.308,1145.497,2262.771,1150.84z"/>
			
				<linearGradient id="SVGID_00000083772203446532005760000012949859316735981987_" gradientUnits="userSpaceOnUse" x1="-1277.2449" y1="1430.9965" x2="-868.4862" y2="1049.2316" gradientTransform="matrix(-1 0 0 1 1410.557 0)">
				<stop  offset="0" style="stop-color:#AA80F9"/>
				<stop  offset="0.9964" style="stop-color:#6165D7"/>
			</linearGradient>
			<path style="fill:url(#SVGID_00000083772203446532005760000012949859316735981987_);" d="M2607.902,1061.183
				c-39.431-12.633-70.296-9.133-125.327-2.892c-80.313,9.108-131.798,35.732-176.422,58.807
				c-43.856,22.679-55.47,35.478-61.699,50.13c-14.526,34.169,3.172,71.498,14.461,94.477
				c28.822,58.671,55.571,56.632,116.65,127.255c53.734,62.131,80.602,93.196,98.333,138.824c7.844,20.186,15.504,46.321,40.49,61.7
				c24.255,14.929,51.792,11.694,67.484,9.64c65.923-8.627,71.769-51.175,114.722-48.203c34.228,2.368,41.651,30.157,100.261,39.526
				c26.196,4.188,33.837,0.095,37.598-2.892c14.264-11.327,12.602-38.402-0.964-93.513c-20.857-84.73-39.446-112.199-56.879-179.314
				c-18.105-69.698-4.161-63.572-19.281-103.154C2752.249,1198.273,2710.613,1094.089,2607.902,1061.183z"/>
			
				<linearGradient id="SVGID_00000138574528882900585440000013232245995195811980_" gradientUnits="userSpaceOnUse" x1="-1277.2567" y1="1430.984" x2="-868.4965" y2="1049.2177" gradientTransform="matrix(-1 0 0 1 1410.557 0)">
				<stop  offset="0" style="stop-color:#AA80F9"/>
				<stop  offset="0.9964" style="stop-color:#6165D7"/>
			</linearGradient>
			<path style="opacity:0.3;fill:url(#SVGID_00000138574528882900585440000013232245995195811980_);" d="M2595.369,1564.418
				c13.712-16.745,6.314-36.831,25.065-53.987c30.544-27.946,85.822-7.271,88.693-17.353c3.44-12.078-79.354-29.587-88.693-77.124
				c-4.234-21.553,11.359-25.218,9.641-53.987c-1.611-26.971-18.448-49.198-52.059-92.549
				c-26.537-34.228-33.715-37.014-34.706-50.131c-2.979-39.429,46.829-66.869,67.484-80.98c25.259-17.257,51.659-26.202,76.3-30.298
				c45.985,42.355,66.745,94.424,70.237,103.566c15.12,39.582,1.176,33.455,19.281,103.154
				c17.433,67.114,36.022,94.583,56.879,179.314c13.566,55.111,15.228,82.187,0.964,93.513c-3.761,2.987-11.402,7.08-37.598,2.892
				c-58.61-9.37-66.033-37.158-100.261-39.526c-42.953-2.972-48.8,39.575-114.722,48.203c-15.692,2.054-43.229,5.288-67.484-9.64
				c-5.461-3.361-10.054-7.257-14.043-11.472C2558.636,1588.722,2583.867,1578.464,2595.369,1564.418z"/>
			<g>
				
					<linearGradient id="SVGID_00000042733006167434666000000006659025589981991076_" gradientUnits="userSpaceOnUse" x1="-341.7059" y1="1605.9827" x2="-334.9923" y2="1427.1543" gradientTransform="matrix(-0.6867 0.7269 0.7269 0.6867 1053.0417 286.0352)">
					<stop  offset="0" style="stop-color:#FFC444"/>
					<stop  offset="0.9964" style="stop-color:#F36F56"/>
				</linearGradient>
				<path style="fill:url(#SVGID_00000042733006167434666000000006659025589981991076_);" d="M2361.332,1038.82
					c6.269,15.061,29.731,53.058,80.443,34.439c13.573-4.984,15.888-3.229,16.674-2.184c3.829,5.103-23.36,39.033-61.829,49.374
					c-23.466,6.307-48.561,3.145-49.896-3.389c-1.343-6.577,15.424-5.976,17.352-19.694c1.341-9.548-17.969-20.99-27.901-27.444
					C2337.796,1057.443,2359.702,1051.328,2361.332,1038.82z"/>
				<g>
					
						<linearGradient id="SVGID_00000153687570688009417760000009585907935025498765_" gradientUnits="userSpaceOnUse" x1="2824.0183" y1="1435.5345" x2="2781.157" y2="1326.6746" gradientTransform="matrix(0.8439 -0.5366 0.5366 0.8439 -737.4521 1404.9562)">
						<stop  offset="0" style="stop-color:#311944"/>
						<stop  offset="1" style="stop-color:#6B3976"/>
					</linearGradient>
					<path style="fill:url(#SVGID_00000153687570688009417760000009585907935025498765_);" d="M2319.148,1068.59
						c-8.689-2.852-15.731-12.687-14.442-22.345c1.11-8.314,8.112-13.607,12.306-16.781c12.167-9.202,31.994-14.239,45.033-6.91
						c7.733,4.348,9.309,22.056,9.763,25.137c0.512,3.485-1.239,5.83-2.059,9.184c-1.134,4.651-2.864,11.997-5.562,24.163
						c-2.102-1.862-4.875-4.065-8.344-6.176c-1.334-0.812-6.609-3.946-12.521-5.626
						C2331.486,1065.871,2327.391,1071.295,2319.148,1068.59z"/>
					
						<linearGradient id="SVGID_00000059992059922506209100000008578320384844114828_" gradientUnits="userSpaceOnUse" x1="-1357.6376" y1="1225.4843" x2="-1359.5551" y2="1379.9756" gradientTransform="matrix(-0.8751 0.4839 0.4839 0.8751 561.5971 639.0932)">
						<stop  offset="0" style="stop-color:#FFC444"/>
						<stop  offset="0.9964" style="stop-color:#F36F56"/>
					</linearGradient>
					<path style="fill:url(#SVGID_00000059992059922506209100000008578320384844114828_);" d="M2371.012,1068.091
						c0,0-0.104,17.789-17.948,27.011c-15.945,8.24-38.9-21.169-33.52-33.537c1.797-4.129,7.726-8.946,13.945-10.797
						c3.676-1.094,5.528-0.563,11.504-2.458c5.518-1.748,6.546-3.026,8.718-2.805c2.717,0.277,6.28,2.81,9.342,13.613
						c1.146-4.406,3.983-7.529,7.191-7.969c0.512-0.07,2.002-0.059,3.254,0.558
						C2378.028,1053.942,2377.458,1060.589,2371.012,1068.091z"/>
				</g>
			</g>
			<g>
				
					<linearGradient id="SVGID_00000067919387583716178200000000302536128101088912_" gradientUnits="userSpaceOnUse" x1="2332.7876" y1="1037.5272" x2="2471.9272" y2="1147.9554">
					<stop  offset="0" style="stop-color:#FFC444"/>
					<stop  offset="0.9964" style="stop-color:#F36F56"/>
				</linearGradient>
				<path style="fill:url(#SVGID_00000067919387583716178200000000302536128101088912_);" d="M2296.351,1062.028
					c0,0,46.391-21.37,70.953-27.92c4.352-1.161,6.724-5.864,5.012-10.03c-5.177-12.595-18.615-33.922-48.195-23.874
					C2286.741,1012.901,2287.153,1041.002,2296.351,1062.028z"/>
				
					<linearGradient id="SVGID_00000124857029543755856110000006533405732238666166_" gradientUnits="userSpaceOnUse" x1="2313.3977" y1="1088.1826" x2="2318.4019" y2="1060.9369">
					<stop  offset="0" style="stop-color:#FFC444"/>
					<stop  offset="0.9964" style="stop-color:#F36F56"/>
				</linearGradient>
				<path style="fill:url(#SVGID_00000124857029543755856110000006533405732238666166_);" d="M2296.351,1056.919
					c0,0-14.712,10.565-11.375,13.901c3.336,3.336,70.019-32.88,70.019-32.88L2296.351,1056.919z"/>
				
					<linearGradient id="SVGID_00000151525391507652104870000010019596105172891545_" gradientUnits="userSpaceOnUse" x1="2294.1335" y1="1006.2756" x2="2365.3062" y2="1090.793">
					<stop  offset="0" style="stop-color:#FFC444"/>
					<stop  offset="0.9964" style="stop-color:#F36F56"/>
				</linearGradient>
				<path style="fill:url(#SVGID_00000151525391507652104870000010019596105172891545_);" d="M2324.122,1014.348
					c-1.8-5.167,0.756-10.606,4.926-15.547c-1.595,0.378-3.227,0.826-4.926,1.403c-33.106,11.246-36.562,34.571-30.529,54.365
					c7.99-3.573,16.93-7.467,21.966-9.32C2326.122,1041.363,2329.458,1029.673,2324.122,1014.348z"/>
			</g>
			<g>
				
					<linearGradient id="SVGID_00000033352312654275891270000008041522366003593911_" gradientUnits="userSpaceOnUse" x1="2291.1624" y1="1270.7688" x2="2347.5984" y2="1270.7688">
					<stop  offset="0" style="stop-color:#D8DEE8"/>
					<stop  offset="1" style="stop-color:#FFFFFF"/>
				</linearGradient>
				<path style="fill:url(#SVGID_00000033352312654275891270000008041522366003593911_);" d="M2291.162,1254.677
					c0,0,8.913-29.28,18.943-39.927c2.045,41.701,37.493,112.038,37.493,112.038S2295.905,1296.378,2291.162,1254.677z"/>
				<path style="fill:#FFFFFF;" d="M2616.588,1542.149c-45.642,32.332-143.951,3.159-157.792-11.392
					c-14.87-15.687-96.836-113.818-141.021-202.65c-11.145-22.466-20.708-44.328-24.258-64.096c0-0.036,0-0.071,0-0.071
					c0-3.159-1.615-6.246-2.112-9.263c6.531,17.639,19.938,26.015,37.008,28.357c60.228,8.234,164.831-58.524,164.831-58.524
					l144.56,246.978C2644.299,1507.51,2634.474,1529.586,2616.588,1542.149z"/>
			</g>
			
				<linearGradient id="SVGID_00000159437970270419737330000003772573575043089820_" gradientUnits="userSpaceOnUse" x1="-1136.478" y1="1305.6804" x2="-1207.175" y2="1547.3359" gradientTransform="matrix(-1 0 0 1 1410.557 0)">
				<stop  offset="0" style="stop-color:#FFC444"/>
				<stop  offset="0.9964" style="stop-color:#F36F56"/>
			</linearGradient>
			<path style="fill:url(#SVGID_00000159437970270419737330000003772573575043089820_);" d="M2605.652,1363.361l-29.749-12.981
				c0,0-11.358-16.227-20.553-18.931s-42.189,1.082-42.189,1.082s3.245,12.981,9.736,15.145c6.491,2.164,26.503,3.786,29.749,10.277
				c3.245,6.49,15.144,11.358,19.471,9.195c4.327-2.164,31.912,7.031,31.912,7.031L2605.652,1363.361z"/>
			
				<linearGradient id="SVGID_00000002353861458611857300000000920204420237276345_" gradientUnits="userSpaceOnUse" x1="-1360.614" y1="1341.733" x2="-951.8547" y2="959.9675" gradientTransform="matrix(-1 0 0 1 1410.557 0)">
				<stop  offset="0" style="stop-color:#AA80F9"/>
				<stop  offset="0.9964" style="stop-color:#6165D7"/>
			</linearGradient>
			<path style="fill:url(#SVGID_00000002353861458611857300000000920204420237276345_);" d="M2480.647,1074.679
				c26.06-43.988,148.731-27.898,231.372,20.245c26.913,15.678,108.984,63.49,114.722,146.536
				c0.624,9.026,2.228,45.702-19.281,80.016c-36.177,57.718-121.715,83.185-212.092,60.735c0.964-9.64,1.928-19.281,2.892-28.921
				c7.698,0.267,38.331,0.44,65.556-22.173c5.454-4.53,37.86-31.448,32.778-55.915c-8.532-41.077-110.977-18.68-177.386-87.729
				C2489.434,1156.515,2463.495,1103.631,2480.647,1074.679z"/>
			
				<linearGradient id="SVGID_00000165212901084189118110000003185386520318756782_" gradientUnits="userSpaceOnUse" x1="2317.5447" y1="1442.453" x2="2616.5881" y2="1442.453">
				<stop  offset="0" style="stop-color:#D8DEE8"/>
				<stop  offset="1" style="stop-color:#FFFFFF"/>
			</linearGradient>
			<path style="opacity:0.2;fill:url(#SVGID_00000165212901084189118110000003185386520318756782_);" d="M2616.588,1542.149
				c-45.642,32.332-143.951,3.159-157.792-11.392c-14.87-15.687-97.067-113.818-141.251-202.65
				c17.674,18.136,42.979,35.703,77.368,41.311c79.606,13.025,79.606,40.246,110.376,94.653
				C2528.819,1505.736,2562.429,1547.26,2616.588,1542.149z"/>
		</g>
		<g>
			<g>
				<g>
					<polygon style="fill:#D8DEE8;" points="2914.843,2431.243 2914.843,2464.874 3064.509,2466.25 3031.393,2431.693 					"/>
				</g>
				<g>
					
						<linearGradient id="SVGID_00000078004003644693964710000011566874608825980584_" gradientUnits="userSpaceOnUse" x1="105.2764" y1="2688.5439" x2="1430.8674" y2="2823.6042">
						<stop  offset="0" style="stop-color:#FFC444"/>
						<stop  offset="0.9964" style="stop-color:#F36F56"/>
					</linearGradient>
					<polygon style="fill:url(#SVGID_00000078004003644693964710000011566874608825980584_);" points="1154.274,2436.686 
						1154.274,3154.16 1098.892,3142.2 671.604,3050.244 671.604,2432.001 711.088,2432.391 					"/>
				</g>
				
					<linearGradient id="SVGID_00000092432752941475323790000011260604570376710803_" gradientUnits="userSpaceOnUse" x1="2281.3364" y1="1739.9266" x2="1081.1267" y2="6692.3755">
					<stop  offset="0" style="stop-color:#FFC444"/>
					<stop  offset="0.9964" style="stop-color:#F36F56"/>
				</linearGradient>
				<path style="fill:url(#SVGID_00000092432752941475323790000011260604570376710803_);" d="M3031.393,2430.009l-111.524,2.153
					v621.307l-1119.708,63.916l-463.826,26.477l-180.718,10.316v-717.499l777.397-221.476l463.423-447.382L3031.393,2430.009z"/>
				<g style="opacity:0.2;">
					<polygon style="fill:#D8DEE8;" points="3042.569,2432.407 2414.156,1773.89 2394.895,1753.708 2375.786,1772.063 
						1915.066,2214.941 1143.443,2432.281 1037.633,2462.082 1037.633,2478.371 1155.616,2478.371 1155.616,2467.84 
						1930.328,2249.605 2396.437,1802.263 2998.497,2432.407 					"/>
				</g>
				<g>
					<polygon style="fill:#D8DEE8;" points="2394.894,1719.262 2414.156,1739.444 3050.191,2405.253 3066.611,2422.423 
						3066.611,2466.054 3064.509,2466.25 3031.59,2431.871 2396.437,1767.817 1930.328,2215.159 1162.282,2442.851 
						1037.633,2477.43 1037.633,2427.635 1143.444,2397.835 1915.066,2180.495 2375.785,1737.617 					"/>
				</g>
				<g>
					
						<linearGradient id="SVGID_00000137118621464164347040000014184377389832313233_" gradientUnits="userSpaceOnUse" x1="2593.2893" y1="1662.1537" x2="960.0132" y2="2394.3105">
						<stop  offset="0.0036" style="stop-color:#E38DDD"/>
						<stop  offset="1" style="stop-color:#9571F6"/>
					</linearGradient>
					<polygon style="fill:url(#SVGID_00000137118621464164347040000014184377389832313233_);" points="2394.905,1719.261 
						2375.795,1737.627 1915.068,2180.494 1356.373,2209.742 1776.609,1822.211 1794.14,1806.082 					"/>
				</g>
				<g>
					
						<linearGradient id="SVGID_00000147182855507246194290000006315538273901648017_" gradientUnits="userSpaceOnUse" x1="1705.5266" y1="2135.6851" x2="481.5086" y2="2574.9788">
						<stop  offset="0" style="stop-color:#AB316D"/>
						<stop  offset="1" style="stop-color:#792D3D"/>
					</linearGradient>
					<polygon style="fill:url(#SVGID_00000147182855507246194290000006315538273901648017_);" points="1915.068,2180.494 
						1143.436,2397.842 1037.624,2427.627 567.239,2424.198 661.631,2398.558 1356.373,2209.742 					"/>
				</g>
				<g>
					<path style="fill:#FFFFFF;" d="M2172.85,2780.802v-521.16c0-103.763,84.493-188.686,189.445-188.686h67.838
						c103.419,0,186.348,83.025,186.348,184.457v509.449L2172.85,2780.802z"/>
					
						<linearGradient id="SVGID_00000003101093289345121220000000095080162546926246_" gradientUnits="userSpaceOnUse" x1="2376.4258" y1="1684.1661" x2="2408.9275" y2="3135.9453">
						<stop  offset="0.0036" style="stop-color:#E38DDD"/>
						<stop  offset="1" style="stop-color:#9571F6"/>
					</linearGradient>
					<path style="fill:url(#SVGID_00000003101093289345121220000000095080162546926246_);" d="M2429.462,2106.86l-67.208,0.123
						c-84.678,0.153-153.914,68.438-153.914,152.313v484.4l372.65-12.701v-475.248
						C2580.99,2173.456,2512.84,2106.709,2429.462,2106.86z"/>
					<polygon style="fill:#FFFFFF;" points="2417.734,2760.224 2378.695,2761.623 2378.695,2087.237 2417.734,2087.205 					"/>
					<g>
						<polygon style="fill:#FFFFFF;" points="2190.595,2342.168 2190.595,2306.339 2598.735,2301.528 2598.735,2336.623 						"/>
						<polygon style="fill:#FFFFFF;" points="2190.595,2545.198 2190.595,2509.369 2598.735,2500.398 2598.735,2535.493 						"/>
					</g>
				</g>
				
					<linearGradient id="SVGID_00000000182798244087905940000007502957266911721118_" gradientUnits="userSpaceOnUse" x1="157.2962" y1="2711.0469" x2="1349.6077" y2="2832.5278">
					<stop  offset="0" style="stop-color:#FFC444"/>
					<stop  offset="0.9964" style="stop-color:#F36F56"/>
				</linearGradient>
				<path style="opacity:0.3;fill:url(#SVGID_00000000182798244087905940000007502957266911721118_);" d="M1099.566,3142.2
					l-427.961-91.956v-618.243l40.157,0.39c-23.53,129.114,170.044,170.319,183.103,291.128
					c6.85,63.102-44.89,118.503-33.782,181.143c8.588,48.622,70.468,76.979,108.551,97.989
					c40.175,22.146,87.821,44.683,114.121,84.077C1095.642,3104.545,1100.098,3123.39,1099.566,3142.2z"/>
				<g>
					<polygon style="fill:#FFFFFF;" points="1037.633,2477.43 567.244,2467.051 567.244,2424.198 1037.633,2427.635 					"/>
				</g>
			</g>
			<g>
				
					<linearGradient id="SVGID_00000004543707902618547100000005317624342539071135_" gradientUnits="userSpaceOnUse" x1="1969.0186" y1="1832.9456" x2="1108.582" y2="2218.6577">
					<stop  offset="0" style="stop-color:#AB316D"/>
					<stop  offset="1" style="stop-color:#792D3D"/>
				</linearGradient>
				<polygon style="fill:url(#SVGID_00000004543707902618547100000005317624342539071135_);" points="1405.366,2207.254 
					1357.014,2209.813 1779.964,1796.057 1831.993,1790.5 				"/>
				
					<linearGradient id="SVGID_00000069364110431940017580000017232280174959168671_" gradientUnits="userSpaceOnUse" x1="2239.085" y1="1805.0227" x2="1340.6633" y2="2207.7627">
					<stop  offset="0" style="stop-color:#AB316D"/>
					<stop  offset="1" style="stop-color:#792D3D"/>
				</linearGradient>
				<polygon style="fill:url(#SVGID_00000069364110431940017580000017232280174959168671_);" points="1651.223,2194.24 
					1599.371,2196.985 2040.847,1768.194 2096.694,1762.23 				"/>
				
					<linearGradient id="SVGID_00000148626802128100985070000012042728644832781488_" gradientUnits="userSpaceOnUse" x1="2529.4553" y1="1774.9127" x2="1589.6747" y2="2196.1929">
					<stop  offset="0" style="stop-color:#AB316D"/>
					<stop  offset="1" style="stop-color:#792D3D"/>
				</linearGradient>
				<polygon style="fill:url(#SVGID_00000148626802128100985070000012042728644832781488_);" points="1915.273,2180.264 
					1859.528,2183.214 2321.164,1738.256 2381.266,1731.837 				"/>
				
					<linearGradient id="SVGID_00000076593890602606511950000015042386387499707265_" gradientUnits="userSpaceOnUse" x1="4984.2759" y1="-5520.5972" x2="4691.4653" y2="-5389.3379" gradientTransform="matrix(0 1 -1 0 -3386.5 -3088.5)">
					<stop  offset="0" style="stop-color:#AB316D"/>
					<stop  offset="1" style="stop-color:#792D3D"/>
				</linearGradient>
				<polygon style="fill:url(#SVGID_00000076593890602606511950000015042386387499707265_);" points="1757.061,1818.461 
					1793.72,1782.599 2396.44,1717.235 2356.007,1756.144 				"/>
				
					<linearGradient id="SVGID_00000010271304955794227790000000716620143774651012_" gradientUnits="userSpaceOnUse" x1="5124.231" y1="-5380.2671" x2="4825.2251" y2="-5246.2305" gradientTransform="matrix(0 1 -1 0 -3386.5 -3088.5)">
					<stop  offset="0" style="stop-color:#AB316D"/>
					<stop  offset="1" style="stop-color:#792D3D"/>
				</linearGradient>
				<polygon style="fill:url(#SVGID_00000010271304955794227790000000716620143774651012_);" points="1622.599,1950.001 
					1658.952,1914.438 2247.836,1860.237 2207.768,1898.795 				"/>
				
					<linearGradient id="SVGID_00000079480215203745284900000017437177356091634069_" gradientUnits="userSpaceOnUse" x1="5262.9438" y1="-5241.1426" x2="4957.8608" y2="-5104.3813" gradientTransform="matrix(0 1 -1 0 -3386.5 -3088.5)">
					<stop  offset="0" style="stop-color:#AB316D"/>
					<stop  offset="1" style="stop-color:#792D3D"/>
				</linearGradient>
				<polygon style="fill:url(#SVGID_00000079480215203745284900000017437177356091634069_);" points="1489.254,2080.447 
					1525.306,2045.179 2100.571,2001.951 2060.863,2040.162 				"/>
				
					<linearGradient id="SVGID_00000124845331312397095890000017945702280140094852_" gradientUnits="userSpaceOnUse" x1="5400.4316" y1="-5103.208" x2="5089.3862" y2="-4963.7739" gradientTransform="matrix(0 1 -1 0 -3386.5 -3088.5)">
					<stop  offset="0" style="stop-color:#AB316D"/>
					<stop  offset="1" style="stop-color:#792D3D"/>
				</linearGradient>
				<polygon style="fill:url(#SVGID_00000124845331312397095890000017945702280140094852_);" points="1357.014,2209.813 
					1392.767,2174.837 1954.626,2142.394 1915.273,2180.264 				"/>
			</g>
		</g>
		<g>
			
				<linearGradient id="SVGID_00000093169729156388564750000002626869447431667357_" gradientUnits="userSpaceOnUse" x1="1391.5842" y1="1428.5957" x2="1405.7797" y2="2759.4871">
				<stop  offset="0" style="stop-color:#FF9085"/>
				<stop  offset="1" style="stop-color:#FB6FBB"/>
			</linearGradient>
			<path style="fill:url(#SVGID_00000093169729156388564750000002626869447431667357_);" d="M1255.448,1974.036
				c10.696-11.767,21.393-23.531,32.089-35.298c20.651-0.815,138.705-3.554,224.625,86.641
				c44.471,46.683,102.232,137.526,70.597,192.536c-9.031,15.703-23.199,24.794-192.536,54.552
				c-122.137,21.463-143.468,21.776-160.446,6.418c-45.235-40.92-7.422-145.909-3.209-157.238
				c9.667-3.986,23.948-9.141,41.716-12.836c77.273-16.063,131.413,14.027,137.984,3.209
				C1411.528,2103.361,1384.626,2071.256,1255.448,1974.036z"/>
			
				<linearGradient id="SVGID_00000093137601662821947950000014600561812793970057_" gradientUnits="userSpaceOnUse" x1="3318.79" y1="1379.1605" x2="3367.0779" y2="1379.1605" gradientTransform="matrix(0.9659 0.2589 -0.2589 0.9659 -1598.4503 -269.4668)">
				<stop  offset="0" style="stop-color:#FFC444"/>
				<stop  offset="0.9964" style="stop-color:#F36F56"/>
			</linearGradient>
			<path style="fill:url(#SVGID_00000093137601662821947950000014600561812793970057_);" d="M1282.611,1982.997l-35.376-34.88
				c-4.324-9.531,0.539-20.698,10.461-24.028c9.118-3.06,18.507-8.296,20.952-17.124c5.104-18.429,9.14-24.961,14.684-25.759
				c5.544-0.798-5.556,31.967-8.038,44.185s-14.672,11.515-14.672,11.515l24.507,3.528L1282.611,1982.997z"/>
			<g>
				
					<linearGradient id="SVGID_00000115474059006634381970000010589322537060209848_" gradientUnits="userSpaceOnUse" x1="2501.6396" y1="1776.775" x2="2501.5281" y2="1776.8251" gradientTransform="matrix(0.9847 0.174 -0.174 0.9847 -715.2769 -175.2956)">
					<stop  offset="0" style="stop-color:#AB316D"/>
					<stop  offset="1" style="stop-color:#792D3D"/>
				</linearGradient>
				<path style="fill:url(#SVGID_00000115474059006634381970000010589322537060209848_);" d="M1438.874,2009.637
					c0,0-0.014-0.002-0.028-0.004l0.058-0.09C1438.896,2009.581,1438.898,2009.601,1438.874,2009.637z"/>
				
					<linearGradient id="SVGID_00000072248136939629886040000017199023555882085778_" gradientUnits="userSpaceOnUse" x1="3160.4456" y1="963.1324" x2="1142.7458" y2="1867.6167" gradientTransform="matrix(0.9847 0.174 -0.174 0.9847 -715.2769 -175.2956)">
					<stop  offset="0" style="stop-color:#AB316D"/>
					<stop  offset="1" style="stop-color:#792D3D"/>
				</linearGradient>
				<path style="fill:url(#SVGID_00000072248136939629886040000017199023555882085778_);" d="M1450.788,1961.259l-101.027-15.304
					c-2.834,3.049-4.781,3.988-7.25,6.212c-11.066,9.945-24.396,23.763-33.039,29.395l-43.16-6.671
					c1.117-3.299,1.316-4.934,1.987-7.433c2.318-8.663,4.438-16.867,6.749-25.5c0.667-2.485,0.776-3.742,1.829-7.043l-98.501-14.924
					c-2.438,3.066-2.3,1.739-3.548,2.851c-12.233,10.882-23.314,20.543-36.584,32.253l-42.085-6.505
					c1.623-3.177,0.688-2.395,1.046-3.645c2.444-8.538,4.694-16.641,7.13-25.15c1.048-3.674,2.276-7.261,2.967-10.573
					l-96.069-14.556c-0.013-0.002,0.138-0.412,0.113-0.397c-13.401,11.81-26.364,23.545-40.084,35.015l-41.049-6.345
					c-0.013-0.002,0.012,0.034,0.011,0.015c2.562-8.416,4.926-16.404,7.479-24.792c1.461-4.81,3.596-10.717,4.199-14.001
					l-93.726-14.201c-13.626,11.335-26.537,22.857-39.921,34.537c-0.025,0.015,0.129-0.391,0.117-0.393l-40.051-6.191
					c1.799-6.41,4.404-13.804,6.69-20.918c1.905-5.914,5.375-13.973,5.516-17.286l-91.467-13.859
					c-0.012-0.002,0.198-0.709,0.173-0.694c-13.293,11.492-25.775,21.563-39.699,33.762l-3.654-0.568l510.925-707.614l3.547,0.498
					c12.677-8.309,24.959-20.765,37.146-31.135c0.023-0.014,0.58-0.077,0.592-0.076l89.395,8.389
					c-2.758,9.324-7.166,24.905-10.926,34.148l39.125,3.769c12.76-8.411,26.132-23.191,37.87-31.715l91.472,8.565
					c-2.613,9.449-6.736,22.968-9.861,34.466c0.002,0.016-0.556,0.129-0.543,0.131l40.041,3.852
					c12.818-8.518,25.122-21.368,37.39-31.999c0.023-0.014,0.573-0.12,0.586-0.119l93.62,8.765
					c-2.092,9.611-5.854,21.179-8.523,31.761c-0.275,1.083,1.065,0.258-1.334,3.305l40.99,3.943
					c12.464-8.667,22.96-19.7,34.151-29.482c1.142-1,3.488-3.088,3.926-3.047l95.843,8.973c-2.264,9.711-5,19.312-7.248,28.968
					c-0.508,2.163-0.126,3.446-2.032,6.58l41.972,4.038c12.088-8.82,20.759-17.957,30.875-26.885
					c2.257-1.996,4.783-2.979,7.296-6.067l98.148,9.189C1938.243,1219.401,1447.357,1974.763,1450.788,1961.259z"/>
				
					<linearGradient id="SVGID_00000036951113118818395110000009220867496568787072_" gradientUnits="userSpaceOnUse" x1="2347.9871" y1="1175.7092" x2="1330.4375" y2="1631.8512" gradientTransform="matrix(0.9847 0.174 -0.174 0.9847 -715.2769 -175.2956)">
					<stop  offset="0" style="stop-color:#AB316D"/>
					<stop  offset="1" style="stop-color:#792D3D"/>
				</linearGradient>
				<path style="fill:url(#SVGID_00000036951113118818395110000009220867496568787072_);" d="M1197.486,1138.919l-508.907,705.423
					c-13.456,11.465-25.121,22.377-39.045,34.577l-3.654-0.568l510.925-707.614l3.547,0.498
					C1173.03,1162.925,1185.139,1149.271,1197.486,1138.919z"/>
				
					<linearGradient id="SVGID_00000134209970829552876330000005947682951915246775_" gradientUnits="userSpaceOnUse" x1="2465.6169" y1="1190.1218" x2="1463.1938" y2="1639.483" gradientTransform="matrix(0.9847 0.174 -0.174 0.9847 -715.2769 -175.2956)">
					<stop  offset="0" style="stop-color:#AB316D"/>
					<stop  offset="1" style="stop-color:#792D3D"/>
				</linearGradient>
				<path style="opacity:0.3;fill:url(#SVGID_00000134209970829552876330000005947682951915246775_);" d="M1315.977,1186.364
					l-507.305,717.787l-40.352-6.237c1.799-6.41,4.756-14.905,7.177-21.998l493.941-694.03L1315.977,1186.364z"/>
				<g>
					
						<linearGradient id="SVGID_00000042011293910691225280000001171000225365788088_" gradientUnits="userSpaceOnUse" x1="1821.801" y1="1369.0466" x2="2202.6436" y2="1369.0466" gradientTransform="matrix(0.9847 0.174 -0.174 0.9847 -715.2769 -175.2956)">
						<stop  offset="0" style="stop-color:#AB316D"/>
						<stop  offset="1" style="stop-color:#792D3D"/>
					</linearGradient>
					<path style="fill:url(#SVGID_00000042011293910691225280000001171000225365788088_);" d="M1278.767,1182.519l-508.14,715.213
						l-2.214-0.344c1.88-6.871,4.343-13.459,6.629-20.574c1.905-5.914,5.271-13.388,5.455-16.941l-0.622-0.097l506.984-711.317
						l0.616,0.015c-2.758,9.324-7.138,24.744-10.898,33.987L1278.767,1182.519z"/>
					
						<linearGradient id="SVGID_00000106868681175711858920000005348274271169920678_" gradientUnits="userSpaceOnUse" x1="1860.2067" y1="1366.3956" x2="2269.5361" y2="1366.3956" gradientTransform="matrix(0.9847 0.174 -0.174 0.9847 -715.2769 -175.2956)">
						<stop  offset="0" style="stop-color:#AB316D"/>
						<stop  offset="1" style="stop-color:#792D3D"/>
					</linearGradient>
					<path style="fill:url(#SVGID_00000106868681175711858920000005348274271169920678_);" d="M1354.26,1154.932l-505.402,715.626
						l-0.767-0.12c-13.154,8.674-26.027,22.467-39.579,34.122l0.249-0.904l-2.39-0.371l507.316-717.393l2.018,0.32
						c12.76-8.411,26.1-23.01,37.838-31.533L1354.26,1154.932z"/>
				</g>
				
					<linearGradient id="SVGID_00000173845246782058850440000016294141847495345329_" gradientUnits="userSpaceOnUse" x1="2626.145" y1="1182.2137" x2="1624.0526" y2="1631.4268" gradientTransform="matrix(0.9847 0.174 -0.174 0.9847 -715.2769 -175.2956)">
					<stop  offset="0" style="stop-color:#AB316D"/>
					<stop  offset="1" style="stop-color:#792D3D"/>
				</linearGradient>
				<path style="opacity:0.3;fill:url(#SVGID_00000173845246782058850440000016294141847495345329_);" d="M1474.23,1201.589
					l-503.412,727.626l-41.519-6.418l-0.027,0.111c3.111-8.331,6.38-17.501,9.48-25.804l487.855-700.097L1474.23,1201.589z"/>
				<g>
					
						<linearGradient id="SVGID_00000003795835378320136680000006428004021195528888_" gradientUnits="userSpaceOnUse" x1="1984.7118" y1="1361.1464" x2="2360.3572" y2="1361.1464" gradientTransform="matrix(0.9847 0.174 -0.174 0.9847 -715.2769 -175.2956)">
						<stop  offset="0" style="stop-color:#AB316D"/>
						<stop  offset="1" style="stop-color:#792D3D"/>
					</linearGradient>
					<path style="fill:url(#SVGID_00000003795835378320136680000006428004021195528888_);" d="M1434.974,1197.248L929.331,1922.91
						c3.11-8.331,5.372-16.381,7.925-24.768c1.461-4.809,4.042-10.698,4.645-13.981l-1.383-0.21l503.158-720.895l1.349,0.126
						C1442.412,1172.631,1437.933,1185.738,1434.974,1197.248z"/>
					
						<linearGradient id="SVGID_00000071560596245260841190000006666432898148634289_" gradientUnits="userSpaceOnUse" x1="2024.1869" y1="1357.1521" x2="2428.1379" y2="1357.1521" gradientTransform="matrix(0.9847 0.174 -0.174 0.9847 -715.2769 -175.2956)">
						<stop  offset="0" style="stop-color:#AB316D"/>
						<stop  offset="1" style="stop-color:#792D3D"/>
					</linearGradient>
					<path style="fill:url(#SVGID_00000071560596245260841190000006666432898148634289_);" d="M1512.927,1168.426l-501.313,724.96
						c-13.572,11.783-26.455,23.423-40.287,35.527l-2.892-0.449l503.439-727.29l2.805,0.364
						C1487.497,1193.02,1500.492,1179.038,1512.927,1168.426z"/>
				</g>
				
					<linearGradient id="SVGID_00000111153011738357942540000000470491304670969993_" gradientUnits="userSpaceOnUse" x1="2787.5251" y1="1174.4875" x2="1789.7462" y2="1621.7668" gradientTransform="matrix(0.9847 0.174 -0.174 0.9847 -715.2769 -175.2956)">
					<stop  offset="0" style="stop-color:#AB316D"/>
					<stop  offset="1" style="stop-color:#792D3D"/>
				</linearGradient>
				<path style="opacity:0.3;fill:url(#SVGID_00000111153011738357942540000000470491304670969993_);" d="M1633.752,1216.936
					l-499.246,737.581l-40.051-6.191l2.322-3.345c3.006-8.452,6.167-17.752,6.672-26.554l481.575-706.18L1633.752,1216.936z"/>
				<g>
					
						<linearGradient id="SVGID_00000111158136659913229030000013548625928009450887_" gradientUnits="userSpaceOnUse" x1="2152.8718" y1="1350.8453" x2="2521.7639" y2="1350.8453" gradientTransform="matrix(0.9847 0.174 -0.174 0.9847 -715.2769 -175.2956)">
						<stop  offset="0" style="stop-color:#AB316D"/>
						<stop  offset="1" style="stop-color:#792D3D"/>
					</linearGradient>
					<path style="fill:url(#SVGID_00000111158136659913229030000013548625928009450887_);" d="M1598.05,1209.683l-501.222,735.299
						c3.005-8.451,4.882-16.659,7.317-25.167c1.048-3.673,2.464-7.281,3.156-10.594l-4.668-0.707l499.078-730.663l4.547,0.426
						C1604.166,1187.889,1600.126,1199.048,1598.05,1209.683z"/>
					
						<linearGradient id="SVGID_00000062164949934771029410000012980947775415510687_" gradientUnits="userSpaceOnUse" x1="2192.2659" y1="1350.4478" x2="2588.8933" y2="1350.4478" gradientTransform="matrix(0.9847 0.174 -0.174 0.9847 -715.2769 -175.2956)">
						<stop  offset="0" style="stop-color:#AB316D"/>
						<stop  offset="1" style="stop-color:#792D3D"/>
					</linearGradient>
					<path style="fill:url(#SVGID_00000062164949934771029410000012980947775415510687_);" d="M1672.948,1186.632l-497.32,735.463
						c-12.845,10.788-24,20.633-37.343,32.756l-3.736-0.58l499.224-737.457l3.628,0.411
						C1649.865,1208.558,1661.162,1196.356,1672.948,1186.632z"/>
				</g>
				
					<linearGradient id="SVGID_00000171686204436523266030000005240399650725148828_" gradientUnits="userSpaceOnUse" x1="2955.2039" y1="1166.5162" x2="1962.153" y2="1611.676" gradientTransform="matrix(0.9847 0.174 -0.174 0.9847 -715.2769 -175.2956)">
					<stop  offset="0" style="stop-color:#AB316D"/>
					<stop  offset="1" style="stop-color:#792D3D"/>
				</linearGradient>
				<path style="opacity:0.3;fill:url(#SVGID_00000171686204436523266030000005240399650725148828_);" d="M1799.509,1232.883
					l-494.66,747.965l-38.538-5.957c1.117-3.299,1.001-4.983,1.672-7.482c2.319-8.663,3.815-18.211,6.701-26.754l474.935-712.572
					L1799.509,1232.883z"/>
				<g>
					
						<linearGradient id="SVGID_00000001635527806323360670000018086240965593669298_" gradientUnits="userSpaceOnUse" x1="2323.427" y1="1340.287" x2="2686.9954" y2="1340.287" gradientTransform="matrix(0.9847 0.174 -0.174 0.9847 -715.2769 -175.2956)">
						<stop  offset="0" style="stop-color:#AB316D"/>
						<stop  offset="1" style="stop-color:#792D3D"/>
					</linearGradient>
					<path style="fill:url(#SVGID_00000001635527806323360670000018086240965593669298_);" d="M1764.906,1222.39l-496.443,745.191
						c2.894-8.574,4.355-16.928,6.665-25.561c0.667-2.485,0.694-3.804,1.747-7.105l-5.569-0.844l494.588-740.849l5.417,0.507
						C1769.047,1203.441,1766.115,1212.637,1764.906,1222.39z"/>
					
						<linearGradient id="SVGID_00000109005726410925139570000001265419048855330955_" gradientUnits="userSpaceOnUse" x1="2364.5994" y1="1343.5875" x2="2753.541" y2="1343.5875" gradientTransform="matrix(0.9847 0.174 -0.174 0.9847 -715.2769 -175.2956)">
						<stop  offset="0" style="stop-color:#AB316D"/>
						<stop  offset="1" style="stop-color:#792D3D"/>
					</linearGradient>
					<path style="fill:url(#SVGID_00000109005726410925139570000001265419048855330955_);" d="M1836.841,1205.296l-492.969,746.269
						c-12.141,9.78-25.722,24.16-34.381,29.884l-4.622-0.718l494.65-747.906l4.49,0.461
						C1816.097,1224.466,1825.681,1214.123,1836.841,1205.296z"/>
				</g>
			</g>
			
				<linearGradient id="SVGID_00000113316396423702542890000004561348759103979417_" gradientUnits="userSpaceOnUse" x1="-2152.512" y1="3206.395" x2="-2099.8501" y2="3206.395" gradientTransform="matrix(-1 0 0 1 -739.6322 0)">
				<stop  offset="0" style="stop-color:#FFC444"/>
				<stop  offset="0.9964" style="stop-color:#F36F56"/>
			</linearGradient>
			<path style="fill:url(#SVGID_00000113316396423702542890000004561348759103979417_);" d="M1360.218,3190.401
				c1.051,0.693,20.192,26.594,28.851,43.524l23.811-12.791c0,0-13.422-4.779-20.169-30.734
				C1385.964,3164.446,1360.218,3190.401,1360.218,3190.401z"/>
			
				<linearGradient id="SVGID_00000128445046932280598370000016472498212927561094_" gradientUnits="userSpaceOnUse" x1="-2216.1187" y1="3221.3076" x2="-2122.5801" y2="3221.3076" gradientTransform="matrix(-1 0 0 1 -739.6322 0)">
				<stop  offset="0" style="stop-color:#444B8C"/>
				<stop  offset="0.9964" style="stop-color:#26264F"/>
			</linearGradient>
			<path style="fill:url(#SVGID_00000128445046932280598370000016472498212927561094_);" d="M1422.813,3249.425
				c0,0-14.926,5.049-21.137,5.501l-0.627,0.046c-3.513,0.256-6.919-1.288-9.024-4.112c-3.67-4.923-8.974-12.378-9.074-14.46
				c-0.154-3.188,8.463-9.735,16.143-12.569s9.48-6.633,23.719-18.009c14.238-11.375,38.295-24.882,49.56-14.484
				C1483.637,3201.736,1473.234,3227.637,1422.813,3249.425z"/>
			
				<linearGradient id="SVGID_00000143616461698936136870000003518381391773779328_" gradientUnits="userSpaceOnUse" x1="-2156.2842" y1="3187.251" x2="-2166.6328" y2="3211.1716" gradientTransform="matrix(-1 0 0 1 -739.6322 0)">
				<stop  offset="0" style="stop-color:#444B8C"/>
				<stop  offset="0.9964" style="stop-color:#26264F"/>
			</linearGradient>
			<path style="fill:url(#SVGID_00000143616461698936136870000003518381391773779328_);" d="M1464.12,3192.982
				c-12.371,4.925-16.102,18.845-37.564,32.971c-12.182,8.016-27.201,15.377-37.916,20.247c-2.888-4.088-5.617-8.313-5.689-9.8
				c-0.154-3.189,8.463-9.734,16.143-12.568c7.681-2.836,9.481-6.635,23.719-18.01c14.238-11.375,38.295-24.881,49.56-14.484
				c2.871,2.648,4.324,6.309,4.077,10.646C1474.224,3195.977,1470.417,3190.474,1464.12,3192.982z"/>
			
				<linearGradient id="SVGID_00000093860391063837566390000009041221803790406843_" gradientUnits="userSpaceOnUse" x1="1376.4777" y1="2135.8291" x2="1129.9552" y2="3333.5769">
				<stop  offset="0.0036" style="stop-color:#6165D7"/>
				<stop  offset="1" style="stop-color:#AA80F9"/>
			</linearGradient>
			<path style="fill:url(#SVGID_00000093860391063837566390000009041221803790406843_);" d="M1400.24,3184.267
				c-8.386,3.437-16.772,6.909-25.158,10.381c-5.283,2.179-10.565,4.36-15.849,6.539c-26.858-17.104-66.24-47.25-95.276-96.126
				c-47.582-80.165-14.002-120.802-52.68-217.188c-37.535-93.429-85.043-94.98-126.234-196.61
				c-5.949-14.703-10.789-29.039-14.741-42.892c-12.266-43.26-15.701-81.423-16.514-108.612
				c54.899-16.438,146.491-32.879,201.389-49.319c38.273,76.952,40.587,169.422,72.802,276.593
				C1375.969,2926.663,1394.364,3070.297,1400.24,3184.267z"/>
			
				<linearGradient id="SVGID_00000102529566829097772270000010253104484748199832_" gradientUnits="userSpaceOnUse" x1="1280.7675" y1="2820.73" x2="1131.3602" y2="3079.9956">
				<stop  offset="0.0036" style="stop-color:#6165D7"/>
				<stop  offset="1" style="stop-color:#AA80F9"/>
			</linearGradient>
			<path style="fill:url(#SVGID_00000102529566829097772270000010253104484748199832_);" d="M1375.081,3194.648
				c-5.283,2.179-10.565,4.36-15.849,6.539c-26.858-17.104-66.24-47.25-95.276-96.126c-47.582-80.165-14.002-120.802-52.68-217.188
				c-37.535-93.429-85.043-94.98-126.234-196.61c-5.949-14.703-10.789-29.039-14.741-42.892
				c12.782-17.4,22.314-30.218,22.314-30.218s103.109,11.083,119.917,124.387c16.772,113.304,70.45,92.689,91.914,200.712
				C1321.292,3028.146,1355.982,3142.706,1375.081,3194.648z"/>
			
				<linearGradient id="SVGID_00000145758078637922996160000013801071155292213170_" gradientUnits="userSpaceOnUse" x1="-1384.3265" y1="3111.8657" x2="-1341.0392" y2="3111.8657" gradientTransform="matrix(-1 0 0 1 -739.6322 0)">
				<stop  offset="0" style="stop-color:#444B8C"/>
				<stop  offset="0.9964" style="stop-color:#26264F"/>
			</linearGradient>
			<path style="fill:url(#SVGID_00000145758078637922996160000013801071155292213170_);" d="M617.391,3054.464
				c0,0-10.114,3.801-14.603,17.933c-4.488,14.129,2.855,72.863,9.245,87.294c6.388,14.431,25.214,10.989,30.705,0
				c5.49-10.986-2.319-88.724-2.319-88.724L617.391,3054.464z"/>
			
				<linearGradient id="SVGID_00000158720564195720135690000004280578678458935964_" gradientUnits="userSpaceOnUse" x1="1162.9811" y1="1822.9858" x2="719.6666" y2="3544.5288">
				<stop  offset="0.0036" style="stop-color:#6165D7"/>
				<stop  offset="1" style="stop-color:#AA80F9"/>
			</linearGradient>
			<path style="fill:url(#SVGID_00000158720564195720135690000004280578678458935964_);" d="M1212.517,2525.309
				c-44.484,60.323-75.203,112.602-95.007,149.125c-41.844,77.167-51.417,114.356-100.739,186.073
				c-45.673,66.41-75.816,90.288-88.124,99.452c-29.685,22.101-54.186,32.009-117.241,55.858
				c-55.099,20.838-113.456,42.419-174.908,64.517c-10.86,1.221-15.423-3.468-18.407-13.315
				c1.009-46.938,15.136-75.596,26.852-92.555c25.005-36.198,50.958-36.381,128.349-91.215
				c41.266-29.236,62.254-44.344,79.647-68.257c8.367-11.503,22.07-32.876,43.778-113.552c8.896-33.059,19.59-77.771,28.606-131.821
				C1021.054,2554.848,1116.786,2540.079,1212.517,2525.309z"/>
			
				<linearGradient id="SVGID_00000126300022671477819400000011173272298176112561_" gradientUnits="userSpaceOnUse" x1="1077.4049" y1="1431.9451" x2="1091.6003" y2="2762.8391">
				<stop  offset="0" style="stop-color:#FF9085"/>
				<stop  offset="1" style="stop-color:#FB6FBB"/>
			</linearGradient>
			<path style="fill:url(#SVGID_00000126300022671477819400000011173272298176112561_);" d="M1269.741,2108.153
				c-33.153,6.514-78.998,11.535-132.667,5.211c-93.384-11.007-161.072-50.546-196.108-74.783
				c-38.265,83.496-39.065,145.39-32.326,186.979c4.966,30.649,12.512,40.927,13.19,75.223
				c1.142,57.747-3.595,66.548-13.301,141.594c-7.99,61.781-23.703,161.765,42.72,155.089c35.425-3.558,40.845,8.805,77.569,1.804
				c40.082-7.642,37.303-23.071,74.863-30.667c37.232-7.529,48.532,5.898,105.53-0.902c23.979-2.86,35.969-4.291,43.446-10.94
				c24.185-21.506,4.198-64.297-0.152-131.571c-4.29-66.354,12.177-70.776,18.942-169.57
				C1273.836,2220.723,1275.276,2170.234,1269.741,2108.153z"/>
			<g>
				
					<linearGradient id="SVGID_00000003795340473803759960000016090118501353617804_" gradientUnits="userSpaceOnUse" x1="8283.4863" y1="-1958.5485" x2="8290.0889" y2="-2134.4292" gradientTransform="matrix(0.9729 0.2312 -0.2312 0.9729 -7400.0767 2168.9084)">
					<stop  offset="0" style="stop-color:#FFC444"/>
					<stop  offset="0.9964" style="stop-color:#F36F56"/>
				</linearGradient>
				<path style="fill:url(#SVGID_00000003795340473803759960000016090118501353617804_);" d="M1129.818,2043.173
					c1.727,9.168,2.787,28.951-9.333,44.668c-10.613,13.762-26.844,17.927-33.346,19.66c-15.716,4.189-24.207,0.793-25.052,3.495
					c-1.871,5.983,36.676,32.541,81.284,30.878c26.217-0.976,52.626-11.63,52.356-20.055c-0.303-9.453-33.956-8.385-42.305-27.958
					c-5.335-12.508,2.018-27.918,10.005-39.919C1156.191,2045.523,1137.072,2051.612,1129.818,2043.173z"/>
				<g>
					
						<linearGradient id="SVGID_00000150097596263793788600000008380797243709019321_" gradientUnits="userSpaceOnUse" x1="-3557.7285" y1="-373.7102" x2="-3601.2688" y2="-484.2945" gradientTransform="matrix(-0.8824 0.4708 0.4708 0.8824 -1823.4063 4133.5576)">
						<stop  offset="0" style="stop-color:#444B8C"/>
						<stop  offset="0.9964" style="stop-color:#26264F"/>
					</linearGradient>
					<path style="fill:url(#SVGID_00000150097596263793788600000008380797243709019321_);" d="M1159.718,2026.896
						c1.819-9.111-3.361-20.255-12.548-23.941c-7.909-3.173-16.09,0.375-20.993,2.499c-14.22,6.163-28.583,21.185-28.615,36.38
						c-0.018,9.013,14.857,19.256,17.355,21.198c2.827,2.195,5.776,1.818,9.152,2.769c4.681,1.32,12.043,3.462,24.152,7.154
						c-0.597-2.79-1.159-6.343-1.293-10.467c-0.051-1.586-0.188-7.817,1.28-13.886
						C1151.147,2036.45,1157.992,2035.538,1159.718,2026.896z"/>
					
						<linearGradient id="SVGID_00000043452582636512796730000011820587938415312300_" gradientUnits="userSpaceOnUse" x1="5123.77" y1="-190.0829" x2="5121.8218" y2="-33.1232" gradientTransform="matrix(0.8517 -0.5239 0.5239 0.8517 -3128.7861 4886.9307)">
						<stop  offset="0" style="stop-color:#FFC444"/>
						<stop  offset="0.9964" style="stop-color:#F36F56"/>
					</linearGradient>
					<path style="fill:url(#SVGID_00000043452582636512796730000011820587938415312300_);" d="M1133.359,2072.522
						c0,0,15.787,8.798,32.861-2.378c15.256-9.987,0.714-44.987-12.915-46.409c-4.55-0.474-11.774,2.364-16.518,6.939
						c-2.804,2.705-3.261,4.608-7.923,8.948c-4.303,4.007-5.948,4.278-6.838,6.309c-1.113,2.542-0.653,6.959,7.373,15.066
						c-4.47-1.188-8.65-0.24-10.642,2.379c-0.318,0.418-1.053,1.741-1.133,3.157
						C1117.338,2071.657,1123.503,2074.475,1133.359,2072.522z"/>
				</g>
			</g>
			
				<linearGradient id="SVGID_00000087405542649121627170000010744617985260331935_" gradientUnits="userSpaceOnUse" x1="1157.2523" y1="2102.4075" x2="913.4275" y2="3287.0483">
				<stop  offset="0.0036" style="stop-color:#6165D7"/>
				<stop  offset="1" style="stop-color:#AA80F9"/>
			</linearGradient>
			<path style="fill:url(#SVGID_00000087405542649121627170000010744617985260331935_);" d="M1135.304,2642.746
				c0,0,141.259-53.52,138.262-99.699c-2.997-46.179-11.458-122.956-4.844-184.715s4.891-86.476,4.891-86.476
				s-35.677-29.279-37.524-47.75c-49.873-2.463-216.117-15.393-216.117-15.393s-64.866,92.807-102.128,112.38
				c-10.792,5.668-17.978,16.421-19.11,28.558c-9.481,101.613-9.512,273.862,12.383,293.095
				C935.003,2663.728,1135.304,2642.746,1135.304,2642.746z"/>
			
				<linearGradient id="SVGID_00000075140172834926917500000008789026430401698730_" gradientUnits="userSpaceOnUse" x1="1066.5957" y1="2082.1548" x2="999.9526" y2="2231.7876">
				<stop  offset="0.0036" style="stop-color:#6165D7"/>
				<stop  offset="1" style="stop-color:#AA80F9"/>
			</linearGradient>
			<path style="fill:url(#SVGID_00000075140172834926917500000008789026430401698730_);" d="M1048.834,2092.562
				c0,0,7.466,90.291-1.77,126.619c-20.934-0.616-25.86,0-25.86,0s9.88-117.747,3.093-135.223
				C1041.14,2090.502,1048.834,2092.562,1048.834,2092.562z"/>
			
				<linearGradient id="SVGID_00000095323624816389928670000007721316854518444431_" gradientUnits="userSpaceOnUse" x1="1244.7103" y1="2108.5918" x2="1186.6057" y2="2239.0535">
				<stop  offset="0.0036" style="stop-color:#6165D7"/>
				<stop  offset="1" style="stop-color:#AA80F9"/>
			</linearGradient>
			<path style="fill:url(#SVGID_00000095323624816389928670000007721316854518444431_);" d="M1195.729,2114.062
				c0,0,19.426,98.961,15.732,116.817c18.471,6.157,25.332,0,25.332,0s-18.81-116.217-20.532-118.988
				C1208.844,2112.969,1195.729,2114.062,1195.729,2114.062z"/>
			
				<linearGradient id="SVGID_00000144339503193417592320000018178942797630077860_" gradientUnits="userSpaceOnUse" x1="1093.4557" y1="2449.0452" x2="1131.6302" y2="2275.4131">
				<stop  offset="0.0036" style="stop-color:#6165D7"/>
				<stop  offset="1" style="stop-color:#AA80F9"/>
			</linearGradient>
			<path style="fill:url(#SVGID_00000144339503193417592320000018178942797630077860_);" d="M1072.308,2243.458
				c0,0-9.406,59.109,79.65,58.493c53.96-0.616,50.882-58.493,50.882-58.493H1072.308z"/>
			<g>
				
					<linearGradient id="SVGID_00000145764909967387673390000006487142008157101715_" gradientUnits="userSpaceOnUse" x1="5888.585" y1="-1068.1547" x2="6018.4243" y2="-965.1078" gradientTransform="matrix(-0.408 0.913 0.913 0.408 4498.9312 -2916.8557)">
					<stop  offset="0" style="stop-color:#FFC444"/>
					<stop  offset="0.9964" style="stop-color:#F36F56"/>
				</linearGradient>
				<path style="fill:url(#SVGID_00000145764909967387673390000006487142008157101715_);" d="M1155.911,2001.902
					c0,0-35.87,31.387-50.804,49.819c-2.646,3.266-7.556,3.496-10.453,0.451c-8.76-9.206-21.813-28.776-1.989-50.151
					C1117.715,1975.009,1141.5,1986.06,1155.911,2001.902z"/>
				
					<linearGradient id="SVGID_00000171706018369787744740000008859777030454990512_" gradientUnits="userSpaceOnUse" x1="5870.4917" y1="-1020.8819" x2="5875.1616" y2="-1046.3083" gradientTransform="matrix(-0.408 0.913 0.913 0.408 4498.9312 -2916.8557)">
					<stop  offset="0" style="stop-color:#FFC444"/>
					<stop  offset="0.9964" style="stop-color:#F36F56"/>
				</linearGradient>
				<path style="fill:url(#SVGID_00000171706018369787744740000008859777030454990512_);" d="M1151.559,1999.957
					c0,0,14.603-8.511,16.175-4.399s-54.674,47.135-54.674,47.135L1151.559,1999.957z"/>
				
					<linearGradient id="SVGID_00000041993426335658258950000006379022875746937489_" gradientUnits="userSpaceOnUse" x1="5852.5142" y1="-1097.3173" x2="5918.9312" y2="-1018.4468" gradientTransform="matrix(-0.408 0.913 0.913 0.408 4498.9312 -2916.8557)">
					<stop  offset="0" style="stop-color:#FFC444"/>
					<stop  offset="0.9964" style="stop-color:#F36F56"/>
				</linearGradient>
				<path style="fill:url(#SVGID_00000041993426335658258950000006379022875746937489_);" d="M1104.714,2007.407
					c-3.717-3.501-9.324-3.394-15.121-1.723c0.929-1.215,1.932-2.435,3.071-3.663c22.187-23.924,43.375-17.986,57.942-5.31
					c-6.086,5.447-12.809,11.581-16.304,15.166C1126.969,2019.398,1115.74,2017.789,1104.714,2007.407z"/>
			</g>
			
				<linearGradient id="SVGID_00000167359848833380691520000006505004965420793236_" gradientUnits="userSpaceOnUse" x1="929.3311" y1="1798.9977" x2="996.7538" y2="1798.9977">
				<stop  offset="0" style="stop-color:#FFC444"/>
				<stop  offset="0.9964" style="stop-color:#F36F56"/>
			</linearGradient>
			<path style="fill:url(#SVGID_00000167359848833380691520000006505004965420793236_);" d="M929.331,1815.7
				c0,0,3.262-26.956,8.008-37.096c7.068-15.101,46.422-29.288,50.414-29.436c19.662-0.728,2.456,19.643-7.678,32.541
				c-9.76,12.422-22.329,29.242-9.464,23.66c13.531-5.871,14.788-2.07,3.253,8.577c-11.534,10.647-13.013,5.324-21.294,13.309
				c-8.281,7.985-16.562,21.59-16.562,21.59L929.331,1815.7z"/>
			
				<linearGradient id="SVGID_00000156554340261912664990000007148237906792944040_" gradientUnits="userSpaceOnUse" x1="855.0232" y1="1434.3175" x2="869.2186" y2="2765.21">
				<stop  offset="0" style="stop-color:#FF9085"/>
				<stop  offset="1" style="stop-color:#FB6FBB"/>
			</linearGradient>
			<path style="fill:url(#SVGID_00000156554340261912664990000007148237906792944040_);" d="M947.64,1836.207
				c-7.516-8.417-15.032-16.838-22.549-25.255c-31.642,17.057-79.998,48.167-123.854,101.38
				c-32.814,39.817-61.784,74.966-64.902,125.969c-4.47,73.109,47.293,127.829,71.392,153.306
				c47.493,50.207,102.27,71.199,133.6,80.25c60.676-134.671,51.661-187.267,30.183-209.724
				c-11.956-12.5-28.081-15.989-42.866-39.183c-20.569-32.27-16.922-68.775-14.611-91.912
				C918.285,1888.472,934.937,1855.966,947.64,1836.207z"/>
		</g>
		<g>
			
				<linearGradient id="SVGID_00000131354538876152651970000003634887632805839277_" gradientUnits="userSpaceOnUse" x1="1261.3734" y1="775.3633" x2="1716.0471" y2="775.3633">
				<stop  offset="0" style="stop-color:#AB316D"/>
				<stop  offset="1" style="stop-color:#792D3D"/>
			</linearGradient>
			<path style="fill:url(#SVGID_00000131354538876152651970000003634887632805839277_);" d="M1640.002,893.29
				c17.092,8.678,38.565,0.71,47.961-17.797c9.397-18.507,3.158-40.544-13.934-49.222c-0.885-0.45-1.789-0.827-2.695-1.189
				c3.175-10.24,5.569-20.561,7.175-30.886c0.979-0.003,1.962-0.019,2.962-0.108c19.5-1.738,34.976-19.657,34.568-40.024
				c-0.409-20.367-16.547-35.468-36.048-33.73c-1.019,0.091-2.02,0.252-3.016,0.429c-2.037-10.093-4.827-19.952-8.349-29.494
				c0.897-0.525,1.79-1.067,2.661-1.678c16.683-11.688,22.017-34.757,11.913-51.526c-10.104-16.769-31.819-20.887-48.502-9.199
				c-0.855,0.599-1.659,1.246-2.454,1.903c-6.589-7.284-13.816-14.035-21.636-20.196c0.55-0.902,1.088-1.815,1.575-2.773
				c9.396-18.507,21.675-38.722,4.45-47.132c-39.848-19.453-56.947-2.8-66.344,15.706c-0.487,0.959-0.906,1.932-1.31,2.908
				c-9.588-2.677-19.303-4.528-29.072-5.549c0.061-1.029,0.108-2.06,0.088-3.104c-0.409-20.366,5.634-31.387-13.939-31.768
				c-42.684-0.83-57.085,17.697-56.677,38.062c0.021,1.065,0.111,2.105,0.215,3.14c-9.781,2.788-19.388,6.353-28.738,10.664
				c-0.444-0.908-0.906-1.811-1.433-2.688c-10.104-16.768-31.818-20.886-48.502-9.198c-16.684,11.689-22.017,34.757-11.914,51.526
				c0.517,0.859,1.085,1.662,1.66,2.455c-7.388,7.389-14.307,15.412-20.701,24.019c-0.827-0.519-1.666-1.026-2.551-1.475
				c-17.092-8.678-38.564-0.71-47.961,17.797c-9.396,18.507-3.158,40.544,13.934,49.222c0.885,0.45,1.79,0.827,2.696,1.189
				c-3.175,10.24-5.57,20.561-7.175,30.885c-0.98,0.003-1.963,0.019-2.961,0.108c-19.501,1.739-34.977,19.657-34.569,40.024
				c0.408,20.367,16.548,35.467,36.048,33.729c1.019-0.091,2.02-0.251,3.015-0.428c2.037,10.093,4.828,19.952,8.349,29.495
				c-0.897,0.525-1.789,1.067-2.661,1.678c-16.683,11.688-22.017,34.757-11.913,51.526c10.104,16.769,43.553,24.559,60.236,12.871
				c0.855-0.599-10.075-4.918-9.281-5.575c6.59,7.285,13.817,14.035,21.636,20.196c-0.549,0.901-1.088,1.814-1.574,2.773
				c-9.397,18.507-3.158,40.544,13.933,49.222c17.092,8.678,38.565,0.71,47.961-17.797c0.487-0.959,0.906-1.932,1.309-2.908
				c9.588,2.677,19.303,4.528,29.072,5.549c-0.061,1.029-0.108,2.06-0.088,3.104c0.408,20.366,16.547,35.467,36.047,33.729
				c19.5-1.738,34.977-19.658,34.568-40.024c-0.021-1.064-0.11-2.105-0.216-3.139c9.782-2.788,19.389-6.353,28.739-10.664
				c0.444,0.908,0.906,1.811,1.433,2.687c10.104,16.768,31.819,20.887,48.502,9.199c16.684-11.689,22.018-34.757,11.914-51.527
				c-0.518-0.858-1.085-1.662-1.66-2.454c7.388-7.389,14.307-15.412,20.7-24.019C1638.278,892.334,1639.117,892.841,1640.002,893.29
				z M1426.938,895.994c-62.056-31.508-84.706-111.521-50.59-178.715c34.116-67.194,112.078-96.124,174.134-64.617
				c62.056,31.507,84.707,111.52,50.591,178.714C1566.957,898.571,1488.994,927.501,1426.938,895.994z"/>
			
				<linearGradient id="SVGID_00000033350818370380895890000014506745391162184095_" gradientUnits="userSpaceOnUse" x1="1443.2971" y1="795.5717" x2="1716.0471" y2="795.5717">
				<stop  offset="0" style="stop-color:#AB316D"/>
				<stop  offset="1" style="stop-color:#792D3D"/>
			</linearGradient>
			<path style="fill:url(#SVGID_00000033350818370380895890000014506745391162184095_);" d="M1681.471,794.088
				c19.5-1.739,34.976-19.658,34.568-40.024c-0.409-20.366-16.547-35.468-36.048-33.729c-1.019,0.091-2.02,0.252-3.016,0.429
				c-2.036-10.093-4.827-19.952-8.349-29.494c0.897-0.524,1.79-1.067,2.661-1.678c16.683-11.688,37.323-39.93,25.553-55.573
				c-22.34-29.69-45.459-16.839-62.142-5.151c-0.855,0.599-1.659,1.246-2.453,1.902c-6.59-7.284-13.817-14.034-21.637-20.196
				c0.55-0.901,1.088-1.814,1.575-2.772c5.114-10.072,5.566-21.177,2.188-30.618c-16.114,28.362-32.011,56.843-47.623,85.478
				c49.506,36.277,65.267,107.768,34.323,168.717c-26.223,51.648-78.349,80.65-129.246,77.016
				c-2.27,5.888-4.499,11.808-6.931,17.639c-6.598,15.825-14.093,31.324-21.598,46.802c4.72,0.89,9.461,1.59,14.214,2.088
				c-0.061,1.029-0.108,2.061-0.088,3.104c0.408,20.366,12.773,37.67,48.114,35.796c19.55-1.037,22.91-21.724,22.501-42.09
				c-0.021-1.064-0.11-2.104-0.216-3.138c9.782-2.788,19.388-6.353,28.738-10.665c0.444,0.908,0.906,1.811,1.434,2.687
				c10.104,16.769,45.154,23.894,61.837,12.205c16.684-11.689,8.682-37.763-1.422-54.532c-0.518-0.859-1.085-1.662-1.66-2.455
				c7.388-7.388,14.307-15.412,20.7-24.018c0.827,0.519,1.665,1.026,2.551,1.474c17.092,8.679,38.565,0.71,47.961-17.797
				c9.396-18.506,3.158-40.544-13.934-49.221c-0.885-0.45-1.789-0.828-2.696-1.189c3.175-10.24,5.569-20.562,7.175-30.885
				C1679.489,794.194,1680.472,794.177,1681.471,794.088z"/>
			
				<linearGradient id="SVGID_00000058561277505957091270000008607902521762442899_" gradientUnits="userSpaceOnUse" x1="1637.9489" y1="544.1247" x2="1067.5564" y2="1556.6809">
				<stop  offset="0" style="stop-color:#FF9085"/>
				<stop  offset="1" style="stop-color:#FB6FBB"/>
			</linearGradient>
			<path style="fill:url(#SVGID_00000058561277505957091270000008607902521762442899_);" d="M1658.385,895.381
				c17.092,8.678,38.565,0.71,47.961-17.797c9.396-18.507,3.158-40.544-13.934-49.222c-0.885-0.449-1.789-0.827-2.696-1.189
				c3.176-10.24,5.57-20.561,7.175-30.886c0.98-0.003,1.963-0.019,2.962-0.108c19.5-1.738,34.976-19.657,34.568-40.023
				c-0.408-20.367-16.547-35.468-36.047-33.73c-1.019,0.091-2.02,0.252-3.016,0.429c-2.036-10.093-4.828-19.952-8.349-29.495
				c0.897-0.525,1.79-1.067,2.662-1.678c16.683-11.688,22.017-34.757,11.913-51.526c-10.104-16.768-31.819-20.887-48.502-9.198
				c-0.855,0.599-1.659,1.246-2.454,1.902c-6.589-7.284-13.816-14.035-21.636-20.196c0.55-0.901,1.088-1.815,1.575-2.773
				c9.396-18.507,3.158-40.544-13.934-49.222c-17.092-8.678-38.564-0.71-47.961,17.797c-0.487,0.959-0.906,1.932-1.31,2.908
				c-9.588-2.677-19.302-4.528-29.071-5.55c0.061-1.029,0.108-2.06,0.088-3.104c-0.409-20.366-16.547-35.467-36.048-33.729
				c-19.5,1.738-34.976,19.658-34.568,40.023c0.022,1.064,0.11,2.105,0.216,3.139c-9.781,2.789-19.388,6.353-28.738,10.665
				c-0.444-0.908-0.906-1.811-1.433-2.688c-10.103-16.768-31.819-20.887-48.502-9.198c-16.684,11.689-22.017,34.758-11.914,51.526
				c0.518,0.859,1.085,1.663,1.661,2.455c-7.388,7.389-14.307,15.412-20.701,24.019c-0.827-0.519-1.665-1.025-2.551-1.475
				c-17.092-8.678-38.564-0.71-47.961,17.797c-9.396,18.507-3.158,40.545,13.934,49.222c0.886,0.45,1.789,0.827,2.696,1.189
				c-3.175,10.241-5.57,20.561-7.175,30.886c-0.979,0.003-1.963,0.019-2.962,0.107c-19.5,1.739-34.977,19.658-34.568,40.025
				c0.408,20.367,16.548,35.467,36.048,33.729c1.019-0.091,2.02-0.251,3.015-0.428c2.037,10.093,4.828,19.952,8.349,29.495
				c-0.896,0.524-1.79,1.067-2.661,1.678c-16.683,11.688-22.017,34.757-11.913,51.525c10.104,16.769,31.819,20.887,48.502,9.199
				c0.855-0.6,1.66-1.246,2.454-1.903c6.59,7.285,13.817,14.035,21.636,20.196c-0.549,0.901-1.088,1.814-1.575,2.773
				c-9.396,18.506-3.158,40.544,13.934,49.222c17.092,8.677,38.565,0.71,47.961-17.797c0.487-0.958,0.906-1.932,1.309-2.908
				c9.588,2.677,19.303,4.528,29.072,5.549c-0.061,1.029-0.109,2.06-0.088,3.104c0.409,20.366,16.548,35.467,36.048,33.729
				c19.5-1.738,34.977-19.658,34.568-40.023c-0.021-1.064-0.11-2.105-0.216-3.139c9.782-2.788,19.388-6.353,28.738-10.665
				c0.444,0.908,0.906,1.811,1.434,2.687c10.104,16.769,31.818,20.888,48.502,9.199c16.683-11.689,22.017-34.757,11.914-51.526
				c-0.518-0.858-1.085-1.662-1.661-2.454c7.388-7.389,14.307-15.412,20.701-24.019
				C1656.661,894.424,1657.5,894.931,1658.385,895.381z M1445.321,898.084c-62.056-31.507-84.707-111.52-50.59-178.714
				c34.117-67.194,112.079-96.124,174.135-64.617c62.056,31.508,84.706,111.52,50.591,178.714
				C1585.34,900.662,1507.377,929.591,1445.321,898.084z"/>
		</g>
	</g>
</g>
</svg>
