<svg xmlns="http://www.w3.org/2000/svg" xmlns:xlink="http://www.w3.org/1999/xlink" width="500" zoomAndPan="magnify" viewBox="0 0 375 374.999991" height="500" preserveAspectRatio="xMidYMid meet" version="1.0"><defs><g/><clipPath id="aa8157e7ea"><path d="M 51 58 L 318 58 L 318 325 L 51 325 Z M 51 58 " clip-rule="nonzero"/></clipPath><clipPath id="8d25fb82da"><path d="M 188.445312 1.929688 L 334.148438 154.199219 L 140.148438 339.824219 L -5.550781 187.554688 Z M 188.445312 1.929688 " clip-rule="nonzero"/></clipPath><clipPath id="b5a55dc9fa"><path d="M 188.445312 1.929688 L 374.074219 195.925781 L 180.074219 381.550781 L -5.550781 187.554688 Z M 188.445312 1.929688 " clip-rule="nonzero"/></clipPath></defs><g clip-path="url(#aa8157e7ea)"><g clip-path="url(#8d25fb82da)"><g clip-path="url(#b5a55dc9fa)"><path fill="#000000" d="M 245.402344 307.125 C 234.6875 312.671875 223.164062 316.511719 211.402344 318.851562 C 201.777344 320.699219 192.007812 321.675781 182.226562 321.628906 C 180.921875 321.660156 179.625 321.546875 178.324219 321.5 C 177.023438 321.429688 175.722656 321.398438 174.421875 321.300781 L 170.535156 320.945312 L 168.589844 320.765625 L 166.65625 320.5 L 162.789062 319.984375 C 161.503906 319.78125 160.226562 319.527344 158.941406 319.308594 C 156.367188 318.90625 153.839844 318.277344 151.289062 317.734375 C 150.925781 317.65625 150.542969 317.570312 150.140625 317.484375 C 149.746094 317.375 149.335938 317.261719 148.90625 317.144531 C 148.050781 316.910156 147.132812 316.65625 146.152344 316.386719 C 144.183594 315.890625 142.039062 315.125 139.671875 314.34375 C 139.085938 314.140625 138.476562 313.957031 137.867188 313.726562 C 137.265625 313.492188 136.648438 313.25 136.023438 313.003906 C 134.769531 312.511719 133.46875 312 132.128906 311.472656 C 129.519531 310.261719 126.679688 309.113281 123.871094 307.585938 C 112.402344 301.910156 100.074219 292.925781 89.613281 282.085938 C 79.242188 271.15625 70.8125 258.445312 65.644531 246.738281 C 64.246094 243.859375 63.222656 240.972656 62.125 238.3125 C 61.660156 236.949219 61.207031 235.632812 60.769531 234.359375 C 60.550781 233.71875 60.335938 233.09375 60.128906 232.480469 C 59.925781 231.867188 59.769531 231.25 59.59375 230.652344 C 58.917969 228.253906 58.242188 226.078125 57.835938 224.085938 C 57.609375 223.097656 57.398438 222.167969 57.199219 221.304688 C 57.101562 220.871094 57.007812 220.457031 56.917969 220.054688 C 56.847656 219.652344 56.78125 219.265625 56.714844 218.894531 C 54.933594 209.273438 54.019531 199.507812 54.132812 189.722656 C 54.355469 179.304688 55.859375 168.949219 58.25 158.792969 C 61.105469 147.144531 65.453125 135.800781 71.464844 125.34375 C 77.351562 114.808594 84.96875 105.257812 93.644531 96.808594 C 102.46875 88.515625 112.347656 81.324219 123.128906 75.90625 C 133.84375 70.363281 145.367188 66.519531 157.128906 64.183594 C 166.753906 62.335938 176.523438 61.355469 186.304688 61.402344 C 187.605469 61.371094 188.90625 61.484375 190.207031 61.53125 C 191.507812 61.601562 192.808594 61.632812 194.105469 61.730469 L 197.996094 62.089844 L 199.941406 62.265625 L 201.875 62.53125 L 205.742188 63.050781 C 207.027344 63.25 208.304688 63.503906 209.589844 63.726562 C 212.164062 64.125 214.691406 64.753906 217.238281 65.296875 C 217.605469 65.378906 217.988281 65.460938 218.390625 65.550781 C 218.785156 65.65625 219.195312 65.769531 219.625 65.886719 C 220.480469 66.121094 221.398438 66.375 222.378906 66.644531 C 224.347656 67.140625 226.492188 67.910156 228.859375 68.6875 C 229.445312 68.890625 230.054688 69.078125 230.664062 69.304688 C 231.265625 69.542969 231.882812 69.78125 232.507812 70.027344 C 233.761719 70.519531 235.0625 71.03125 236.402344 71.558594 C 239.011719 72.769531 241.851562 73.917969 244.660156 75.445312 C 256.128906 81.121094 268.457031 90.105469 278.917969 100.949219 C 289.289062 111.875 297.71875 124.589844 302.882812 136.296875 C 304.285156 139.171875 305.308594 142.058594 306.40625 144.71875 C 306.871094 146.082031 307.324219 147.402344 307.761719 148.675781 C 307.980469 149.3125 308.191406 149.9375 308.402344 150.550781 C 308.605469 151.167969 308.761719 151.785156 308.9375 152.378906 C 309.613281 154.777344 310.289062 156.953125 310.695312 158.945312 C 310.921875 159.933594 311.132812 160.863281 311.332031 161.726562 C 311.429688 162.160156 311.523438 162.578125 311.613281 162.976562 C 311.683594 163.378906 311.75 163.769531 311.816406 164.136719 C 313.597656 173.757812 314.511719 183.527344 314.398438 193.308594 C 314.175781 203.726562 312.671875 214.085938 310.28125 224.238281 C 307.425781 235.886719 303.078125 247.230469 297.066406 257.6875 C 291.179688 268.222656 283.5625 277.777344 274.886719 286.222656 C 266.0625 294.519531 256.183594 301.707031 245.402344 307.125 Z M 277.03125 288.339844 L 277.039062 288.328125 C 285.894531 279.703125 293.683594 269.949219 299.71875 259.191406 C 305.871094 248.507812 310.320312 236.90625 313.199219 224.996094 L 314.453125 219.394531 C 314.453125 219.394531 314.746094 217.84375 315.1875 215.515625 C 315.691406 213.195312 316.039062 210.050781 316.5 206.925781 C 316.765625 203.777344 317.144531 200.640625 317.183594 198.269531 C 317.289062 195.90625 317.355469 194.328125 317.355469 194.328125 C 317.355469 194.328125 317.367188 193.933594 317.371094 193.242188 C 317.371094 192.554688 317.378906 191.566406 317.382812 190.382812 C 317.457031 188.011719 317.265625 184.863281 317.140625 181.707031 C 317.03125 180.132812 316.863281 178.5625 316.738281 177.085938 C 316.671875 176.351562 316.605469 175.636719 316.542969 174.960938 C 316.449219 174.289062 316.359375 173.65625 316.277344 173.070312 C 315.953125 170.722656 315.734375 169.160156 315.734375 169.160156 C 315.734375 169.160156 315.707031 168.800781 315.605469 168.273438 C 315.511719 167.746094 315.386719 167.039062 315.265625 166.335938 C 315.019531 164.921875 314.769531 163.507812 314.769531 163.507812 C 314.703125 163.132812 314.636719 162.734375 314.566406 162.320312 C 314.476562 161.910156 314.382812 161.484375 314.28125 161.042969 C 314.082031 160.15625 313.867188 159.207031 313.636719 158.195312 C 313.222656 156.15625 312.539062 153.925781 311.851562 151.472656 C 311.671875 150.863281 311.507812 150.230469 311.304688 149.601562 C 311.089844 148.972656 310.871094 148.328125 310.652344 147.679688 C 310.207031 146.375 309.742188 145.023438 309.265625 143.628906 C 308.148438 140.902344 307.101562 137.949219 305.671875 135 C 300.390625 123.015625 291.765625 109.992188 281.148438 98.8125 C 270.449219 87.714844 257.820312 78.523438 246.074219 72.71875 C 243.195312 71.164062 240.289062 69.984375 237.617188 68.75 C 236.246094 68.210938 234.914062 67.6875 233.632812 67.1875 C 232.988281 66.9375 232.359375 66.691406 231.742188 66.449219 C 231.121094 66.214844 230.496094 66.027344 229.894531 65.820312 C 227.472656 65.023438 225.277344 64.242188 223.257812 63.738281 C 222.257812 63.464844 221.316406 63.207031 220.4375 62.96875 C 220.003906 62.851562 219.578125 62.738281 219.175781 62.628906 C 218.765625 62.539062 218.371094 62.453125 217.996094 62.371094 C 217.996094 62.371094 216.597656 62.0625 215.199219 61.753906 C 214.5 61.601562 213.800781 61.445312 213.273438 61.328125 C 212.753906 61.203125 212.394531 61.160156 212.394531 61.160156 C 212.394531 61.160156 210.84375 60.875 208.515625 60.445312 C 207.933594 60.335938 207.300781 60.21875 206.636719 60.097656 C 205.960938 60.003906 205.253906 59.910156 204.519531 59.808594 C 203.050781 59.617188 201.492188 59.382812 199.921875 59.203125 C 196.777344 58.941406 193.636719 58.605469 191.265625 58.578125 C 190.082031 58.53125 189.097656 58.492188 188.40625 58.464844 C 187.71875 58.4375 187.324219 58.429688 187.324219 58.429688 C 187.324219 58.429688 185.746094 58.429688 183.378906 58.429688 C 181.007812 58.363281 177.855469 58.605469 174.699219 58.730469 C 171.558594 59.054688 168.402344 59.261719 166.0625 59.664062 C 163.714844 60 162.152344 60.226562 162.152344 60.226562 L 156.5 61.230469 C 144.476562 63.585938 132.691406 67.515625 121.746094 73.191406 C 110.734375 78.746094 100.644531 86.097656 91.636719 94.566406 L 91.625 94.570312 L 91.492188 94.703125 C 82.636719 103.332031 74.84375 113.085938 68.8125 123.84375 C 62.660156 134.527344 58.210938 146.125 55.332031 158.035156 L 54.078125 163.636719 C 54.078125 163.636719 53.785156 165.191406 53.34375 167.519531 C 52.839844 169.839844 52.492188 172.980469 52.03125 176.105469 C 51.765625 179.253906 51.386719 182.390625 51.347656 184.761719 C 51.246094 187.125 51.175781 188.703125 51.175781 188.703125 C 51.175781 188.703125 51.164062 189.097656 51.160156 189.789062 C 51.15625 190.480469 51.152344 191.464844 51.148438 192.648438 C 51.074219 195.019531 51.265625 198.171875 51.390625 201.324219 C 51.5 202.898438 51.667969 204.46875 51.792969 205.945312 C 51.859375 206.683594 51.925781 207.394531 51.988281 208.070312 C 52.082031 208.742188 52.171875 209.375 52.253906 209.964844 C 52.578125 212.308594 52.796875 213.871094 52.796875 213.871094 C 52.796875 213.871094 52.824219 214.230469 52.925781 214.757812 C 53.019531 215.289062 53.144531 215.992188 53.265625 216.699219 C 53.511719 218.109375 53.761719 219.523438 53.761719 219.523438 C 53.824219 219.902344 53.894531 220.296875 53.964844 220.710938 C 54.054688 221.121094 54.148438 221.546875 54.25 221.988281 C 54.449219 222.875 54.664062 223.824219 54.894531 224.839844 C 55.308594 226.875 55.992188 229.105469 56.679688 231.558594 C 56.859375 232.171875 57.023438 232.800781 57.226562 233.433594 C 57.441406 234.0625 57.660156 234.703125 57.878906 235.355469 C 58.324219 236.660156 58.789062 238.011719 59.265625 239.40625 C 60.382812 242.128906 61.429688 245.082031 62.859375 248.03125 C 68.140625 260.015625 76.769531 273.039062 87.378906 284.21875 C 98.082031 295.316406 110.710938 304.507812 122.453125 310.3125 C 125.335938 311.871094 128.242188 313.046875 130.914062 314.285156 C 132.285156 314.824219 133.613281 315.34375 134.898438 315.847656 C 135.542969 316.097656 136.171875 316.34375 136.789062 316.582031 C 137.410156 316.816406 138.035156 317.007812 138.636719 317.210938 C 141.058594 318.007812 143.253906 318.789062 145.273438 319.292969 C 146.273438 319.566406 147.214844 319.824219 148.089844 320.0625 C 148.527344 320.179688 148.953125 320.296875 149.355469 320.402344 C 149.765625 320.492188 150.160156 320.578125 150.535156 320.660156 C 150.535156 320.660156 151.933594 320.96875 153.332031 321.277344 C 154.03125 321.433594 154.730469 321.585938 155.257812 321.703125 C 155.777344 321.828125 156.136719 321.871094 156.136719 321.871094 C 156.136719 321.871094 157.6875 322.160156 160.015625 322.589844 C 160.597656 322.695312 161.230469 322.8125 161.894531 322.933594 C 162.570312 323.027344 163.277344 323.125 164.011719 323.222656 C 165.480469 323.414062 167.039062 323.648438 168.609375 323.828125 C 171.753906 324.09375 174.894531 324.425781 177.265625 324.457031 C 178.449219 324.503906 179.433594 324.539062 180.121094 324.566406 C 180.8125 324.597656 181.207031 324.601562 181.207031 324.601562 C 181.207031 324.601562 182.785156 324.601562 185.152344 324.601562 C 187.523438 324.667969 190.675781 324.429688 193.832031 324.300781 C 196.972656 323.980469 200.128906 323.769531 202.46875 323.367188 C 204.816406 323.03125 206.378906 322.808594 206.378906 322.808594 L 212.03125 321.800781 C 224.054688 319.449219 235.839844 315.515625 246.785156 309.839844 C 257.796875 304.285156 267.886719 296.933594 276.894531 288.464844 L 276.902344 288.460938 L 276.96875 288.402344 L 277.03125 288.339844 " fill-opacity="1" fill-rule="nonzero"/></g></g></g><g fill="#000000" fill-opacity="1"><g transform="translate(167.044652, 330.260511)"><g><path d="M 11.46875 -13.65625 C 11.351562 -13.769531 11.132812 -13.914062 10.8125 -14.09375 C 10.488281 -14.269531 10.101562 -14.441406 9.65625 -14.609375 C 9.207031 -14.773438 8.722656 -14.90625 8.203125 -15 C 7.691406 -15.101562 7.175781 -15.140625 6.65625 -15.109375 C 5.71875 -15.046875 5.023438 -14.828125 4.578125 -14.453125 C 4.140625 -14.085938 3.9375 -13.59375 3.96875 -12.96875 C 3.988281 -12.613281 4.09375 -12.320312 4.28125 -12.09375 C 4.46875 -11.863281 4.734375 -11.664062 5.078125 -11.5 C 5.421875 -11.34375 5.847656 -11.203125 6.359375 -11.078125 C 6.867188 -10.960938 7.457031 -10.84375 8.125 -10.71875 C 8.988281 -10.539062 9.78125 -10.34375 10.5 -10.125 C 11.226562 -9.90625 11.84375 -9.609375 12.34375 -9.234375 C 12.84375 -8.867188 13.242188 -8.414062 13.546875 -7.875 C 13.847656 -7.34375 14.019531 -6.675781 14.0625 -5.875 C 14.125 -4.945312 14 -4.140625 13.6875 -3.453125 C 13.375 -2.765625 12.929688 -2.195312 12.359375 -1.75 C 11.785156 -1.300781 11.113281 -0.957031 10.34375 -0.71875 C 9.570312 -0.476562 8.757812 -0.332031 7.90625 -0.28125 C 6.582031 -0.195312 5.269531 -0.3125 3.96875 -0.625 C 2.664062 -0.945312 1.484375 -1.441406 0.421875 -2.109375 L 1.734375 -5.125 C 1.890625 -4.988281 2.171875 -4.8125 2.578125 -4.59375 C 2.984375 -4.382812 3.453125 -4.175781 3.984375 -3.96875 C 4.523438 -3.769531 5.117188 -3.601562 5.765625 -3.46875 C 6.421875 -3.34375 7.085938 -3.300781 7.765625 -3.34375 C 9.640625 -3.457031 10.539062 -4.113281 10.46875 -5.3125 C 10.445312 -5.6875 10.316406 -6 10.078125 -6.25 C 9.847656 -6.507812 9.53125 -6.722656 9.125 -6.890625 C 8.71875 -7.066406 8.226562 -7.21875 7.65625 -7.34375 C 7.09375 -7.46875 6.457031 -7.609375 5.75 -7.765625 C 4.90625 -7.941406 4.164062 -8.148438 3.53125 -8.390625 C 2.894531 -8.628906 2.359375 -8.921875 1.921875 -9.265625 C 1.492188 -9.609375 1.160156 -10.015625 0.921875 -10.484375 C 0.691406 -10.960938 0.554688 -11.539062 0.515625 -12.21875 C 0.460938 -13.09375 0.578125 -13.882812 0.859375 -14.59375 C 1.148438 -15.3125 1.570312 -15.921875 2.125 -16.421875 C 2.6875 -16.921875 3.34375 -17.3125 4.09375 -17.59375 C 4.851562 -17.875 5.675781 -18.039062 6.5625 -18.09375 C 7.800781 -18.164062 8.945312 -18.039062 10 -17.71875 C 11.050781 -17.394531 11.984375 -17 12.796875 -16.53125 Z M 11.46875 -13.65625 "/></g></g></g><g fill="#000000" fill-opacity="1"><g transform="translate(193.461368, 327.775642)"><g><path d="M 11.96875 -20.96875 L 16.109375 -3.921875 L 12.8125 -3.109375 L 11.046875 -10.375 L 3.328125 -8.5 L 5.09375 -1.234375 L 1.78125 -0.4375 L -2.359375 -17.484375 L 0.953125 -18.28125 L 2.625 -11.390625 L 10.34375 -13.265625 L 8.671875 -20.15625 Z M 11.96875 -20.96875 "/></g></g></g><g fill="#000000" fill-opacity="1"><g transform="translate(222.152787, 319.640478)"><g><path d="M -0.953125 -18.796875 L 1.796875 -20.03125 L 15.0625 -6.734375 L 11.859375 -5.3125 L 8.59375 -8.640625 L 3 -6.140625 L 3.3125 -1.484375 L 0.109375 -0.046875 Z M 7.046875 -10.5625 L 2.015625 -15.875 L 2.546875 -8.546875 Z M 7.046875 -10.5625 "/></g></g></g><g fill="#000000" fill-opacity="1"><g transform="translate(247.207103, 307.295609)"><g><path d="M 4.28125 -20.421875 L -0.375 -17.28125 L 7.75 -5.21875 L 4.9375 -3.328125 L -3.1875 -15.390625 L -7.84375 -12.25 L -9.515625 -14.734375 L 2.609375 -22.90625 Z M 4.28125 -20.421875 "/></g></g></g><g fill="#000000" fill-opacity="1"><g transform="translate(268.713716, 291.665094)"><g><path d="M 0.796875 -20.859375 L -3.265625 -16.984375 L 6.765625 -6.4375 L 4.3125 -4.109375 L -5.71875 -14.65625 L -9.78125 -10.78125 L -11.84375 -12.953125 L -1.265625 -23.03125 Z M 0.796875 -20.859375 "/></g></g></g><g fill="#000000" fill-opacity="1"><g transform="translate(287.361986, 272.657847)"><g><path d="M -10.03125 -15.921875 L -8.234375 -18.34375 L 9.828125 -13.25 L 7.75 -10.4375 L 3.25 -11.734375 L -0.390625 -6.8125 L 2.15625 -2.90625 L 0.078125 -0.09375 Z M 0.96875 -12.65625 L -6 -14.828125 L -1.96875 -8.703125 Z M 0.96875 -12.65625 "/></g></g></g><g fill="#000000" fill-opacity="1"><g transform="translate(303.223086, 249.610354)"><g><path d="M 3.0625 -16.296875 C 3.726562 -15.960938 4.242188 -15.535156 4.609375 -15.015625 C 4.972656 -14.503906 5.207031 -13.9375 5.3125 -13.3125 C 5.425781 -12.6875 5.421875 -12.019531 5.296875 -11.3125 C 5.171875 -10.613281 4.929688 -9.914062 4.578125 -9.21875 L 0.8125 -1.640625 L -14.90625 -9.453125 L -10.71875 -17.859375 C -10.445312 -18.398438 -10.082031 -18.832031 -9.625 -19.15625 C -9.164062 -19.476562 -8.664062 -19.703125 -8.125 -19.828125 C -7.59375 -19.953125 -7.046875 -19.976562 -6.484375 -19.90625 C -5.929688 -19.84375 -5.410156 -19.6875 -4.921875 -19.4375 C -4.148438 -19.0625 -3.523438 -18.515625 -3.046875 -17.796875 C -2.566406 -17.085938 -2.347656 -16.28125 -2.390625 -15.375 C -1.679688 -16.144531 -0.851562 -16.617188 0.09375 -16.796875 C 1.039062 -16.972656 2.03125 -16.804688 3.0625 -16.296875 Z M 0.96875 -13.515625 C 0.6875 -13.648438 0.390625 -13.734375 0.078125 -13.765625 C -0.222656 -13.796875 -0.507812 -13.773438 -0.78125 -13.703125 C -1.0625 -13.640625 -1.3125 -13.523438 -1.53125 -13.359375 C -1.757812 -13.203125 -1.941406 -12.988281 -2.078125 -12.71875 L -4.40625 -8.03125 L -0.265625 -5.96875 L 1.984375 -10.5 C 2.128906 -10.78125 2.210938 -11.066406 2.234375 -11.359375 C 2.253906 -11.648438 2.210938 -11.929688 2.109375 -12.203125 C 2.015625 -12.484375 1.867188 -12.738281 1.671875 -12.96875 C 1.472656 -13.195312 1.238281 -13.378906 0.96875 -13.515625 Z M -10.765625 -11.203125 L -6.8125 -9.234375 L -4.78125 -13.3125 C -4.53125 -13.820312 -4.488281 -14.347656 -4.65625 -14.890625 C -4.832031 -15.429688 -5.226562 -15.851562 -5.84375 -16.15625 C -6.445312 -16.457031 -7.007812 -16.53125 -7.53125 -16.375 C -8.050781 -16.21875 -8.429688 -15.894531 -8.671875 -15.40625 Z M -10.765625 -11.203125 "/></g></g></g><g fill="#000000" fill-opacity="1"><g transform="translate(314.780851, 223.990462)"><g><path d="M 0.53125 -1.75 L -16.28125 -6.796875 L -15.3125 -10.0625 L -1.359375 -5.875 L 1.21875 -14.4375 L 4.078125 -13.578125 Z M 0.53125 -1.75 "/></g></g></g><g fill="#000000" fill-opacity="1"><g transform="translate(321.343271, 199.11045)"><g><path d="M -16.9375 -5.9375 L -8.03125 -9.1875 L -15.859375 -14.609375 L -15.40625 -18.25 L -4.859375 -10.5 L 1.21875 -9.75 L 0.796875 -6.40625 L -5.328125 -7.171875 L -17.390625 -2.265625 Z M -16.9375 -5.9375 "/></g></g></g><g fill="#000000" fill-opacity="1"><g transform="translate(93.764507, 237.2969)"><g><path d="M 86.152344 -82.285156 C 88.730469 -104.199219 72.507812 -116.65625 52.421875 -116.65625 C 32.117188 -116.65625 12.351562 -105.488281 12.351562 -87.546875 C 12.351562 -72.1875 29.21875 -64.773438 40.820312 -59.832031 C 55.429688 -53.066406 71.21875 -43.71875 71.21875 -25.566406 C 71.21875 -14.070312 62.734375 -4.402344 50.808594 -4.402344 C 35.449219 -4.402344 26.746094 -14.5 26.746094 -29.324219 C 26.746094 -37.488281 31.902344 -40.28125 21.484375 -40.28125 C 10.742188 -40.28125 9.558594 -36.628906 9.558594 -26.855469 C 9.558594 -5.691406 30.828125 1.503906 48.554688 1.503906 C 67.03125 1.503906 88.621094 -10.3125 88.621094 -27.820312 C 88.621094 -49.84375 58.4375 -61.230469 43.503906 -68.964844 L 43.613281 -68.964844 C 34.695312 -73.796875 29.539062 -79.597656 29.539062 -89.804688 C 29.539062 -102.371094 38.242188 -110.75 49.089844 -110.75 C 63.164062 -110.75 70.039062 -95.496094 68.964844 -81.101562 C 68.964844 -79.382812 71.863281 -78.738281 75.730469 -78.738281 C 80.027344 -78.738281 85.9375 -80.351562 86.152344 -82.285156 Z M 86.152344 -82.285156 "/></g></g></g><g fill="#000000" fill-opacity="1"><g transform="translate(177.350976, 237.2969)"><g><path d="M 94.207031 -3.652344 C 91.523438 -25.351562 89.804688 -48.230469 89.804688 -71.003906 C 89.804688 -84.96875 90.449219 -98.71875 91.953125 -111.929688 C 91.953125 -113.863281 88.945312 -114.617188 85.078125 -114.617188 C 80.566406 -114.617188 75.085938 -113.003906 74.871094 -110.855469 C 72.832031 -94.421875 73.046875 -78.523438 73.476562 -62.734375 C 65.847656 -63.378906 59.941406 -63.164062 54.03125 -63.164062 C 45.652344 -63.054688 37.382812 -62.625 29.324219 -61.765625 C 30.078125 -78.738281 29.003906 -95.925781 26.960938 -112.683594 C 26.855469 -113.972656 23.953125 -114.507812 20.300781 -114.507812 C 16.003906 -114.507812 9.773438 -112.683594 9.773438 -110.429688 C 11.386719 -94.636719 12.675781 -77.128906 12.675781 -59.726562 C 12.675781 -40.496094 13.75 21.914062 -13.640625 21.914062 C -19.765625 21.914062 -25.886719 16.757812 -30.183594 12.78125 C -32.976562 10.417969 -49.414062 12.351562 -44.148438 17.1875 C -36.84375 23.847656 -26.210938 28.144531 -14.609375 28.144531 C 29.324219 27.5 28.464844 -26.960938 29.324219 -56.609375 C 37.8125 -57.46875 46.40625 -57.683594 55 -57.683594 L 73.582031 -56.933594 C 73.90625 -37.703125 74.765625 -19.226562 77.128906 -0.964844 C 77.234375 0.320312 80.027344 0.964844 83.679688 0.964844 C 88.191406 0.964844 94.316406 -0.859375 94.207031 -3.652344 Z M 94.207031 -3.652344 "/></g></g></g></svg>