<svg xmlns="http://www.w3.org/2000/svg" xmlns:xlink="http://www.w3.org/1999/xlink" width="500" zoomAndPan="magnify" viewBox="0 0 375 374.999991" height="500" preserveAspectRatio="xMidYMid meet" version="1.0"><defs><g/><clipPath id="059ef25c84"><path d="M 51 58 L 318 58 L 318 325 L 51 325 Z M 51 58 " clip-rule="nonzero"/></clipPath><clipPath id="1c777605e9"><path d="M 188.445312 1.929688 L 334.148438 154.199219 L 140.148438 339.824219 L -5.550781 187.554688 Z M 188.445312 1.929688 " clip-rule="nonzero"/></clipPath><clipPath id="5f40173db2"><path d="M 188.445312 1.929688 L 374.074219 195.925781 L 180.074219 381.550781 L -5.550781 187.554688 Z M 188.445312 1.929688 " clip-rule="nonzero"/></clipPath></defs><g clip-path="url(#059ef25c84)"><g clip-path="url(#1c777605e9)"><g clip-path="url(#5f40173db2)"><path fill="#000000" d="M 245.402344 307.125 C 234.6875 312.671875 223.164062 316.511719 211.402344 318.851562 C 201.777344 320.699219 192.007812 321.675781 182.226562 321.628906 C 180.921875 321.660156 179.625 321.546875 178.324219 321.5 C 177.023438 321.429688 175.722656 321.398438 174.421875 321.300781 L 170.535156 320.945312 L 168.589844 320.765625 L 166.65625 320.5 L 162.789062 319.984375 C 161.503906 319.78125 160.226562 319.527344 158.941406 319.308594 C 156.367188 318.90625 153.839844 318.277344 151.289062 317.734375 C 150.925781 317.65625 150.542969 317.570312 150.140625 317.484375 C 149.746094 317.375 149.335938 317.261719 148.90625 317.144531 C 148.050781 316.910156 147.132812 316.65625 146.152344 316.386719 C 144.183594 315.890625 142.039062 315.125 139.671875 314.34375 C 139.085938 314.140625 138.476562 313.957031 137.867188 313.726562 C 137.265625 313.492188 136.648438 313.25 136.023438 313.003906 C 134.769531 312.511719 133.46875 312 132.128906 311.472656 C 129.519531 310.261719 126.679688 309.113281 123.871094 307.585938 C 112.402344 301.910156 100.074219 292.925781 89.613281 282.085938 C 79.242188 271.15625 70.8125 258.445312 65.644531 246.738281 C 64.246094 243.859375 63.222656 240.972656 62.125 238.3125 C 61.660156 236.949219 61.207031 235.632812 60.769531 234.359375 C 60.550781 233.71875 60.335938 233.09375 60.128906 232.480469 C 59.925781 231.867188 59.769531 231.25 59.59375 230.652344 C 58.917969 228.253906 58.242188 226.078125 57.835938 224.085938 C 57.609375 223.097656 57.398438 222.167969 57.199219 221.304688 C 57.101562 220.871094 57.007812 220.457031 56.917969 220.054688 C 56.847656 219.652344 56.78125 219.265625 56.714844 218.894531 C 54.933594 209.273438 54.019531 199.507812 54.132812 189.722656 C 54.355469 179.304688 55.859375 168.949219 58.25 158.792969 C 61.105469 147.144531 65.453125 135.800781 71.464844 125.34375 C 77.351562 114.808594 84.96875 105.257812 93.644531 96.808594 C 102.46875 88.515625 112.347656 81.324219 123.128906 75.90625 C 133.84375 70.363281 145.367188 66.519531 157.128906 64.183594 C 166.753906 62.335938 176.523438 61.355469 186.304688 61.402344 C 187.605469 61.371094 188.90625 61.484375 190.207031 61.53125 C 191.507812 61.601562 192.808594 61.632812 194.105469 61.730469 L 197.996094 62.089844 L 199.941406 62.265625 L 201.875 62.53125 L 205.742188 63.050781 C 207.027344 63.25 208.304688 63.503906 209.589844 63.726562 C 212.164062 64.125 214.691406 64.753906 217.238281 65.296875 C 217.605469 65.378906 217.988281 65.460938 218.390625 65.550781 C 218.785156 65.65625 219.195312 65.769531 219.625 65.886719 C 220.480469 66.121094 221.398438 66.375 222.378906 66.644531 C 224.347656 67.140625 226.492188 67.910156 228.859375 68.6875 C 229.445312 68.890625 230.054688 69.078125 230.664062 69.304688 C 231.265625 69.542969 231.882812 69.78125 232.507812 70.027344 C 233.761719 70.519531 235.0625 71.03125 236.402344 71.558594 C 239.011719 72.769531 241.851562 73.917969 244.660156 75.445312 C 256.128906 81.121094 268.457031 90.105469 278.917969 100.949219 C 289.289062 111.875 297.71875 124.589844 302.882812 136.296875 C 304.285156 139.171875 305.308594 142.058594 306.40625 144.71875 C 306.871094 146.082031 307.324219 147.402344 307.761719 148.675781 C 307.980469 149.3125 308.191406 149.9375 308.402344 150.550781 C 308.605469 151.167969 308.761719 151.785156 308.9375 152.378906 C 309.613281 154.777344 310.289062 156.953125 310.695312 158.945312 C 310.921875 159.933594 311.132812 160.863281 311.332031 161.726562 C 311.429688 162.160156 311.523438 162.578125 311.613281 162.976562 C 311.683594 163.378906 311.75 163.769531 311.816406 164.136719 C 313.597656 173.757812 314.511719 183.527344 314.398438 193.308594 C 314.175781 203.726562 312.671875 214.085938 310.28125 224.238281 C 307.425781 235.886719 303.078125 247.230469 297.066406 257.6875 C 291.179688 268.222656 283.5625 277.777344 274.886719 286.222656 C 266.0625 294.519531 256.183594 301.707031 245.402344 307.125 Z M 277.03125 288.339844 L 277.039062 288.328125 C 285.894531 279.703125 293.683594 269.949219 299.71875 259.191406 C 305.871094 248.507812 310.320312 236.90625 313.199219 224.996094 L 314.453125 219.394531 C 314.453125 219.394531 314.746094 217.84375 315.1875 215.515625 C 315.691406 213.195312 316.039062 210.050781 316.5 206.925781 C 316.765625 203.777344 317.144531 200.640625 317.183594 198.269531 C 317.289062 195.90625 317.355469 194.328125 317.355469 194.328125 C 317.355469 194.328125 317.367188 193.933594 317.371094 193.242188 C 317.371094 192.554688 317.378906 191.566406 317.382812 190.382812 C 317.457031 188.011719 317.265625 184.863281 317.140625 181.707031 C 317.03125 180.132812 316.863281 178.5625 316.738281 177.085938 C 316.671875 176.351562 316.605469 175.636719 316.542969 174.960938 C 316.449219 174.289062 316.359375 173.65625 316.277344 173.070312 C 315.953125 170.722656 315.734375 169.160156 315.734375 169.160156 C 315.734375 169.160156 315.707031 168.800781 315.605469 168.273438 C 315.511719 167.746094 315.386719 167.039062 315.265625 166.335938 C 315.019531 164.921875 314.769531 163.507812 314.769531 163.507812 C 314.703125 163.132812 314.636719 162.734375 314.566406 162.320312 C 314.476562 161.910156 314.382812 161.484375 314.28125 161.042969 C 314.082031 160.15625 313.867188 159.207031 313.636719 158.195312 C 313.222656 156.15625 312.539062 153.925781 311.851562 151.472656 C 311.671875 150.863281 311.507812 150.230469 311.304688 149.601562 C 311.089844 148.972656 310.871094 148.328125 310.652344 147.679688 C 310.207031 146.375 309.742188 145.023438 309.265625 143.628906 C 308.148438 140.902344 307.101562 137.949219 305.671875 135 C 300.390625 123.015625 291.765625 109.992188 281.148438 98.8125 C 270.449219 87.714844 257.820312 78.523438 246.074219 72.71875 C 243.195312 71.164062 240.289062 69.984375 237.617188 68.75 C 236.246094 68.210938 234.914062 67.6875 233.632812 67.1875 C 232.988281 66.9375 232.359375 66.691406 231.742188 66.449219 C 231.121094 66.214844 230.496094 66.027344 229.894531 65.820312 C 227.472656 65.023438 225.277344 64.242188 223.257812 63.738281 C 222.257812 63.464844 221.316406 63.207031 220.4375 62.96875 C 220.003906 62.851562 219.578125 62.738281 219.175781 62.628906 C 218.765625 62.539062 218.371094 62.453125 217.996094 62.371094 C 217.996094 62.371094 216.597656 62.0625 215.199219 61.753906 C 214.5 61.601562 213.800781 61.445312 213.273438 61.328125 C 212.753906 61.203125 212.394531 61.160156 212.394531 61.160156 C 212.394531 61.160156 210.84375 60.875 208.515625 60.445312 C 207.933594 60.335938 207.300781 60.21875 206.636719 60.097656 C 205.960938 60.003906 205.253906 59.910156 204.519531 59.808594 C 203.050781 59.617188 201.492188 59.382812 199.921875 59.203125 C 196.777344 58.941406 193.636719 58.605469 191.265625 58.578125 C 190.082031 58.53125 189.097656 58.492188 188.40625 58.464844 C 187.71875 58.4375 187.324219 58.429688 187.324219 58.429688 C 187.324219 58.429688 185.746094 58.429688 183.378906 58.429688 C 181.007812 58.363281 177.855469 58.605469 174.699219 58.730469 C 171.558594 59.054688 168.402344 59.261719 166.0625 59.664062 C 163.714844 60 162.152344 60.226562 162.152344 60.226562 L 156.5 61.230469 C 144.476562 63.585938 132.691406 67.515625 121.746094 73.191406 C 110.734375 78.746094 100.644531 86.097656 91.636719 94.566406 L 91.625 94.570312 L 91.492188 94.703125 C 82.636719 103.332031 74.84375 113.085938 68.8125 123.84375 C 62.660156 134.527344 58.210938 146.125 55.332031 158.035156 L 54.078125 163.636719 C 54.078125 163.636719 53.785156 165.191406 53.34375 167.519531 C 52.839844 169.839844 52.492188 172.980469 52.03125 176.105469 C 51.765625 179.253906 51.386719 182.390625 51.347656 184.761719 C 51.246094 187.125 51.175781 188.703125 51.175781 188.703125 C 51.175781 188.703125 51.164062 189.097656 51.160156 189.789062 C 51.15625 190.480469 51.152344 191.464844 51.148438 192.648438 C 51.074219 195.019531 51.265625 198.171875 51.390625 201.324219 C 51.5 202.898438 51.667969 204.46875 51.792969 205.945312 C 51.859375 206.683594 51.925781 207.394531 51.988281 208.070312 C 52.082031 208.742188 52.171875 209.375 52.253906 209.964844 C 52.578125 212.308594 52.796875 213.871094 52.796875 213.871094 C 52.796875 213.871094 52.824219 214.230469 52.925781 214.757812 C 53.019531 215.289062 53.144531 215.992188 53.265625 216.699219 C 53.511719 218.109375 53.761719 219.523438 53.761719 219.523438 C 53.824219 219.902344 53.894531 220.296875 53.964844 220.710938 C 54.054688 221.121094 54.148438 221.546875 54.25 221.988281 C 54.449219 222.875 54.664062 223.824219 54.894531 224.839844 C 55.308594 226.875 55.992188 229.105469 56.679688 231.558594 C 56.859375 232.171875 57.023438 232.800781 57.226562 233.433594 C 57.441406 234.0625 57.660156 234.703125 57.878906 235.355469 C 58.324219 236.660156 58.789062 238.011719 59.265625 239.40625 C 60.382812 242.128906 61.429688 245.082031 62.859375 248.03125 C 68.140625 260.015625 76.769531 273.039062 87.378906 284.21875 C 98.082031 295.316406 110.710938 304.507812 122.453125 310.3125 C 125.335938 311.871094 128.242188 313.046875 130.914062 314.285156 C 132.285156 314.824219 133.613281 315.34375 134.898438 315.847656 C 135.542969 316.097656 136.171875 316.34375 136.789062 316.582031 C 137.410156 316.816406 138.035156 317.007812 138.636719 317.210938 C 141.058594 318.007812 143.253906 318.789062 145.273438 319.292969 C 146.273438 319.566406 147.214844 319.824219 148.089844 320.0625 C 148.527344 320.179688 148.953125 320.296875 149.355469 320.402344 C 149.765625 320.492188 150.160156 320.578125 150.535156 320.660156 C 150.535156 320.660156 151.933594 320.96875 153.332031 321.277344 C 154.03125 321.433594 154.730469 321.585938 155.257812 321.703125 C 155.777344 321.828125 156.136719 321.871094 156.136719 321.871094 C 156.136719 321.871094 157.6875 322.160156 160.015625 322.589844 C 160.597656 322.695312 161.230469 322.8125 161.894531 322.933594 C 162.570312 323.027344 163.277344 323.125 164.011719 323.222656 C 165.480469 323.414062 167.039062 323.648438 168.609375 323.828125 C 171.753906 324.09375 174.894531 324.425781 177.265625 324.457031 C 178.449219 324.503906 179.433594 324.539062 180.121094 324.566406 C 180.8125 324.597656 181.207031 324.601562 181.207031 324.601562 C 181.207031 324.601562 182.785156 324.601562 185.152344 324.601562 C 187.523438 324.667969 190.675781 324.429688 193.832031 324.300781 C 196.972656 323.980469 200.128906 323.769531 202.46875 323.367188 C 204.816406 323.03125 206.378906 322.808594 206.378906 322.808594 L 212.03125 321.800781 C 224.054688 319.449219 235.839844 315.515625 246.785156 309.839844 C 257.796875 304.285156 267.886719 296.933594 276.894531 288.464844 L 276.902344 288.460938 L 276.96875 288.402344 L 277.03125 288.339844 " fill-opacity="1" fill-rule="nonzero"/></g></g></g><g fill="#ffffff" fill-opacity="1"><g transform="translate(180.246164, 324.942046)"><g><path d="M 10.0625 -12.015625 C 9.96875 -12.117188 9.78125 -12.25 9.5 -12.40625 C 9.21875 -12.5625 8.878906 -12.707031 8.484375 -12.84375 C 8.097656 -12.976562 7.671875 -13.085938 7.203125 -13.171875 C 6.742188 -13.265625 6.285156 -13.296875 5.828125 -13.265625 C 5.003906 -13.210938 4.398438 -13.023438 4.015625 -12.703125 C 3.628906 -12.378906 3.453125 -11.941406 3.484375 -11.390625 C 3.503906 -11.066406 3.59375 -10.804688 3.75 -10.609375 C 3.914062 -10.410156 4.148438 -10.242188 4.453125 -10.109375 C 4.753906 -9.972656 5.128906 -9.851562 5.578125 -9.75 C 6.035156 -9.644531 6.554688 -9.535156 7.140625 -9.421875 C 7.898438 -9.265625 8.59375 -9.085938 9.21875 -8.890625 C 9.851562 -8.703125 10.394531 -8.445312 10.84375 -8.125 C 11.289062 -7.800781 11.640625 -7.40625 11.890625 -6.9375 C 12.148438 -6.46875 12.304688 -5.878906 12.359375 -5.171875 C 12.410156 -4.359375 12.296875 -3.644531 12.015625 -3.03125 C 11.742188 -2.425781 11.359375 -1.925781 10.859375 -1.53125 C 10.359375 -1.144531 9.769531 -0.847656 9.09375 -0.640625 C 8.414062 -0.429688 7.695312 -0.300781 6.9375 -0.25 C 5.78125 -0.175781 4.628906 -0.28125 3.484375 -0.5625 C 2.347656 -0.84375 1.3125 -1.273438 0.375 -1.859375 L 1.53125 -4.5 C 1.664062 -4.375 1.910156 -4.21875 2.265625 -4.03125 C 2.617188 -3.851562 3.03125 -3.671875 3.5 -3.484375 C 3.96875 -3.304688 4.488281 -3.160156 5.0625 -3.046875 C 5.632812 -2.941406 6.21875 -2.910156 6.8125 -2.953125 C 8.46875 -3.046875 9.265625 -3.617188 9.203125 -4.671875 C 9.179688 -4.992188 9.066406 -5.265625 8.859375 -5.484375 C 8.648438 -5.710938 8.367188 -5.898438 8.015625 -6.046875 C 7.660156 -6.203125 7.226562 -6.335938 6.71875 -6.453125 C 6.21875 -6.566406 5.660156 -6.695312 5.046875 -6.84375 C 4.296875 -6.988281 3.644531 -7.164062 3.09375 -7.375 C 2.539062 -7.582031 2.078125 -7.835938 1.703125 -8.140625 C 1.328125 -8.441406 1.03125 -8.796875 0.8125 -9.203125 C 0.601562 -9.617188 0.484375 -10.125 0.453125 -10.71875 C 0.398438 -11.5 0.5 -12.203125 0.75 -12.828125 C 1 -13.453125 1.367188 -13.984375 1.859375 -14.421875 C 2.347656 -14.859375 2.925781 -15.203125 3.59375 -15.453125 C 4.257812 -15.703125 4.984375 -15.851562 5.765625 -15.90625 C 6.847656 -15.96875 7.851562 -15.859375 8.78125 -15.578125 C 9.71875 -15.296875 10.539062 -14.941406 11.25 -14.515625 Z M 10.0625 -12.015625 "/></g></g></g><g fill="#ffffff" fill-opacity="1"><g transform="translate(203.29176, 322.776987)"><g><path d="M 10.515625 -18.421875 L 14.15625 -3.453125 L 11.265625 -2.75 L 9.703125 -9.140625 L 2.90625 -7.484375 L 4.46875 -1.09375 L 1.5625 -0.375 L -2.078125 -15.34375 L 0.828125 -16.0625 L 2.296875 -10.015625 L 9.09375 -11.671875 L 7.625 -17.71875 Z M 10.515625 -18.421875 "/></g></g></g><g fill="#ffffff" fill-opacity="1"><g transform="translate(228.332113, 315.675547)"><g><path d="M -0.828125 -16.515625 L 1.59375 -17.59375 L 13.234375 -5.921875 L 10.421875 -4.671875 L 7.53125 -7.59375 L 2.609375 -5.390625 L 2.90625 -1.296875 L 0.09375 -0.046875 Z M 6.171875 -9.296875 L 1.765625 -13.9375 L 2.21875 -7.515625 Z M 6.171875 -9.296875 "/></g></g></g><g fill="#ffffff" fill-opacity="1"><g transform="translate(250.199751, 304.903983)"><g><path d="M 3.75 -17.921875 L -0.34375 -15.171875 L 6.796875 -4.578125 L 4.34375 -2.921875 L -2.796875 -13.515625 L -6.890625 -10.765625 L -8.359375 -12.953125 L 2.28125 -20.109375 Z M 3.75 -17.921875 "/></g></g></g><g fill="#ffffff" fill-opacity="1"><g transform="translate(268.97046, 291.268223)"><g><path d="M 0.703125 -18.3125 L -2.875 -14.921875 L 5.9375 -5.65625 L 3.796875 -3.609375 L -5.015625 -12.875 L -8.59375 -9.46875 L -10.40625 -11.359375 L -1.109375 -20.203125 Z M 0.703125 -18.3125 "/></g></g></g><g fill="#ffffff" fill-opacity="1"><g transform="translate(285.247241, 274.68983)"><g><path d="M -8.8125 -14 L -7.21875 -16.125 L 8.640625 -11.640625 L 6.8125 -9.171875 L 2.859375 -10.3125 L -0.359375 -5.984375 L 1.90625 -2.5625 L 0.0625 -0.09375 Z M 0.84375 -11.125 L -5.28125 -13.03125 L -1.75 -7.640625 Z M 0.84375 -11.125 "/></g></g></g><g fill="#ffffff" fill-opacity="1"><g transform="translate(299.095675, 254.583542)"><g><path d="M 2.703125 -14.3125 C 3.273438 -14.03125 3.722656 -13.660156 4.046875 -13.203125 C 4.367188 -12.742188 4.578125 -12.238281 4.671875 -11.6875 C 4.773438 -11.132812 4.769531 -10.550781 4.65625 -9.9375 C 4.539062 -9.320312 4.332031 -8.707031 4.03125 -8.09375 L 0.71875 -1.4375 L -13.078125 -8.296875 L -9.40625 -15.6875 C -9.164062 -16.164062 -8.84375 -16.546875 -8.4375 -16.828125 C -8.039062 -17.117188 -7.609375 -17.316406 -7.140625 -17.421875 C -6.679688 -17.535156 -6.203125 -17.5625 -5.703125 -17.5 C -5.210938 -17.4375 -4.753906 -17.296875 -4.328125 -17.078125 C -3.660156 -16.742188 -3.113281 -16.257812 -2.6875 -15.625 C -2.257812 -15 -2.066406 -14.289062 -2.109375 -13.5 C -1.484375 -14.175781 -0.753906 -14.59375 0.078125 -14.75 C 0.921875 -14.90625 1.796875 -14.757812 2.703125 -14.3125 Z M 0.84375 -11.859375 C 0.59375 -11.984375 0.332031 -12.0625 0.0625 -12.09375 C -0.195312 -12.125 -0.445312 -12.109375 -0.6875 -12.046875 C -0.925781 -11.992188 -1.140625 -11.894531 -1.328125 -11.75 C -1.523438 -11.601562 -1.6875 -11.410156 -1.8125 -11.171875 L -3.859375 -7.046875 L -0.234375 -5.25 L 1.75 -9.234375 C 1.875 -9.492188 1.941406 -9.75 1.953125 -10 C 1.972656 -10.25 1.941406 -10.492188 1.859375 -10.734375 C 1.773438 -10.972656 1.644531 -11.191406 1.46875 -11.390625 C 1.300781 -11.585938 1.09375 -11.742188 0.84375 -11.859375 Z M -9.453125 -9.828125 L -5.984375 -8.109375 L -4.203125 -11.6875 C -3.972656 -12.144531 -3.929688 -12.609375 -4.078125 -13.078125 C -4.234375 -13.546875 -4.585938 -13.914062 -5.140625 -14.1875 C -5.671875 -14.457031 -6.160156 -14.519531 -6.609375 -14.375 C -7.066406 -14.238281 -7.398438 -13.957031 -7.609375 -13.53125 Z M -9.453125 -9.828125 "/></g></g></g><g fill="#ffffff" fill-opacity="1"><g transform="translate(309.196756, 232.227159)"><g><path d="M 0.46875 -1.546875 L -14.28125 -5.984375 L -13.421875 -8.84375 L -1.1875 -5.15625 L 1.078125 -12.671875 L 3.59375 -11.921875 Z M 0.46875 -1.546875 "/></g></g></g><g fill="#ffffff" fill-opacity="1"><g transform="translate(314.936667, 210.524098)"><g><path d="M -14.875 -5.21875 L -7.03125 -8.0625 L -13.921875 -12.828125 L -13.515625 -16.03125 L -4.265625 -9.25 L 1.0625 -8.578125 L 0.703125 -5.625 L -4.671875 -6.296875 L -15.265625 -2 Z M -14.875 -5.21875 "/></g></g></g><g fill="#ffffff" fill-opacity="1"><g transform="translate(90.085892, 245.305322)"><g><path d="M 87.25 -90.1875 C 89.71875 -113.640625 75.046875 -127.359375 54.40625 -127.359375 C 42.328125 -127.359375 28.03125 -122.78125 20.40625 -113.046875 C 13.953125 -104.953125 12.546875 -91.828125 18.171875 -83.265625 C 23.21875 -75.28125 32.59375 -71.0625 40.921875 -67.078125 C 50.546875 -62.5 60.515625 -58.171875 68.375 -50.78125 C 77.28125 -42.328125 82.90625 -29.3125 77.28125 -17.59375 C 72.46875 -7.734375 62.5 -3.640625 52.65625 -3.640625 C 49.953125 -3.640625 47.375 -3.875 44.796875 -4.453125 C 30.71875 -7.390625 21.109375 -17.59375 21.8125 -31.78125 C 21.9375 -34.953125 22.40625 -38.234375 23.21875 -41.390625 C 23.578125 -42.6875 22.171875 -43.15625 20.40625 -43.15625 C 17.59375 -43.15625 13.484375 -41.859375 13.015625 -39.875 C 7.5 -16.53125 19.109375 -2.109375 41.28125 1.0625 C 44.21875 1.40625 47.265625 1.640625 50.1875 1.640625 C 55.125 1.640625 60.046875 1.0625 64.609375 -0.46875 C 78.578125 -5.046875 91.234375 -16.65625 89.828125 -32.359375 C 88.78125 -43.984375 80.328125 -53.828125 71.0625 -60.046875 C 62.15625 -66.03125 52.0625 -70.015625 42.5625 -74.9375 C 35.0625 -78.921875 27.09375 -84.203125 25.328125 -93.109375 C 22.046875 -110.125 34.71875 -122.078125 50.78125 -122.078125 C 64.5 -122.078125 75.28125 -111.765625 77.046875 -98.984375 C 77.40625 -95.453125 77.40625 -92.0625 77.046875 -88.78125 C 76.8125 -87.375 78.21875 -86.78125 80.09375 -86.78125 C 83.03125 -86.78125 87.015625 -88.3125 87.25 -90.1875 Z M 87.25 -90.1875 "/></g></g></g><g fill="#ffffff" fill-opacity="1"><g transform="translate(175.713911, 245.305322)"><g><path d="M 97.453125 -3.40625 C 92.765625 -41.984375 90.53125 -83.96875 94.984375 -122.78125 C 95.21875 -124.421875 93.578125 -125.015625 91.703125 -125.015625 C 88.78125 -125.015625 85.015625 -123.609375 84.78125 -121.5 C 82.671875 -103.203125 82.90625 -85.140625 83.375 -67.546875 C 76.46875 -68.25 69.65625 -68.375 62.859375 -68.375 C 50.421875 -68.375 38.234375 -67.78125 25.921875 -66.375 C 26.15625 -85.84375 25.5625 -104.71875 23.34375 -123.484375 C 23.21875 -124.546875 21.9375 -125.015625 20.40625 -125.015625 C 17.234375 -125.015625 12.78125 -123.25 13.140625 -120.796875 C 17.125 -83.96875 18.640625 -37.171875 9.84375 -2.703125 C 6.328125 7.734375 1.296875 24.15625 -16.765625 25.328125 C -25.328125 25.328125 -32.015625 20.515625 -38.234375 15.125 C -38.8125 14.65625 -39.640625 14.421875 -40.6875 14.421875 C -44.328125 14.421875 -49.609375 17.125 -47.734375 19 C -39.40625 26.265625 -28.84375 30.953125 -17.703125 30.953125 C -3.515625 30.71875 8.203125 22.40625 14.546875 9.96875 C 25.21875 -11.265625 25.5625 -39.875 25.921875 -62.03125 C 36.828125 -63.328125 47.734375 -63.5625 58.640625 -63.5625 C 66.609375 -63.5625 74.578125 -63.328125 82.671875 -62.265625 C 82.796875 -62.265625 83.03125 -62.265625 83.375 -62.15625 C 83.734375 -40.8125 84.671875 -20.515625 87.25 -0.59375 C 87.375 0.59375 88.65625 1.0625 90.1875 1.0625 C 93.34375 1.0625 97.796875 -0.828125 97.453125 -3.40625 Z M 97.453125 -3.40625 "/></g></g></g></svg>