<?xml version="1.0" encoding="utf-8"?>
<!-- Generator: Adobe Illustrator 27.5.0, SVG Export Plug-In . SVG Version: 6.00 Build 0)  -->
<svg version="1.1" xmlns="http://www.w3.org/2000/svg" xmlns:xlink="http://www.w3.org/1999/xlink" x="0px" y="0px"
	 viewBox="0 0 500 500" style="enable-background:new 0 0 500 500;" xml:space="preserve">
<g id="Background_complete">
	<g>
		<g>
			<g>
				<g>
					<g>
						<path style="fill:#E0E0E0;" d="M443.92,322.471H263.174c-3.232,0-5.862-2.63-5.862-5.862V53.335
							c0-3.232,2.63-5.862,5.862-5.862H443.92c3.232,0,5.862,2.629,5.862,5.862v263.273
							C449.783,319.841,447.153,322.471,443.92,322.471z M263.174,47.724c-3.095,0-5.612,2.518-5.612,5.612v263.273
							c0,3.095,2.518,5.612,5.612,5.612H443.92c3.095,0,5.612-2.517,5.612-5.612V53.335c0-3.094-2.518-5.612-5.612-5.612H263.174z"
							/>
					</g>
				</g>
				<g>
					<g>
						<path style="fill:#E0E0E0;" d="M235.493,322.471H54.746c-3.232,0-5.862-2.63-5.862-5.862V53.335
							c0-3.232,2.629-5.862,5.862-5.862h180.747c3.232,0,5.862,2.629,5.862,5.862v263.273
							C241.355,319.841,238.725,322.471,235.493,322.471z M54.746,47.724c-3.094,0-5.612,2.518-5.612,5.612v263.273
							c0,3.095,2.518,5.612,5.612,5.612h180.747c3.095,0,5.612-2.517,5.612-5.612V53.335c0-3.094-2.518-5.612-5.612-5.612H54.746z"
							/>
					</g>
				</g>
			</g>
			<g>
				<g>
					<rect x="0" y="385.483" style="fill:#E0E0E0;" width="500" height="0.25"/>
				</g>
			</g>
		</g>
		<rect x="51.672" y="393.494" style="fill:#E0E0E0;" width="16.06" height="0.25"/>
		<rect x="170.352" y="390.784" style="fill:#E0E0E0;" width="53.53" height="0.25"/>
		<rect x="68.732" y="402.784" style="fill:#E0E0E0;" width="36.25" height="0.25"/>
		<rect x="378.352" y="390.654" style="fill:#E0E0E0;" width="43.19" height="0.25"/>
		<rect x="430.452" y="390.654" style="fill:#E0E0E0;" width="6.33" height="0.25"/>
		<rect x="316.212" y="396.884" style="fill:#E0E0E0;" width="53.89" height="0.25"/>
	</g>
	<g>
		<g>
			<rect x="314.359" y="132.11" style="fill:#E6E6E6;" width="60.759" height="60.759"/>
		</g>
		<polygon style="opacity:0.3;fill:#FFFFFF;" points="318.186,191.666 373.331,144.547 373.331,150.186 324.942,191.532 		"/>
	</g>
	<g>
		<g>
			<path style="fill:#EBEBEB;" d="M246.831,264.713c-0.534-1.294-1.379-3.147-7.287-3.134c-14.433,0.239-28.866,0.477-43.299,0.716
				c-1.401,0.023-2.865,0.063-4.097,0.786c-2.77,1.626-3.094,5.717-3.071,9.131c0.1,14.437,0.199,28.875,0.299,43.313
				c0.008,1.111,0.032,2.288,0.581,3.227c0.918,1.571,2.883,1.866,4.595,1.995c15.896,1.197,31.847,1.554,47.775,1.07
				c1.509-0.046,3.266-0.245,4.069-1.63c0.453-0.781,0.476-1.757,0.484-2.679c0.155-16.206,0.311-32.411,0.466-48.616
				C247.36,267.476,247.365,266.007,246.831,264.713z"/>
		</g>
		<g>
			<g>
				<path style="fill:#E0E0E0;" d="M194.729,272.876c2.503,2.623,7.169,2.82,10.454,1.88c1.907-0.546,3.537-1.736,5.417-2.342
					c2.183-0.703,4.307-0.309,6.37,0.569c1.66,0.706,3.262,1.505,5.072,1.75c2.166,0.294,4.414-0.043,6.51-0.608
					c2.205-0.594,4.206-1.758,6.517-1.944c2.581-0.208,5.262,0.619,7.187,2.371c0.356,0.324,0.888-0.205,0.53-0.53
					c-3.047-2.774-7.47-3.253-11.227-1.765c-2.311,0.915-4.619,1.673-7.127,1.809c-2.328,0.126-4.322-0.51-6.422-1.439
					c-1.529-0.677-3.081-1.302-4.776-1.35c-1.898-0.054-3.59,0.641-5.255,1.473c-2.032,1.016-3.962,1.713-6.274,1.731
					c-2.225,0.017-4.842-0.456-6.444-2.134C194.926,271.996,194.396,272.527,194.729,272.876L194.729,272.876z"/>
			</g>
		</g>
		<g>
			<g>
				<path style="fill:#E0E0E0;" d="M194.729,279.152c2.503,2.623,7.169,2.821,10.454,1.88c1.907-0.546,3.537-1.736,5.417-2.342
					c2.183-0.703,4.307-0.309,6.37,0.569c1.66,0.706,3.262,1.505,5.072,1.75c2.166,0.294,4.414-0.043,6.51-0.608
					c2.205-0.594,4.206-1.758,6.517-1.944c2.581-0.208,5.262,0.619,7.187,2.371c0.356,0.324,0.888-0.204,0.53-0.53
					c-3.047-2.774-7.47-3.253-11.227-1.765c-2.311,0.915-4.619,1.673-7.127,1.809c-2.328,0.126-4.322-0.51-6.422-1.439
					c-1.529-0.677-3.081-1.302-4.776-1.35c-1.898-0.054-3.59,0.641-5.255,1.473c-2.032,1.016-3.962,1.713-6.274,1.73
					c-2.225,0.017-4.842-0.455-6.444-2.134C194.926,278.272,194.396,278.803,194.729,279.152L194.729,279.152z"/>
			</g>
		</g>
		<g>
			<g>
				<path style="fill:#E0E0E0;" d="M194.729,285.427c2.503,2.623,7.169,2.82,10.454,1.88c1.907-0.546,3.537-1.736,5.417-2.342
					c2.183-0.703,4.307-0.309,6.37,0.569c1.66,0.706,3.262,1.505,5.072,1.75c2.166,0.294,4.414-0.043,6.51-0.608
					c2.205-0.594,4.206-1.758,6.517-1.944c2.581-0.208,5.262,0.619,7.187,2.371c0.356,0.324,0.888-0.204,0.53-0.53
					c-3.047-2.774-7.47-3.253-11.227-1.765c-2.311,0.915-4.619,1.673-7.127,1.809c-2.328,0.126-4.322-0.51-6.422-1.439
					c-1.529-0.677-3.081-1.302-4.776-1.351c-1.898-0.054-3.59,0.641-5.255,1.473c-2.032,1.016-3.962,1.713-6.274,1.731
					c-2.225,0.017-4.842-0.456-6.444-2.134C194.926,284.547,194.396,285.078,194.729,285.427L194.729,285.427z"/>
			</g>
		</g>
		<g>
			<g>
				<path style="fill:#E0E0E0;" d="M194.729,291.703c2.503,2.623,7.169,2.82,10.454,1.88c1.907-0.546,3.537-1.736,5.417-2.342
					c2.183-0.703,4.307-0.309,6.37,0.569c1.66,0.706,3.262,1.505,5.072,1.75c2.166,0.294,4.414-0.043,6.51-0.608
					c2.205-0.594,4.206-1.758,6.517-1.944c2.581-0.208,5.262,0.619,7.187,2.371c0.356,0.324,0.888-0.205,0.53-0.53
					c-3.047-2.774-7.47-3.253-11.227-1.765c-2.311,0.915-4.619,1.673-7.127,1.809c-2.328,0.126-4.322-0.51-6.422-1.439
					c-1.529-0.677-3.081-1.302-4.776-1.351c-1.898-0.054-3.59,0.641-5.255,1.473c-2.032,1.016-3.962,1.713-6.274,1.731
					c-2.225,0.017-4.842-0.456-6.444-2.134C194.926,290.823,194.396,291.354,194.729,291.703L194.729,291.703z"/>
			</g>
		</g>
		<g>
			<g>
				<path style="fill:#E0E0E0;" d="M194.729,297.978c2.503,2.623,7.169,2.821,10.454,1.88c1.907-0.546,3.537-1.736,5.417-2.342
					c2.183-0.703,4.307-0.309,6.37,0.569c1.66,0.706,3.262,1.505,5.072,1.75c2.166,0.294,4.414-0.043,6.51-0.608
					c2.205-0.594,4.206-1.758,6.517-1.944c2.581-0.208,5.262,0.619,7.187,2.371c0.356,0.324,0.888-0.204,0.53-0.53
					c-3.047-2.774-7.47-3.253-11.227-1.765c-2.311,0.915-4.619,1.673-7.127,1.809c-2.328,0.126-4.322-0.51-6.422-1.439
					c-1.529-0.677-3.081-1.302-4.776-1.35c-1.898-0.054-3.59,0.641-5.255,1.473c-2.032,1.016-3.962,1.713-6.274,1.73
					c-2.225,0.017-4.842-0.455-6.444-2.134C194.926,297.098,194.396,297.629,194.729,297.978L194.729,297.978z"/>
			</g>
		</g>
		<g>
			<g>
				<path style="fill:#E0E0E0;" d="M194.729,304.254c2.503,2.623,7.169,2.82,10.454,1.88c1.907-0.546,3.537-1.736,5.417-2.342
					c2.183-0.703,4.307-0.309,6.37,0.569c1.66,0.706,3.262,1.505,5.072,1.75c2.166,0.294,4.414-0.043,6.51-0.608
					c2.205-0.594,4.206-1.758,6.517-1.944c2.581-0.208,5.262,0.619,7.187,2.371c0.356,0.324,0.888-0.204,0.53-0.53
					c-3.047-2.774-7.47-3.253-11.227-1.765c-2.311,0.915-4.619,1.673-7.127,1.808c-2.328,0.126-4.322-0.51-6.422-1.439
					c-1.529-0.677-3.081-1.302-4.776-1.351c-1.898-0.054-3.59,0.641-5.255,1.473c-2.032,1.016-3.962,1.713-6.274,1.73
					c-2.225,0.017-4.842-0.456-6.444-2.134C194.926,303.374,194.396,303.905,194.729,304.254L194.729,304.254z"/>
			</g>
		</g>
		<g>
			<g>
				<path style="fill:#E0E0E0;" d="M194.8,310.53c2.503,2.623,7.169,2.82,10.454,1.88c1.907-0.546,3.537-1.736,5.417-2.342
					c2.183-0.703,4.307-0.309,6.37,0.569c1.661,0.706,3.262,1.505,5.072,1.75c2.166,0.294,4.414-0.043,6.51-0.608
					c2.205-0.594,4.206-1.758,6.517-1.944c2.581-0.208,5.262,0.619,7.186,2.371c0.356,0.324,0.888-0.204,0.53-0.53
					c-3.046-2.774-7.47-3.253-11.227-1.765c-2.311,0.915-4.619,1.673-7.127,1.809c-2.328,0.126-4.322-0.51-6.422-1.439
					c-1.529-0.677-3.081-1.302-4.776-1.351c-1.898-0.054-3.59,0.641-5.255,1.473c-2.032,1.016-3.962,1.713-6.274,1.731
					c-2.225,0.017-4.842-0.456-6.444-2.134C194.996,309.649,194.467,310.18,194.8,310.53L194.8,310.53z"/>
			</g>
		</g>
	</g>
	<g>
		<g>
			<path style="fill:#EBEBEB;" d="M312.064,329.472c-0.534-1.294-1.379-3.147-7.287-3.134c-14.433,0.239-28.866,0.477-43.299,0.716
				c-1.401,0.023-2.865,0.063-4.097,0.786c-2.77,1.626-3.094,5.717-3.071,9.131c0.1,14.438,0.199,28.875,0.299,43.313
				c0.008,1.111,0.032,2.289,0.581,3.228c0.918,1.571,2.883,1.866,4.595,1.995c15.897,1.197,31.847,1.555,47.775,1.07
				c1.509-0.046,3.266-0.245,4.069-1.63c0.453-0.781,0.476-1.757,0.484-2.679c0.155-16.205,0.311-32.411,0.466-48.616
				C312.594,332.235,312.598,330.766,312.064,329.472z"/>
		</g>
		<g>
			<g>
				<path style="fill:#E0E0E0;" d="M259.963,337.636c2.503,2.623,7.169,2.82,10.454,1.88c1.907-0.546,3.537-1.736,5.417-2.342
					c2.183-0.703,4.307-0.309,6.37,0.569c1.66,0.706,3.262,1.505,5.072,1.75c2.166,0.294,4.413-0.043,6.509-0.608
					c2.205-0.594,4.207-1.758,6.517-1.944c2.581-0.208,5.262,0.619,7.186,2.371c0.356,0.324,0.888-0.205,0.53-0.53
					c-3.047-2.774-7.47-3.253-11.227-1.765c-2.311,0.915-4.619,1.673-7.127,1.809c-2.328,0.126-4.322-0.51-6.422-1.439
					c-1.529-0.677-3.081-1.302-4.776-1.351c-1.898-0.054-3.59,0.641-5.255,1.473c-2.032,1.016-3.962,1.713-6.274,1.73
					c-2.225,0.017-4.842-0.455-6.444-2.134C260.159,336.756,259.629,337.286,259.963,337.636L259.963,337.636z"/>
			</g>
		</g>
		<g>
			<g>
				<path style="fill:#E0E0E0;" d="M259.963,343.911c2.503,2.623,7.169,2.821,10.454,1.88c1.907-0.546,3.537-1.736,5.417-2.342
					c2.183-0.703,4.307-0.309,6.37,0.569c1.66,0.706,3.262,1.505,5.072,1.75c2.166,0.294,4.413-0.043,6.509-0.608
					c2.205-0.594,4.207-1.758,6.517-1.944c2.581-0.208,5.262,0.619,7.186,2.371c0.356,0.324,0.888-0.204,0.53-0.53
					c-3.047-2.774-7.47-3.253-11.227-1.765c-2.311,0.915-4.619,1.673-7.127,1.809c-2.328,0.126-4.322-0.51-6.422-1.439
					c-1.529-0.677-3.081-1.302-4.776-1.351c-1.898-0.054-3.59,0.641-5.255,1.473c-2.032,1.016-3.962,1.713-6.274,1.731
					c-2.225,0.017-4.842-0.455-6.444-2.134C260.159,343.031,259.629,343.562,259.963,343.911L259.963,343.911z"/>
			</g>
		</g>
		<g>
			<g>
				<path style="fill:#E0E0E0;" d="M259.963,350.187c2.503,2.623,7.169,2.82,10.454,1.88c1.907-0.546,3.537-1.736,5.417-2.342
					c2.183-0.703,4.307-0.309,6.37,0.569c1.66,0.706,3.262,1.505,5.072,1.75c2.166,0.294,4.413-0.043,6.509-0.608
					c2.205-0.594,4.207-1.758,6.517-1.944c2.581-0.208,5.262,0.619,7.186,2.371c0.356,0.324,0.888-0.204,0.53-0.53
					c-3.047-2.774-7.47-3.253-11.227-1.765c-2.311,0.915-4.619,1.673-7.127,1.809c-2.328,0.126-4.322-0.51-6.422-1.439
					c-1.529-0.677-3.081-1.302-4.776-1.35c-1.898-0.054-3.59,0.641-5.255,1.473c-2.032,1.016-3.962,1.713-6.274,1.73
					c-2.225,0.017-4.842-0.456-6.444-2.134C260.159,349.307,259.629,349.837,259.963,350.187L259.963,350.187z"/>
			</g>
		</g>
		<g>
			<g>
				<path style="fill:#E0E0E0;" d="M259.963,356.462c2.503,2.623,7.169,2.82,10.454,1.88c1.907-0.546,3.537-1.736,5.417-2.342
					c2.183-0.703,4.307-0.309,6.37,0.569c1.66,0.706,3.262,1.505,5.072,1.75c2.166,0.294,4.413-0.043,6.509-0.608
					c2.205-0.594,4.207-1.758,6.517-1.944c2.581-0.208,5.262,0.619,7.186,2.371c0.356,0.324,0.888-0.204,0.53-0.53
					c-3.047-2.774-7.47-3.253-11.227-1.765c-2.311,0.915-4.619,1.673-7.127,1.809c-2.328,0.126-4.322-0.51-6.422-1.439
					c-1.529-0.677-3.081-1.302-4.776-1.351c-1.898-0.054-3.59,0.641-5.255,1.473c-2.032,1.016-3.962,1.713-6.274,1.731
					c-2.225,0.017-4.842-0.456-6.444-2.134C260.159,355.582,259.629,356.113,259.963,356.462L259.963,356.462z"/>
			</g>
		</g>
		<g>
			<g>
				<path style="fill:#E0E0E0;" d="M259.963,362.738c2.503,2.623,7.169,2.82,10.454,1.88c1.907-0.546,3.537-1.736,5.417-2.342
					c2.183-0.703,4.307-0.309,6.37,0.569c1.66,0.706,3.262,1.505,5.072,1.75c2.166,0.294,4.413-0.043,6.509-0.608
					c2.205-0.594,4.207-1.758,6.517-1.944c2.581-0.208,5.262,0.619,7.186,2.371c0.356,0.324,0.888-0.204,0.53-0.53
					c-3.047-2.774-7.47-3.253-11.227-1.765c-2.311,0.915-4.619,1.673-7.127,1.809c-2.328,0.126-4.322-0.51-6.422-1.439
					c-1.529-0.677-3.081-1.302-4.776-1.351c-1.898-0.054-3.59,0.641-5.255,1.473c-2.032,1.016-3.962,1.713-6.274,1.731
					c-2.225,0.017-4.842-0.456-6.444-2.134C260.159,361.858,259.629,362.389,259.963,362.738L259.963,362.738z"/>
			</g>
		</g>
		<g>
			<g>
				<path style="fill:#E0E0E0;" d="M259.963,369.013c2.503,2.623,7.169,2.82,10.454,1.88c1.907-0.546,3.537-1.736,5.417-2.342
					c2.183-0.703,4.307-0.309,6.37,0.569c1.66,0.706,3.262,1.505,5.072,1.75c2.166,0.294,4.413-0.043,6.509-0.608
					c2.205-0.594,4.207-1.758,6.517-1.944c2.581-0.208,5.262,0.619,7.186,2.371c0.356,0.324,0.888-0.205,0.53-0.53
					c-3.047-2.774-7.47-3.253-11.227-1.765c-2.311,0.915-4.619,1.673-7.127,1.809c-2.328,0.126-4.322-0.51-6.422-1.439
					c-1.529-0.677-3.081-1.302-4.776-1.35c-1.898-0.054-3.59,0.641-5.255,1.473c-2.032,1.016-3.962,1.713-6.274,1.731
					c-2.225,0.017-4.842-0.456-6.444-2.134C260.159,368.133,259.629,368.664,259.963,369.013L259.963,369.013z"/>
			</g>
		</g>
		<g>
			<g>
				<path style="fill:#E0E0E0;" d="M260.033,375.289c2.503,2.623,7.169,2.82,10.454,1.88c1.907-0.546,3.537-1.736,5.417-2.342
					c2.183-0.703,4.307-0.309,6.37,0.569c1.66,0.706,3.262,1.505,5.072,1.75c2.166,0.294,4.413-0.043,6.509-0.608
					c2.205-0.594,4.207-1.758,6.517-1.944c2.581-0.208,5.262,0.619,7.186,2.371c0.356,0.324,0.888-0.204,0.53-0.53
					c-3.046-2.774-7.47-3.253-11.227-1.765c-2.311,0.915-4.619,1.673-7.127,1.809c-2.328,0.126-4.322-0.51-6.422-1.439
					c-1.529-0.677-3.081-1.302-4.776-1.351c-1.898-0.054-3.59,0.641-5.255,1.473c-2.032,1.016-3.962,1.713-6.274,1.73
					c-2.225,0.017-4.842-0.456-6.444-2.134C260.23,374.409,259.7,374.94,260.033,375.289L260.033,375.289z"/>
			</g>
		</g>
	</g>
	<g>
		<g>
			<path style="fill:#EBEBEB;" d="M310.534,136.049c-0.534-1.294-1.379-3.147-7.287-3.133c-14.433,0.239-28.866,0.477-43.299,0.716
				c-1.401,0.023-2.865,0.063-4.097,0.786c-2.77,1.626-3.094,5.717-3.071,9.131c0.1,14.437,0.199,28.875,0.299,43.313
				c0.008,1.111,0.032,2.288,0.581,3.227c0.918,1.571,2.883,1.866,4.595,1.995c15.897,1.197,31.847,1.554,47.775,1.07
				c1.509-0.046,3.266-0.245,4.069-1.63c0.453-0.781,0.476-1.757,0.484-2.679c0.155-16.205,0.311-32.411,0.466-48.616
				C311.064,138.812,311.068,137.344,310.534,136.049z"/>
		</g>
		<g>
			<g>
				<path style="fill:#E0E0E0;" d="M258.433,144.213c2.503,2.623,7.169,2.82,10.454,1.88c1.907-0.546,3.537-1.736,5.417-2.342
					c2.183-0.703,4.307-0.309,6.37,0.569c1.66,0.706,3.262,1.505,5.071,1.75c2.166,0.294,4.414-0.043,6.51-0.608
					c2.205-0.594,4.207-1.758,6.517-1.944c2.581-0.208,5.262,0.619,7.186,2.371c0.356,0.324,0.888-0.205,0.53-0.53
					c-3.047-2.774-7.47-3.253-11.227-1.765c-2.311,0.915-4.619,1.673-7.127,1.809c-2.328,0.126-4.322-0.51-6.422-1.439
					c-1.529-0.677-3.081-1.302-4.776-1.351c-1.898-0.054-3.59,0.641-5.255,1.473c-2.032,1.016-3.962,1.713-6.274,1.731
					c-2.225,0.017-4.842-0.455-6.444-2.134C258.629,143.333,258.1,143.864,258.433,144.213L258.433,144.213z"/>
			</g>
		</g>
		<g>
			<g>
				<path style="fill:#E0E0E0;" d="M258.433,150.488c2.503,2.623,7.169,2.82,10.454,1.88c1.907-0.546,3.537-1.736,5.417-2.342
					c2.183-0.703,4.307-0.309,6.37,0.569c1.66,0.706,3.262,1.505,5.071,1.75c2.166,0.294,4.414-0.043,6.51-0.608
					c2.205-0.594,4.207-1.758,6.517-1.944c2.581-0.208,5.262,0.619,7.186,2.371c0.356,0.324,0.888-0.204,0.53-0.53
					c-3.047-2.774-7.47-3.253-11.227-1.765c-2.311,0.915-4.619,1.673-7.127,1.809c-2.328,0.126-4.322-0.51-6.422-1.439
					c-1.529-0.677-3.081-1.302-4.776-1.351c-1.898-0.054-3.59,0.641-5.255,1.473c-2.032,1.016-3.962,1.713-6.274,1.731
					c-2.225,0.017-4.842-0.456-6.444-2.134C258.629,149.608,258.1,150.139,258.433,150.488L258.433,150.488z"/>
			</g>
		</g>
		<g>
			<g>
				<path style="fill:#E0E0E0;" d="M258.433,156.764c2.503,2.623,7.169,2.82,10.454,1.88c1.907-0.546,3.537-1.736,5.417-2.342
					c2.183-0.703,4.307-0.309,6.37,0.569c1.66,0.706,3.262,1.505,5.071,1.75c2.166,0.294,4.414-0.043,6.51-0.608
					c2.205-0.594,4.207-1.758,6.517-1.944c2.581-0.208,5.262,0.619,7.186,2.371c0.356,0.324,0.888-0.204,0.53-0.53
					c-3.047-2.774-7.47-3.253-11.227-1.765c-2.311,0.915-4.619,1.673-7.127,1.809c-2.328,0.126-4.322-0.51-6.422-1.439
					c-1.529-0.677-3.081-1.302-4.776-1.351c-1.898-0.054-3.59,0.641-5.255,1.473c-2.032,1.016-3.962,1.713-6.274,1.73
					c-2.225,0.017-4.842-0.456-6.444-2.134C258.629,155.884,258.1,156.415,258.433,156.764L258.433,156.764z"/>
			</g>
		</g>
		<g>
			<g>
				<path style="fill:#E0E0E0;" d="M258.433,163.04c2.503,2.623,7.169,2.82,10.454,1.88c1.907-0.546,3.537-1.736,5.417-2.342
					c2.183-0.703,4.307-0.309,6.37,0.569c1.66,0.706,3.262,1.505,5.071,1.75c2.166,0.294,4.414-0.043,6.51-0.608
					c2.205-0.594,4.207-1.758,6.517-1.944c2.581-0.208,5.262,0.619,7.186,2.371c0.356,0.324,0.888-0.204,0.53-0.53
					c-3.047-2.774-7.47-3.253-11.227-1.765c-2.311,0.915-4.619,1.673-7.127,1.809c-2.328,0.126-4.322-0.51-6.422-1.439
					c-1.529-0.677-3.081-1.302-4.776-1.351c-1.898-0.054-3.59,0.641-5.255,1.473c-2.032,1.016-3.962,1.713-6.274,1.731
					c-2.225,0.017-4.842-0.455-6.444-2.134C258.629,162.159,258.1,162.69,258.433,163.04L258.433,163.04z"/>
			</g>
		</g>
		<g>
			<g>
				<path style="fill:#E0E0E0;" d="M258.433,169.315c2.503,2.623,7.169,2.82,10.454,1.88c1.907-0.546,3.537-1.736,5.417-2.342
					c2.183-0.703,4.307-0.309,6.37,0.569c1.66,0.706,3.262,1.505,5.071,1.75c2.166,0.294,4.414-0.043,6.51-0.608
					c2.205-0.594,4.207-1.758,6.517-1.944c2.581-0.208,5.262,0.619,7.186,2.371c0.356,0.324,0.888-0.204,0.53-0.53
					c-3.047-2.774-7.47-3.253-11.227-1.765c-2.311,0.915-4.619,1.673-7.127,1.809c-2.328,0.126-4.322-0.51-6.422-1.439
					c-1.529-0.677-3.081-1.302-4.776-1.351c-1.898-0.054-3.59,0.641-5.255,1.473c-2.032,1.016-3.962,1.713-6.274,1.73
					c-2.225,0.017-4.842-0.456-6.444-2.134C258.629,168.435,258.1,168.966,258.433,169.315L258.433,169.315z"/>
			</g>
		</g>
		<g>
			<g>
				<path style="fill:#E0E0E0;" d="M258.433,175.591c2.503,2.623,7.169,2.82,10.454,1.88c1.907-0.546,3.537-1.736,5.417-2.342
					c2.183-0.703,4.307-0.309,6.37,0.569c1.66,0.706,3.262,1.505,5.071,1.75c2.166,0.294,4.414-0.043,6.51-0.608
					c2.205-0.594,4.207-1.758,6.517-1.944c2.581-0.208,5.262,0.619,7.186,2.371c0.356,0.324,0.888-0.204,0.53-0.53
					c-3.047-2.774-7.47-3.253-11.227-1.765c-2.311,0.915-4.619,1.673-7.127,1.809c-2.328,0.126-4.322-0.51-6.422-1.439
					c-1.529-0.677-3.081-1.302-4.776-1.351c-1.898-0.054-3.59,0.641-5.255,1.473c-2.032,1.016-3.962,1.713-6.274,1.73
					c-2.225,0.017-4.842-0.456-6.444-2.134C258.629,174.71,258.1,175.241,258.433,175.591L258.433,175.591z"/>
			</g>
		</g>
		<g>
			<g>
				<path style="fill:#E0E0E0;" d="M258.504,181.866c2.503,2.623,7.169,2.82,10.454,1.88c1.907-0.546,3.537-1.736,5.417-2.342
					c2.183-0.703,4.307-0.309,6.37,0.569c1.661,0.706,3.262,1.505,5.072,1.75c2.166,0.294,4.414-0.043,6.51-0.608
					c2.205-0.594,4.206-1.758,6.517-1.944c2.581-0.208,5.262,0.619,7.186,2.371c0.356,0.324,0.888-0.204,0.53-0.53
					c-3.046-2.774-7.47-3.253-11.227-1.765c-2.311,0.915-4.619,1.673-7.127,1.809c-2.328,0.126-4.322-0.51-6.422-1.439
					c-1.529-0.677-3.081-1.302-4.776-1.351c-1.898-0.054-3.59,0.641-5.255,1.473c-2.032,1.016-3.962,1.713-6.274,1.731
					c-2.225,0.017-4.842-0.456-6.444-2.134C258.7,180.986,258.17,181.517,258.504,181.866L258.504,181.866z"/>
			</g>
		</g>
	</g>
	<g>
		<g>
			<path style="fill:#F5F5F5;" d="M373.355,67.82c-0.534-1.294-1.379-3.147-7.287-3.134c-14.433,0.239-28.866,0.477-43.299,0.716
				c-1.401,0.023-2.865,0.063-4.097,0.786c-2.77,1.626-3.094,5.717-3.071,9.131c0.1,14.438,0.199,28.875,0.299,43.313
				c0.008,1.111,0.032,2.288,0.581,3.228c0.918,1.571,2.883,1.866,4.595,1.995c15.896,1.197,31.847,1.554,47.775,1.07
				c1.509-0.046,3.266-0.245,4.069-1.63c0.453-0.781,0.476-1.757,0.484-2.679c0.155-16.205,0.311-32.411,0.466-48.616
				C373.885,70.582,373.889,69.114,373.355,67.82z"/>
		</g>
		<g>
			<g>
				<path style="fill:#F0F0F0;" d="M321.254,75.983c2.503,2.623,7.169,2.821,10.454,1.88c1.907-0.546,3.537-1.736,5.417-2.342
					c2.183-0.703,4.307-0.309,6.37,0.569c1.66,0.706,3.262,1.505,5.072,1.75c2.166,0.294,4.414-0.043,6.509-0.608
					c2.205-0.594,4.207-1.758,6.517-1.944c2.581-0.208,5.262,0.619,7.186,2.371c0.356,0.324,0.888-0.204,0.53-0.53
					c-3.046-2.774-7.47-3.253-11.227-1.765c-2.311,0.915-4.619,1.673-7.127,1.808c-2.328,0.126-4.322-0.51-6.422-1.439
					c-1.529-0.677-3.081-1.302-4.776-1.351c-1.898-0.054-3.59,0.641-5.255,1.473c-2.032,1.016-3.962,1.713-6.274,1.73
					c-2.225,0.017-4.842-0.455-6.444-2.134C321.45,75.103,320.921,75.634,321.254,75.983L321.254,75.983z"/>
			</g>
		</g>
		<g>
			<g>
				<path style="fill:#F0F0F0;" d="M321.254,82.259c2.503,2.623,7.169,2.821,10.454,1.88c1.907-0.546,3.537-1.736,5.417-2.342
					c2.183-0.703,4.307-0.309,6.37,0.569c1.66,0.706,3.262,1.505,5.072,1.75c2.166,0.294,4.414-0.043,6.509-0.608
					c2.205-0.594,4.207-1.758,6.517-1.944c2.581-0.208,5.262,0.619,7.186,2.371c0.356,0.324,0.888-0.204,0.53-0.53
					c-3.046-2.774-7.47-3.253-11.227-1.765c-2.311,0.915-4.619,1.673-7.127,1.809c-2.328,0.126-4.322-0.51-6.422-1.439
					c-1.529-0.677-3.081-1.302-4.776-1.351c-1.898-0.054-3.59,0.641-5.255,1.473c-2.032,1.016-3.962,1.713-6.274,1.73
					c-2.225,0.017-4.842-0.455-6.444-2.134C321.45,81.379,320.921,81.909,321.254,82.259L321.254,82.259z"/>
			</g>
		</g>
		<g>
			<g>
				<path style="fill:#F0F0F0;" d="M321.254,88.534c2.503,2.623,7.169,2.82,10.454,1.88c1.907-0.546,3.537-1.736,5.417-2.342
					c2.183-0.703,4.307-0.309,6.37,0.569c1.66,0.706,3.262,1.505,5.072,1.75c2.166,0.294,4.414-0.043,6.509-0.608
					c2.205-0.594,4.207-1.758,6.517-1.944c2.581-0.208,5.262,0.619,7.186,2.371c0.356,0.324,0.888-0.204,0.53-0.53
					c-3.046-2.774-7.47-3.253-11.227-1.765c-2.311,0.915-4.619,1.673-7.127,1.809c-2.328,0.126-4.322-0.51-6.422-1.439
					c-1.529-0.677-3.081-1.302-4.776-1.351c-1.898-0.054-3.59,0.641-5.255,1.473c-2.032,1.016-3.962,1.713-6.274,1.731
					c-2.225,0.017-4.842-0.456-6.444-2.134C321.45,87.654,320.921,88.185,321.254,88.534L321.254,88.534z"/>
			</g>
		</g>
		<g>
			<g>
				<path style="fill:#F0F0F0;" d="M321.254,94.81c2.503,2.623,7.169,2.821,10.454,1.88c1.907-0.546,3.537-1.736,5.417-2.342
					c2.183-0.703,4.307-0.309,6.37,0.569c1.66,0.706,3.262,1.505,5.072,1.75c2.166,0.294,4.414-0.043,6.509-0.608
					c2.205-0.594,4.207-1.758,6.517-1.944c2.581-0.208,5.262,0.619,7.186,2.371c0.356,0.324,0.888-0.205,0.53-0.53
					c-3.046-2.774-7.47-3.253-11.227-1.765c-2.311,0.915-4.619,1.673-7.127,1.808c-2.328,0.126-4.322-0.51-6.422-1.439
					c-1.529-0.677-3.081-1.302-4.776-1.351c-1.898-0.054-3.59,0.641-5.255,1.473c-2.032,1.016-3.962,1.713-6.274,1.731
					c-2.225,0.017-4.842-0.456-6.444-2.134C321.45,93.93,320.921,94.461,321.254,94.81L321.254,94.81z"/>
			</g>
		</g>
		<g>
			<g>
				<path style="fill:#F0F0F0;" d="M321.254,101.085c2.503,2.623,7.169,2.82,10.454,1.88c1.907-0.546,3.537-1.736,5.417-2.342
					c2.183-0.703,4.307-0.309,6.37,0.569c1.66,0.706,3.262,1.505,5.072,1.75c2.166,0.294,4.414-0.043,6.509-0.608
					c2.205-0.594,4.207-1.758,6.517-1.944c2.581-0.208,5.262,0.619,7.186,2.371c0.356,0.324,0.888-0.204,0.53-0.53
					c-3.046-2.774-7.47-3.253-11.227-1.765c-2.311,0.915-4.619,1.673-7.127,1.809c-2.328,0.126-4.322-0.51-6.422-1.439
					c-1.529-0.677-3.081-1.302-4.776-1.351c-1.898-0.054-3.59,0.641-5.255,1.473c-2.032,1.016-3.962,1.713-6.274,1.73
					c-2.225,0.017-4.842-0.455-6.444-2.134C321.45,100.205,320.921,100.736,321.254,101.085L321.254,101.085z"/>
			</g>
		</g>
		<g>
			<g>
				<path style="fill:#F0F0F0;" d="M321.254,107.361c2.503,2.623,7.169,2.82,10.454,1.88c1.907-0.546,3.537-1.736,5.417-2.342
					c2.183-0.703,4.307-0.309,6.37,0.569c1.66,0.706,3.262,1.505,5.072,1.75c2.166,0.294,4.414-0.043,6.509-0.608
					c2.205-0.594,4.207-1.758,6.517-1.944c2.581-0.208,5.262,0.619,7.186,2.371c0.356,0.324,0.888-0.205,0.53-0.53
					c-3.046-2.774-7.47-3.253-11.227-1.765c-2.311,0.915-4.619,1.673-7.127,1.808c-2.328,0.126-4.322-0.51-6.422-1.439
					c-1.529-0.677-3.081-1.302-4.776-1.351c-1.898-0.054-3.59,0.641-5.255,1.473c-2.032,1.016-3.962,1.713-6.274,1.731
					c-2.225,0.017-4.842-0.456-6.444-2.134C321.45,106.481,320.921,107.012,321.254,107.361L321.254,107.361z"/>
			</g>
		</g>
		<g>
			<g>
				<path style="fill:#F0F0F0;" d="M321.325,113.636c2.503,2.623,7.169,2.821,10.454,1.88c1.907-0.546,3.537-1.736,5.417-2.342
					c2.183-0.703,4.307-0.309,6.37,0.569c1.66,0.706,3.262,1.505,5.071,1.75c2.166,0.294,4.414-0.043,6.51-0.608
					c2.205-0.594,4.206-1.758,6.517-1.944c2.581-0.208,5.262,0.619,7.186,2.371c0.356,0.324,0.888-0.205,0.53-0.53
					c-3.047-2.774-7.47-3.253-11.227-1.765c-2.311,0.915-4.619,1.673-7.127,1.809c-2.328,0.126-4.322-0.51-6.422-1.439
					c-1.529-0.677-3.081-1.302-4.776-1.351c-1.898-0.054-3.59,0.641-5.255,1.473c-2.032,1.016-3.962,1.713-6.274,1.731
					c-2.225,0.017-4.842-0.456-6.444-2.134C321.521,112.756,320.991,113.287,321.325,113.636L321.325,113.636z"/>
			</g>
		</g>
	</g>
	<g>
		<g>
			<path style="fill:#F5F5F5;" d="M438.183,133.117c-0.534-1.294-1.379-3.147-7.287-3.133c-14.433,0.239-28.866,0.477-43.299,0.716
				c-1.401,0.023-2.865,0.063-4.097,0.786c-2.77,1.626-3.094,5.717-3.071,9.131c0.099,14.438,0.199,28.875,0.299,43.313
				c0.008,1.111,0.032,2.289,0.581,3.228c0.918,1.571,2.883,1.866,4.595,1.995c15.896,1.197,31.847,1.554,47.775,1.07
				c1.509-0.046,3.266-0.245,4.069-1.63c0.453-0.781,0.476-1.757,0.484-2.679c0.155-16.205,0.311-32.411,0.466-48.616
				C438.713,135.88,438.717,134.411,438.183,133.117z"/>
		</g>
		<g>
			<g>
				<path style="fill:#F0F0F0;" d="M386.082,141.281c2.503,2.623,7.169,2.82,10.454,1.88c1.907-0.546,3.537-1.736,5.417-2.342
					c2.183-0.703,4.307-0.309,6.37,0.569c1.66,0.706,3.262,1.505,5.072,1.75c2.166,0.294,4.414-0.043,6.51-0.608
					c2.205-0.594,4.206-1.758,6.517-1.944c2.581-0.208,5.262,0.619,7.186,2.371c0.356,0.324,0.888-0.204,0.53-0.53
					c-3.047-2.774-7.47-3.253-11.227-1.765c-2.311,0.915-4.619,1.673-7.127,1.809c-2.328,0.126-4.322-0.51-6.422-1.439
					c-1.529-0.677-3.081-1.302-4.776-1.351c-1.898-0.054-3.59,0.641-5.255,1.473c-2.032,1.016-3.962,1.713-6.274,1.731
					c-2.225,0.017-4.842-0.456-6.444-2.134C386.278,140.401,385.748,140.932,386.082,141.281L386.082,141.281z"/>
			</g>
		</g>
		<g>
			<g>
				<path style="fill:#F0F0F0;" d="M386.082,147.556c2.503,2.623,7.169,2.82,10.454,1.88c1.907-0.546,3.537-1.736,5.417-2.342
					c2.183-0.703,4.307-0.309,6.37,0.569c1.66,0.706,3.262,1.505,5.072,1.75c2.166,0.294,4.414-0.043,6.51-0.608
					c2.205-0.594,4.206-1.758,6.517-1.944c2.581-0.208,5.262,0.619,7.186,2.371c0.356,0.324,0.888-0.205,0.53-0.53
					c-3.047-2.774-7.47-3.253-11.227-1.765c-2.311,0.915-4.619,1.673-7.127,1.809c-2.328,0.126-4.322-0.51-6.422-1.439
					c-1.529-0.677-3.081-1.302-4.776-1.351c-1.898-0.054-3.59,0.641-5.255,1.473c-2.032,1.016-3.962,1.713-6.274,1.731
					c-2.225,0.017-4.842-0.455-6.444-2.134C386.278,146.676,385.748,147.207,386.082,147.556L386.082,147.556z"/>
			</g>
		</g>
		<g>
			<g>
				<path style="fill:#F0F0F0;" d="M386.082,153.832c2.503,2.623,7.169,2.82,10.454,1.88c1.907-0.546,3.537-1.736,5.417-2.342
					c2.183-0.703,4.307-0.309,6.37,0.569c1.66,0.706,3.262,1.505,5.072,1.75c2.166,0.294,4.414-0.043,6.51-0.608
					c2.205-0.594,4.206-1.758,6.517-1.944c2.581-0.208,5.262,0.619,7.186,2.371c0.356,0.324,0.888-0.204,0.53-0.53
					c-3.047-2.774-7.47-3.253-11.227-1.765c-2.311,0.915-4.619,1.673-7.127,1.808c-2.328,0.126-4.322-0.51-6.422-1.439
					c-1.529-0.677-3.081-1.302-4.776-1.351c-1.898-0.054-3.59,0.641-5.255,1.473c-2.032,1.016-3.962,1.713-6.274,1.73
					c-2.225,0.017-4.842-0.456-6.444-2.134C386.278,152.952,385.748,153.482,386.082,153.832L386.082,153.832z"/>
			</g>
		</g>
		<g>
			<g>
				<path style="fill:#F0F0F0;" d="M386.082,160.107c2.503,2.623,7.169,2.82,10.454,1.88c1.907-0.546,3.537-1.736,5.417-2.342
					c2.183-0.703,4.307-0.309,6.37,0.569c1.66,0.706,3.262,1.505,5.072,1.75c2.166,0.294,4.414-0.043,6.51-0.608
					c2.205-0.594,4.206-1.758,6.517-1.944c2.581-0.208,5.262,0.619,7.186,2.371c0.356,0.324,0.888-0.204,0.53-0.53
					c-3.047-2.774-7.47-3.253-11.227-1.765c-2.311,0.915-4.619,1.673-7.127,1.809c-2.328,0.126-4.322-0.51-6.422-1.439
					c-1.529-0.677-3.081-1.302-4.776-1.351c-1.898-0.054-3.59,0.641-5.255,1.473c-2.032,1.016-3.962,1.713-6.274,1.73
					c-2.225,0.017-4.842-0.456-6.444-2.134C386.278,159.227,385.748,159.758,386.082,160.107L386.082,160.107z"/>
			</g>
		</g>
		<g>
			<g>
				<path style="fill:#F0F0F0;" d="M386.082,166.383c2.503,2.623,7.169,2.82,10.454,1.88c1.907-0.546,3.537-1.736,5.417-2.342
					c2.183-0.703,4.307-0.309,6.37,0.569c1.66,0.706,3.262,1.505,5.072,1.75c2.166,0.294,4.414-0.043,6.51-0.608
					c2.205-0.594,4.206-1.758,6.517-1.944c2.581-0.208,5.262,0.619,7.186,2.371c0.356,0.324,0.888-0.204,0.53-0.53
					c-3.047-2.774-7.47-3.253-11.227-1.765c-2.311,0.915-4.619,1.673-7.127,1.809c-2.328,0.126-4.322-0.51-6.422-1.439
					c-1.529-0.677-3.081-1.302-4.776-1.351c-1.898-0.054-3.59,0.641-5.255,1.473c-2.032,1.016-3.962,1.713-6.274,1.731
					c-2.225,0.017-4.842-0.455-6.444-2.134C386.278,165.503,385.748,166.034,386.082,166.383L386.082,166.383z"/>
			</g>
		</g>
		<g>
			<g>
				<path style="fill:#F0F0F0;" d="M386.082,172.658c2.503,2.623,7.169,2.82,10.454,1.88c1.907-0.546,3.537-1.736,5.417-2.342
					c2.183-0.703,4.307-0.309,6.37,0.569c1.66,0.706,3.262,1.505,5.072,1.75c2.166,0.294,4.414-0.043,6.51-0.608
					c2.205-0.594,4.206-1.758,6.517-1.944c2.581-0.208,5.262,0.619,7.186,2.371c0.356,0.324,0.888-0.204,0.53-0.53
					c-3.047-2.774-7.47-3.253-11.227-1.765c-2.311,0.915-4.619,1.673-7.127,1.809c-2.328,0.126-4.322-0.51-6.422-1.439
					c-1.529-0.677-3.081-1.302-4.776-1.351c-1.898-0.054-3.59,0.641-5.255,1.473c-2.032,1.016-3.962,1.713-6.274,1.73
					c-2.225,0.017-4.842-0.456-6.444-2.134C386.278,171.778,385.748,172.309,386.082,172.658L386.082,172.658z"/>
			</g>
		</g>
		<g>
			<g>
				<path style="fill:#F0F0F0;" d="M386.152,178.934c2.503,2.623,7.169,2.82,10.454,1.88c1.907-0.546,3.537-1.736,5.417-2.342
					c2.183-0.703,4.307-0.309,6.37,0.569c1.66,0.706,3.262,1.505,5.072,1.75c2.166,0.294,4.414-0.043,6.51-0.608
					c2.205-0.594,4.207-1.758,6.517-1.944c2.581-0.208,5.262,0.619,7.186,2.371c0.356,0.324,0.888-0.204,0.53-0.53
					c-3.047-2.774-7.47-3.253-11.227-1.765c-2.311,0.915-4.619,1.673-7.127,1.809c-2.328,0.126-4.322-0.51-6.422-1.439
					c-1.529-0.677-3.081-1.302-4.776-1.351c-1.898-0.054-3.59,0.641-5.255,1.473c-2.032,1.016-3.962,1.713-6.274,1.73
					c-2.225,0.017-4.842-0.456-6.444-2.134C386.349,178.054,385.819,178.585,386.152,178.934L386.152,178.934z"/>
			</g>
		</g>
	</g>
	<g>
		<g>
			<path style="fill:#F5F5F5;" d="M376.326,202.979c-0.534-1.294-1.379-3.147-7.287-3.133c-14.433,0.239-28.866,0.477-43.299,0.716
				c-1.401,0.023-2.865,0.063-4.097,0.786c-2.77,1.626-3.094,5.717-3.071,9.131c0.1,14.438,0.199,28.875,0.299,43.313
				c0.008,1.111,0.032,2.288,0.581,3.228c0.918,1.571,2.883,1.866,4.595,1.995c15.897,1.197,31.847,1.555,47.775,1.07
				c1.509-0.046,3.266-0.245,4.069-1.63c0.453-0.781,0.476-1.757,0.484-2.679c0.155-16.205,0.311-32.411,0.466-48.616
				C376.856,205.742,376.86,204.273,376.326,202.979z"/>
		</g>
		<g>
			<g>
				<path style="fill:#F0F0F0;" d="M324.225,211.143c2.503,2.623,7.169,2.82,10.454,1.88c1.907-0.546,3.537-1.736,5.417-2.342
					c2.183-0.703,4.307-0.309,6.37,0.569c1.66,0.706,3.262,1.505,5.072,1.75c2.166,0.294,4.414-0.043,6.509-0.608
					c2.205-0.594,4.207-1.758,6.517-1.944c2.581-0.208,5.262,0.619,7.186,2.371c0.356,0.324,0.888-0.204,0.53-0.53
					c-3.047-2.774-7.47-3.253-11.227-1.765c-2.311,0.915-4.619,1.673-7.127,1.809c-2.328,0.126-4.322-0.51-6.422-1.439
					c-1.529-0.677-3.081-1.302-4.776-1.351c-1.898-0.054-3.59,0.641-5.255,1.473c-2.032,1.016-3.962,1.713-6.274,1.73
					c-2.225,0.017-4.842-0.456-6.444-2.134C324.421,210.262,323.891,210.793,324.225,211.143L324.225,211.143z"/>
			</g>
		</g>
		<g>
			<g>
				<path style="fill:#F0F0F0;" d="M324.225,217.418c2.503,2.623,7.169,2.82,10.454,1.88c1.907-0.546,3.537-1.736,5.417-2.342
					c2.183-0.703,4.307-0.309,6.37,0.569c1.66,0.706,3.262,1.505,5.072,1.75c2.166,0.294,4.414-0.043,6.509-0.608
					c2.205-0.594,4.207-1.758,6.517-1.944c2.581-0.208,5.262,0.619,7.186,2.371c0.356,0.324,0.888-0.204,0.53-0.53
					c-3.047-2.774-7.47-3.253-11.227-1.765c-2.311,0.915-4.619,1.673-7.127,1.809c-2.328,0.126-4.322-0.51-6.422-1.439
					c-1.529-0.677-3.081-1.302-4.776-1.351c-1.898-0.054-3.59,0.641-5.255,1.473c-2.032,1.016-3.962,1.713-6.274,1.731
					c-2.225,0.017-4.842-0.456-6.444-2.134C324.421,216.538,323.891,217.069,324.225,217.418L324.225,217.418z"/>
			</g>
		</g>
		<g>
			<g>
				<path style="fill:#F0F0F0;" d="M324.225,223.693c2.503,2.623,7.169,2.821,10.454,1.88c1.907-0.546,3.537-1.736,5.417-2.342
					c2.183-0.703,4.307-0.309,6.37,0.569c1.66,0.706,3.262,1.505,5.072,1.75c2.166,0.294,4.414-0.043,6.509-0.608
					c2.205-0.594,4.207-1.758,6.517-1.944c2.581-0.208,5.262,0.619,7.186,2.371c0.356,0.324,0.888-0.204,0.53-0.53
					c-3.047-2.774-7.47-3.253-11.227-1.765c-2.311,0.915-4.619,1.673-7.127,1.808c-2.328,0.126-4.322-0.51-6.422-1.439
					c-1.529-0.677-3.081-1.302-4.776-1.35c-1.898-0.054-3.59,0.641-5.255,1.473c-2.032,1.016-3.962,1.713-6.274,1.731
					c-2.225,0.017-4.842-0.456-6.444-2.134C324.421,222.813,323.891,223.344,324.225,223.693L324.225,223.693z"/>
			</g>
		</g>
		<g>
			<g>
				<path style="fill:#F0F0F0;" d="M324.225,229.969c2.503,2.623,7.169,2.82,10.454,1.88c1.907-0.546,3.537-1.736,5.417-2.342
					c2.183-0.703,4.307-0.309,6.37,0.569c1.66,0.706,3.262,1.505,5.072,1.75c2.166,0.294,4.414-0.043,6.509-0.608
					c2.205-0.594,4.207-1.758,6.517-1.944c2.581-0.208,5.262,0.619,7.186,2.371c0.356,0.324,0.888-0.204,0.53-0.53
					c-3.047-2.774-7.47-3.253-11.227-1.765c-2.311,0.915-4.619,1.673-7.127,1.809c-2.328,0.126-4.322-0.51-6.422-1.439
					c-1.529-0.677-3.081-1.302-4.776-1.351c-1.898-0.054-3.59,0.641-5.255,1.473c-2.032,1.016-3.962,1.713-6.274,1.73
					c-2.225,0.017-4.842-0.456-6.444-2.134C324.421,229.089,323.891,229.62,324.225,229.969L324.225,229.969z"/>
			</g>
		</g>
		<g>
			<g>
				<path style="fill:#F0F0F0;" d="M324.225,236.245c2.503,2.623,7.169,2.82,10.454,1.88c1.907-0.546,3.537-1.736,5.417-2.342
					c2.183-0.703,4.307-0.309,6.37,0.569c1.66,0.706,3.262,1.505,5.072,1.75c2.166,0.294,4.414-0.043,6.509-0.608
					c2.205-0.594,4.207-1.758,6.517-1.944c2.581-0.208,5.262,0.619,7.186,2.371c0.356,0.324,0.888-0.204,0.53-0.53
					c-3.047-2.774-7.47-3.253-11.227-1.765c-2.311,0.915-4.619,1.673-7.127,1.809c-2.328,0.126-4.322-0.51-6.422-1.439
					c-1.529-0.677-3.081-1.302-4.776-1.351c-1.898-0.054-3.59,0.641-5.255,1.473c-2.032,1.016-3.962,1.713-6.274,1.731
					c-2.225,0.017-4.842-0.456-6.444-2.134C324.421,235.364,323.891,235.895,324.225,236.245L324.225,236.245z"/>
			</g>
		</g>
		<g>
			<g>
				<path style="fill:#F0F0F0;" d="M324.225,242.52c2.503,2.623,7.169,2.821,10.454,1.88c1.907-0.546,3.537-1.736,5.417-2.342
					c2.183-0.703,4.307-0.309,6.37,0.569c1.66,0.706,3.262,1.505,5.072,1.75c2.166,0.294,4.414-0.043,6.509-0.608
					c2.205-0.594,4.207-1.758,6.517-1.944c2.581-0.208,5.262,0.619,7.186,2.371c0.356,0.324,0.888-0.205,0.53-0.53
					c-3.047-2.774-7.47-3.253-11.227-1.765c-2.311,0.915-4.619,1.673-7.127,1.808c-2.328,0.126-4.322-0.51-6.422-1.439
					c-1.529-0.677-3.081-1.302-4.776-1.35c-1.898-0.054-3.59,0.641-5.255,1.473c-2.032,1.016-3.962,1.713-6.274,1.731
					c-2.225,0.017-4.842-0.456-6.444-2.134C324.421,241.64,323.891,242.171,324.225,242.52L324.225,242.52z"/>
			</g>
		</g>
		<g>
			<g>
				<path style="fill:#F0F0F0;" d="M324.295,248.796c2.503,2.623,7.169,2.821,10.454,1.88c1.907-0.546,3.537-1.736,5.417-2.342
					c2.183-0.703,4.307-0.309,6.37,0.569c1.66,0.706,3.262,1.505,5.072,1.75c2.166,0.294,4.413-0.043,6.509-0.608
					c2.205-0.594,4.207-1.758,6.517-1.944c2.581-0.208,5.262,0.619,7.186,2.371c0.356,0.324,0.888-0.204,0.53-0.53
					c-3.047-2.774-7.47-3.253-11.227-1.765c-2.311,0.915-4.619,1.673-7.127,1.809c-2.328,0.126-4.322-0.51-6.422-1.439
					c-1.529-0.677-3.081-1.302-4.776-1.35c-1.898-0.054-3.59,0.641-5.255,1.473c-2.032,1.016-3.962,1.713-6.274,1.73
					c-2.225,0.017-4.842-0.455-6.444-2.134C324.492,247.915,323.962,248.446,324.295,248.796L324.295,248.796z"/>
			</g>
		</g>
	</g>
	<g>
		<g>
			<path style="fill:#EBEBEB;" d="M181.764,73.022c-0.514-1.246-1.328-3.031-7.017-3.018c-13.899,0.23-27.799,0.46-41.698,0.69
				c-1.349,0.022-2.759,0.061-3.946,0.757c-2.668,1.566-2.98,5.506-2.957,8.793c0.096,13.904,0.192,27.807,0.288,41.711
				c0.007,1.07,0.031,2.204,0.559,3.108c0.884,1.513,2.776,1.797,4.425,1.921c15.309,1.153,30.669,1.497,46.009,1.031
				c1.453-0.044,3.145-0.236,3.919-1.57c0.436-0.752,0.458-1.692,0.467-2.58c0.15-15.606,0.299-31.213,0.449-46.819
				C182.274,75.683,182.278,74.269,181.764,73.022z"/>
		</g>
		<g>
			<g>
				<path style="fill:#E0E0E0;" d="M131.579,80.894c2.423,2.523,6.911,2.722,10.081,1.814c1.803-0.516,3.345-1.63,5.115-2.221
					c2.216-0.741,4.301-0.318,6.385,0.582c1.576,0.681,3.102,1.415,4.828,1.631c2.059,0.257,4.186-0.063,6.177-0.599
					c2.197-0.592,4.18-1.757,6.494-1.887c2.413-0.135,4.893,0.659,6.689,2.295c0.356,0.324,0.888-0.204,0.53-0.53
					c-2.928-2.667-7.184-3.137-10.802-1.713c-2.1,0.826-4.171,1.529-6.439,1.719c-2.342,0.197-4.319-0.333-6.437-1.27
					c-1.534-0.679-3.071-1.333-4.776-1.385c-1.783-0.054-3.389,0.576-4.959,1.357c-1.992,0.991-3.895,1.714-6.16,1.727
					c-2.151,0.013-4.646-0.437-6.196-2.051C131.775,80.015,131.245,80.546,131.579,80.894L131.579,80.894z"/>
			</g>
		</g>
		<g>
			<g>
				<path style="fill:#E0E0E0;" d="M131.579,86.937c2.423,2.523,6.911,2.722,10.081,1.814c1.803-0.516,3.345-1.63,5.115-2.221
					c2.216-0.741,4.301-0.318,6.385,0.582c1.576,0.681,3.102,1.416,4.828,1.631c2.059,0.257,4.186-0.063,6.177-0.599
					c2.197-0.592,4.18-1.757,6.494-1.887c2.413-0.135,4.893,0.659,6.689,2.295c0.356,0.324,0.888-0.204,0.53-0.53
					c-2.928-2.667-7.184-3.137-10.802-1.713c-2.1,0.826-4.171,1.529-6.439,1.719c-2.342,0.197-4.319-0.333-6.437-1.27
					c-1.534-0.679-3.071-1.333-4.776-1.385c-1.783-0.054-3.389,0.576-4.959,1.358c-1.992,0.991-3.895,1.714-6.16,1.727
					c-2.151,0.013-4.646-0.437-6.196-2.051C131.775,86.058,131.245,86.589,131.579,86.937L131.579,86.937z"/>
			</g>
		</g>
		<g>
			<g>
				<path style="fill:#E0E0E0;" d="M131.579,92.981c2.423,2.524,6.911,2.722,10.081,1.814c1.803-0.516,3.345-1.63,5.115-2.221
					c2.216-0.741,4.301-0.318,6.385,0.582c1.576,0.681,3.102,1.415,4.828,1.631c2.059,0.257,4.186-0.063,6.177-0.599
					c2.197-0.592,4.18-1.757,6.494-1.887c2.413-0.135,4.893,0.659,6.689,2.295c0.356,0.324,0.888-0.205,0.53-0.53
					c-2.928-2.667-7.184-3.137-10.802-1.713c-2.1,0.826-4.171,1.529-6.439,1.719c-2.342,0.196-4.319-0.333-6.437-1.27
					c-1.534-0.679-3.071-1.333-4.776-1.385c-1.783-0.054-3.389,0.576-4.959,1.357c-1.992,0.991-3.895,1.714-6.16,1.727
					c-2.151,0.013-4.646-0.437-6.196-2.051C131.775,92.102,131.245,92.632,131.579,92.981L131.579,92.981z"/>
			</g>
		</g>
		<g>
			<g>
				<path style="fill:#E0E0E0;" d="M131.579,99.024c2.423,2.523,6.911,2.722,10.081,1.814c1.803-0.516,3.345-1.63,5.115-2.221
					c2.216-0.741,4.301-0.318,6.385,0.582c1.576,0.681,3.102,1.416,4.828,1.631c2.059,0.257,4.186-0.063,6.177-0.599
					c2.197-0.592,4.18-1.757,6.494-1.887c2.413-0.135,4.893,0.659,6.689,2.295c0.356,0.324,0.888-0.205,0.53-0.53
					c-2.928-2.667-7.184-3.137-10.802-1.713c-2.1,0.826-4.171,1.529-6.439,1.719c-2.342,0.197-4.319-0.333-6.437-1.27
					c-1.534-0.679-3.071-1.333-4.776-1.385c-1.783-0.054-3.389,0.576-4.959,1.357c-1.992,0.991-3.895,1.714-6.16,1.727
					c-2.151,0.013-4.646-0.437-6.196-2.051C131.775,98.145,131.245,98.676,131.579,99.024L131.579,99.024z"/>
			</g>
		</g>
		<g>
			<g>
				<path style="fill:#E0E0E0;" d="M131.579,105.068c2.423,2.523,6.911,2.722,10.081,1.814c1.803-0.516,3.345-1.63,5.115-2.221
					c2.216-0.741,4.301-0.318,6.385,0.582c1.576,0.681,3.102,1.416,4.828,1.631c2.059,0.257,4.186-0.063,6.177-0.599
					c2.197-0.592,4.18-1.757,6.494-1.887c2.413-0.135,4.893,0.659,6.689,2.295c0.356,0.324,0.888-0.205,0.53-0.53
					c-2.928-2.667-7.184-3.137-10.802-1.713c-2.1,0.826-4.171,1.529-6.439,1.719c-2.342,0.197-4.319-0.333-6.437-1.27
					c-1.534-0.679-3.071-1.333-4.776-1.385c-1.783-0.054-3.389,0.576-4.959,1.357c-1.992,0.991-3.895,1.714-6.16,1.727
					c-2.151,0.013-4.646-0.437-6.196-2.051C131.775,104.189,131.245,104.719,131.579,105.068L131.579,105.068z"/>
			</g>
		</g>
		<g>
			<g>
				<path style="fill:#E0E0E0;" d="M131.579,111.111c2.423,2.523,6.911,2.722,10.081,1.814c1.803-0.516,3.345-1.63,5.115-2.221
					c2.216-0.741,4.301-0.318,6.385,0.582c1.576,0.681,3.102,1.416,4.828,1.631c2.059,0.257,4.186-0.063,6.177-0.599
					c2.197-0.592,4.18-1.757,6.494-1.887c2.413-0.135,4.893,0.659,6.689,2.295c0.356,0.324,0.888-0.204,0.53-0.53
					c-2.928-2.667-7.184-3.137-10.802-1.713c-2.1,0.826-4.171,1.529-6.439,1.719c-2.342,0.196-4.319-0.333-6.437-1.27
					c-1.534-0.679-3.071-1.333-4.776-1.385c-1.783-0.054-3.389,0.576-4.959,1.357c-1.992,0.991-3.895,1.714-6.16,1.727
					c-2.151,0.013-4.646-0.437-6.196-2.051C131.775,110.232,131.245,110.763,131.579,111.111L131.579,111.111z"/>
			</g>
		</g>
		<g>
			<g>
				<path style="fill:#E0E0E0;" d="M131.647,117.155c2.423,2.523,6.911,2.722,10.081,1.814c1.803-0.516,3.345-1.63,5.115-2.221
					c2.216-0.741,4.301-0.318,6.385,0.582c1.576,0.681,3.102,1.416,4.828,1.631c2.059,0.257,4.186-0.063,6.176-0.599
					c2.197-0.592,4.18-1.757,6.494-1.887c2.413-0.135,4.893,0.659,6.689,2.295c0.356,0.324,0.888-0.204,0.53-0.53
					c-2.928-2.667-7.184-3.137-10.802-1.713c-2.1,0.826-4.171,1.529-6.439,1.719c-2.342,0.197-4.319-0.333-6.437-1.27
					c-1.534-0.679-3.071-1.333-4.776-1.385c-1.783-0.054-3.389,0.576-4.959,1.357c-1.992,0.991-3.895,1.714-6.16,1.727
					c-2.151,0.013-4.646-0.437-6.196-2.051C131.843,116.276,131.313,116.806,131.647,117.155L131.647,117.155z"/>
			</g>
		</g>
	</g>
	<g>
		<g>
			<rect x="252.882" y="196.752" style="fill:#E6E6E6;" width="60.759" height="60.759"/>
		</g>
		<polygon style="opacity:0.3;fill:#FFFFFF;" points="256.71,256.307 311.855,209.189 311.855,214.828 263.466,256.174 		"/>
	</g>
	<g>
		<g>
			<path style="fill:#EBEBEB;" d="M117.429,135.774c-0.534-1.294-1.379-3.147-7.287-3.133c-14.433,0.239-28.866,0.477-43.299,0.716
				c-1.401,0.023-2.865,0.063-4.097,0.786c-2.77,1.626-3.094,5.717-3.071,9.131c0.1,14.437,0.199,28.875,0.299,43.312
				c0.008,1.111,0.032,2.289,0.581,3.228c0.918,1.571,2.883,1.866,4.595,1.995c15.897,1.197,31.847,1.554,47.775,1.07
				c1.509-0.046,3.266-0.245,4.069-1.63c0.453-0.781,0.476-1.757,0.485-2.679c0.155-16.205,0.311-32.411,0.466-48.616
				C117.958,138.537,117.962,137.068,117.429,135.774z"/>
		</g>
		<g>
			<g>
				<path style="fill:#E0E0E0;" d="M65.327,143.938c2.503,2.623,7.169,2.82,10.454,1.88c1.907-0.546,3.537-1.736,5.417-2.342
					c2.183-0.703,4.307-0.309,6.37,0.569c1.66,0.706,3.262,1.505,5.072,1.75c2.166,0.294,4.414-0.043,6.51-0.608
					c2.205-0.594,4.206-1.758,6.517-1.944c2.581-0.208,5.262,0.619,7.187,2.371c0.356,0.324,0.888-0.204,0.53-0.53
					c-3.047-2.774-7.47-3.253-11.227-1.765c-2.311,0.915-4.619,1.673-7.127,1.809c-2.328,0.126-4.322-0.51-6.422-1.439
					c-1.529-0.677-3.081-1.302-4.776-1.351c-1.898-0.054-3.59,0.641-5.255,1.473c-2.032,1.016-3.962,1.713-6.274,1.731
					c-2.225,0.017-4.842-0.455-6.444-2.134C65.524,143.057,64.994,143.588,65.327,143.938L65.327,143.938z"/>
			</g>
		</g>
		<g>
			<g>
				<path style="fill:#E0E0E0;" d="M65.327,150.213c2.503,2.623,7.169,2.82,10.454,1.88c1.907-0.546,3.537-1.736,5.417-2.342
					c2.183-0.703,4.307-0.309,6.37,0.569c1.66,0.706,3.262,1.505,5.072,1.75c2.166,0.294,4.414-0.043,6.51-0.608
					c2.205-0.594,4.206-1.758,6.517-1.944c2.581-0.208,5.262,0.619,7.187,2.371c0.356,0.324,0.888-0.205,0.53-0.53
					c-3.047-2.774-7.47-3.253-11.227-1.765c-2.311,0.915-4.619,1.673-7.127,1.809c-2.328,0.126-4.322-0.51-6.422-1.439
					c-1.529-0.677-3.081-1.302-4.776-1.351c-1.898-0.054-3.59,0.641-5.255,1.473c-2.032,1.016-3.962,1.713-6.274,1.73
					c-2.225,0.017-4.842-0.455-6.444-2.134C65.524,149.333,64.994,149.864,65.327,150.213L65.327,150.213z"/>
			</g>
		</g>
		<g>
			<g>
				<path style="fill:#E0E0E0;" d="M65.327,156.489c2.503,2.623,7.169,2.821,10.454,1.88c1.907-0.546,3.537-1.736,5.417-2.342
					c2.183-0.703,4.307-0.309,6.37,0.569c1.66,0.706,3.262,1.505,5.072,1.75c2.166,0.294,4.414-0.043,6.51-0.608
					c2.205-0.594,4.206-1.758,6.517-1.944c2.581-0.208,5.262,0.619,7.187,2.371c0.356,0.324,0.888-0.204,0.53-0.53
					c-3.047-2.774-7.47-3.253-11.227-1.765c-2.311,0.915-4.619,1.673-7.127,1.809c-2.328,0.126-4.322-0.51-6.422-1.439
					c-1.529-0.677-3.081-1.302-4.776-1.351c-1.898-0.054-3.59,0.641-5.255,1.473c-2.032,1.016-3.962,1.713-6.274,1.73
					c-2.225,0.017-4.842-0.456-6.444-2.134C65.524,155.609,64.994,156.139,65.327,156.489L65.327,156.489z"/>
			</g>
		</g>
		<g>
			<g>
				<path style="fill:#E0E0E0;" d="M65.327,162.764c2.503,2.623,7.169,2.82,10.454,1.88c1.907-0.546,3.537-1.736,5.417-2.342
					c2.183-0.703,4.307-0.309,6.37,0.569c1.66,0.706,3.262,1.505,5.072,1.75c2.166,0.294,4.414-0.043,6.51-0.608
					c2.205-0.594,4.206-1.758,6.517-1.944c2.581-0.208,5.262,0.619,7.187,2.371c0.356,0.324,0.888-0.204,0.53-0.53
					c-3.047-2.774-7.47-3.253-11.227-1.765c-2.311,0.915-4.619,1.673-7.127,1.809c-2.328,0.126-4.322-0.51-6.422-1.439
					c-1.529-0.677-3.081-1.302-4.776-1.351c-1.898-0.054-3.59,0.641-5.255,1.473c-2.032,1.016-3.962,1.713-6.274,1.731
					c-2.225,0.017-4.842-0.456-6.444-2.134C65.524,161.884,64.994,162.415,65.327,162.764L65.327,162.764z"/>
			</g>
		</g>
		<g>
			<g>
				<path style="fill:#E0E0E0;" d="M65.327,169.04c2.503,2.623,7.169,2.82,10.454,1.88c1.907-0.546,3.537-1.736,5.417-2.342
					c2.183-0.703,4.307-0.309,6.37,0.569c1.66,0.706,3.262,1.505,5.072,1.75c2.166,0.294,4.414-0.043,6.51-0.608
					c2.205-0.594,4.206-1.758,6.517-1.944c2.581-0.208,5.262,0.619,7.187,2.371c0.356,0.324,0.888-0.205,0.53-0.53
					c-3.047-2.774-7.47-3.253-11.227-1.765c-2.311,0.915-4.619,1.673-7.127,1.809c-2.328,0.126-4.322-0.51-6.422-1.439
					c-1.529-0.677-3.081-1.302-4.776-1.351c-1.898-0.054-3.59,0.641-5.255,1.473c-2.032,1.016-3.962,1.713-6.274,1.731
					c-2.225,0.017-4.842-0.456-6.444-2.134C65.524,168.16,64.994,168.69,65.327,169.04L65.327,169.04z"/>
			</g>
		</g>
		<g>
			<g>
				<path style="fill:#E0E0E0;" d="M65.327,175.315c2.503,2.623,7.169,2.82,10.454,1.88c1.907-0.546,3.537-1.736,5.417-2.342
					c2.183-0.703,4.307-0.309,6.37,0.569c1.66,0.706,3.262,1.505,5.072,1.75c2.166,0.294,4.414-0.043,6.51-0.608
					c2.205-0.594,4.206-1.758,6.517-1.944c2.581-0.208,5.262,0.619,7.187,2.371c0.356,0.324,0.888-0.204,0.53-0.53
					c-3.047-2.774-7.47-3.253-11.227-1.765c-2.311,0.915-4.619,1.673-7.127,1.809c-2.328,0.126-4.322-0.51-6.422-1.439
					c-1.529-0.677-3.081-1.302-4.776-1.351c-1.898-0.054-3.59,0.641-5.255,1.473c-2.032,1.016-3.962,1.713-6.274,1.73
					c-2.225,0.017-4.842-0.456-6.444-2.134C65.524,174.435,64.994,174.966,65.327,175.315L65.327,175.315z"/>
			</g>
		</g>
		<g>
			<g>
				<path style="fill:#E0E0E0;" d="M65.398,181.591c2.503,2.623,7.169,2.82,10.454,1.88c1.907-0.546,3.537-1.736,5.417-2.342
					c2.183-0.703,4.307-0.309,6.37,0.569c1.66,0.706,3.262,1.505,5.072,1.75c2.166,0.294,4.414-0.043,6.51-0.608
					c2.205-0.594,4.206-1.758,6.517-1.944c2.581-0.208,5.262,0.619,7.187,2.371c0.356,0.324,0.888-0.204,0.53-0.53
					c-3.047-2.774-7.47-3.253-11.227-1.765c-2.311,0.915-4.619,1.673-7.127,1.809c-2.328,0.126-4.322-0.51-6.422-1.439
					c-1.529-0.677-3.081-1.302-4.776-1.351c-1.898-0.054-3.59,0.641-5.255,1.473c-2.032,1.016-3.962,1.713-6.274,1.731
					c-2.225,0.017-4.842-0.456-6.444-2.134C65.594,180.711,65.064,181.242,65.398,181.591L65.398,181.591z"/>
			</g>
		</g>
	</g>
	<g>
		<g>
			<path style="fill:#EBEBEB;" d="M246.831,134.446c-0.534-1.294-1.379-3.147-7.287-3.133c-14.433,0.239-28.866,0.477-43.299,0.716
				c-1.401,0.023-2.865,0.063-4.097,0.786c-2.77,1.626-3.094,5.717-3.071,9.131c0.1,14.438,0.199,28.875,0.299,43.313
				c0.008,1.111,0.032,2.289,0.581,3.228c0.918,1.571,2.883,1.866,4.595,1.995c15.896,1.197,31.847,1.554,47.775,1.07
				c1.509-0.046,3.266-0.245,4.069-1.63c0.453-0.781,0.476-1.757,0.484-2.679c0.155-16.205,0.311-32.411,0.466-48.616
				C247.36,137.208,247.365,135.74,246.831,134.446z"/>
		</g>
		<g>
			<g>
				<path style="fill:#E0E0E0;" d="M194.729,142.609c2.503,2.623,7.169,2.82,10.454,1.88c1.907-0.546,3.537-1.736,5.417-2.342
					c2.183-0.703,4.307-0.309,6.37,0.569c1.66,0.706,3.262,1.505,5.072,1.75c2.166,0.294,4.414-0.043,6.51-0.608
					c2.205-0.594,4.206-1.758,6.517-1.944c2.581-0.208,5.262,0.619,7.187,2.371c0.356,0.324,0.888-0.204,0.53-0.53
					c-3.047-2.774-7.47-3.253-11.227-1.765c-2.311,0.915-4.619,1.673-7.127,1.809c-2.328,0.126-4.322-0.51-6.422-1.439
					c-1.529-0.677-3.081-1.302-4.776-1.351c-1.898-0.054-3.59,0.641-5.255,1.473c-2.032,1.016-3.962,1.713-6.274,1.731
					c-2.225,0.017-4.842-0.456-6.444-2.134C194.926,141.729,194.396,142.26,194.729,142.609L194.729,142.609z"/>
			</g>
		</g>
		<g>
			<g>
				<path style="fill:#E0E0E0;" d="M194.729,148.885c2.503,2.623,7.169,2.82,10.454,1.88c1.907-0.546,3.537-1.736,5.417-2.342
					c2.183-0.703,4.307-0.309,6.37,0.569c1.66,0.706,3.262,1.505,5.072,1.75c2.166,0.294,4.414-0.043,6.51-0.608
					c2.205-0.594,4.206-1.758,6.517-1.944c2.581-0.208,5.262,0.619,7.187,2.371c0.356,0.324,0.888-0.205,0.53-0.53
					c-3.047-2.774-7.47-3.253-11.227-1.765c-2.311,0.915-4.619,1.673-7.127,1.809c-2.328,0.126-4.322-0.51-6.422-1.439
					c-1.529-0.677-3.081-1.302-4.776-1.351c-1.898-0.054-3.59,0.641-5.255,1.473c-2.032,1.016-3.962,1.713-6.274,1.731
					c-2.225,0.017-4.842-0.455-6.444-2.134C194.926,148.005,194.396,148.535,194.729,148.885L194.729,148.885z"/>
			</g>
		</g>
		<g>
			<g>
				<path style="fill:#E0E0E0;" d="M194.729,155.16c2.503,2.623,7.169,2.821,10.454,1.88c1.907-0.546,3.537-1.736,5.417-2.342
					c2.183-0.703,4.307-0.309,6.37,0.569c1.66,0.706,3.262,1.505,5.072,1.75c2.166,0.294,4.414-0.043,6.51-0.608
					c2.205-0.594,4.206-1.758,6.517-1.944c2.581-0.208,5.262,0.619,7.187,2.371c0.356,0.324,0.888-0.204,0.53-0.53
					c-3.047-2.774-7.47-3.253-11.227-1.765c-2.311,0.915-4.619,1.673-7.127,1.809c-2.328,0.126-4.322-0.51-6.422-1.439
					c-1.529-0.677-3.081-1.302-4.776-1.351c-1.898-0.054-3.59,0.641-5.255,1.473c-2.032,1.016-3.962,1.713-6.274,1.73
					c-2.225,0.017-4.842-0.456-6.444-2.134C194.926,154.28,194.396,154.811,194.729,155.16L194.729,155.16z"/>
			</g>
		</g>
		<g>
			<g>
				<path style="fill:#E0E0E0;" d="M194.729,161.436c2.503,2.623,7.169,2.82,10.454,1.88c1.907-0.546,3.537-1.736,5.417-2.342
					c2.183-0.703,4.307-0.309,6.37,0.569c1.66,0.706,3.262,1.505,5.072,1.75c2.166,0.294,4.414-0.043,6.51-0.608
					c2.205-0.594,4.206-1.758,6.517-1.944c2.581-0.208,5.262,0.619,7.187,2.371c0.356,0.324,0.888-0.204,0.53-0.53
					c-3.047-2.774-7.47-3.253-11.227-1.765c-2.311,0.915-4.619,1.673-7.127,1.809c-2.328,0.126-4.322-0.51-6.422-1.439
					c-1.529-0.677-3.081-1.302-4.776-1.351c-1.898-0.054-3.59,0.641-5.255,1.473c-2.032,1.016-3.962,1.713-6.274,1.731
					c-2.225,0.017-4.842-0.456-6.444-2.134C194.926,160.556,194.396,161.087,194.729,161.436L194.729,161.436z"/>
			</g>
		</g>
		<g>
			<g>
				<path style="fill:#E0E0E0;" d="M194.729,167.711c2.503,2.623,7.169,2.82,10.454,1.88c1.907-0.546,3.537-1.736,5.417-2.342
					c2.183-0.703,4.307-0.309,6.37,0.569c1.66,0.706,3.262,1.505,5.072,1.75c2.166,0.294,4.414-0.043,6.51-0.608
					c2.205-0.594,4.206-1.758,6.517-1.944c2.581-0.208,5.262,0.619,7.187,2.371c0.356,0.324,0.888-0.205,0.53-0.53
					c-3.047-2.774-7.47-3.253-11.227-1.765c-2.311,0.915-4.619,1.673-7.127,1.809c-2.328,0.126-4.322-0.51-6.422-1.439
					c-1.529-0.677-3.081-1.302-4.776-1.351c-1.898-0.054-3.59,0.641-5.255,1.473c-2.032,1.016-3.962,1.713-6.274,1.731
					c-2.225,0.017-4.842-0.456-6.444-2.134C194.926,166.831,194.396,167.362,194.729,167.711L194.729,167.711z"/>
			</g>
		</g>
		<g>
			<g>
				<path style="fill:#E0E0E0;" d="M194.729,173.987c2.503,2.623,7.169,2.82,10.454,1.88c1.907-0.546,3.537-1.736,5.417-2.342
					c2.183-0.703,4.307-0.309,6.37,0.569c1.66,0.706,3.262,1.505,5.072,1.75c2.166,0.294,4.414-0.043,6.51-0.608
					c2.205-0.594,4.206-1.758,6.517-1.944c2.581-0.208,5.262,0.619,7.187,2.371c0.356,0.324,0.888-0.204,0.53-0.53
					c-3.047-2.774-7.47-3.253-11.227-1.765c-2.311,0.915-4.619,1.673-7.127,1.809c-2.328,0.126-4.322-0.51-6.422-1.439
					c-1.529-0.677-3.081-1.302-4.776-1.351c-1.898-0.054-3.59,0.641-5.255,1.473c-2.032,1.016-3.962,1.713-6.274,1.73
					c-2.225,0.017-4.842-0.456-6.444-2.134C194.926,173.107,194.396,173.637,194.729,173.987L194.729,173.987z"/>
			</g>
		</g>
		<g>
			<g>
				<path style="fill:#E0E0E0;" d="M194.8,180.262c2.503,2.623,7.169,2.82,10.454,1.88c1.907-0.546,3.537-1.736,5.417-2.342
					c2.183-0.703,4.307-0.309,6.37,0.569c1.661,0.706,3.262,1.505,5.072,1.75c2.166,0.294,4.414-0.043,6.51-0.608
					c2.205-0.594,4.206-1.758,6.517-1.944c2.581-0.208,5.262,0.619,7.186,2.371c0.356,0.324,0.888-0.204,0.53-0.53
					c-3.046-2.774-7.47-3.253-11.227-1.765c-2.311,0.915-4.619,1.673-7.127,1.809c-2.328,0.126-4.322-0.51-6.422-1.439
					c-1.529-0.677-3.081-1.302-4.776-1.351c-1.898-0.054-3.59,0.641-5.255,1.473c-2.032,1.016-3.962,1.713-6.274,1.73
					c-2.225,0.017-4.842-0.456-6.444-2.134C194.996,179.382,194.467,179.913,194.8,180.262L194.8,180.262z"/>
			</g>
		</g>
	</g>
	<g>
		<g>
			<g>
				<path style="fill:#E0E0E0;" d="M410.984,355.428c-0.019-0.584-1.982-58.536-11.409-67.702
					c-9.168-8.913-19.691-0.331-20.133,0.037l-0.945-1.133c0.119-0.101,11.995-9.794,22.107,0.038
					c9.85,9.578,11.777,66.303,11.854,68.714L410.984,355.428z"/>
			</g>
			<g>
				<path style="fill:#E0E0E0;" d="M411.793,366.817c-0.068-0.693-6.442-69.572,18.712-98.441l1.112,0.968
					c-24.737,28.39-18.422,96.643-18.356,97.329L411.793,366.817z"/>
			</g>
			<g>
				<path style="fill:#E0E0E0;" d="M410.863,359.531l-1.472-0.098c0.052-0.781,4.923-78.306-13.528-95.277l0.999-1.086
					C415.829,280.517,411.075,356.313,410.863,359.531z"/>
			</g>
			<g>
				<path style="fill:#E0E0E0;" d="M413.265,359.488l-1.475-0.012c0.018-2.135,0.609-52.365,14.877-60.541
					c3.172-1.82,6.278-2.122,9.232-0.901c8.627,3.569,12.903,18.923,13.081,19.574l-1.423,0.389
					c-0.042-0.153-4.263-15.31-12.223-18.601c-2.509-1.036-5.177-0.762-7.933,0.817C413.86,307.973,413.269,358.974,413.265,359.488
					z"/>
			</g>
			<g>
				<path style="fill:#E0E0E0;" d="M407.708,359.524l-1.472-0.083c0.022-0.396,2.152-39.693-8.453-53.539
					c-2.57-3.354-5.359-4.953-8.306-4.747c-6.949,0.486-12.776,10.654-12.834,10.757l-1.285-0.726
					c0.253-0.447,6.273-10.96,14.014-11.502c3.463-0.246,6.691,1.548,9.583,5.322C409.892,319.284,407.803,357.889,407.708,359.524z
					"/>
			</g>
			<g>
				<path style="fill:#E0E0E0;" d="M410.033,364.869c-0.289-3.812-6.933-93.541,4.758-109.352l1.186,0.876
					c-11.367,15.375-4.542,107.436-4.472,108.364L410.033,364.869z"/>
			</g>
		</g>
		<g>
			<path style="fill:#EBEBEB;" d="M439.077,307.128c0,0-7.013,2.585-4.928,8.689c2.085,6.104,24.262,16.15,24.262,16.15
				s9.288-8.513,0.758-22.358C450.639,295.764,439.267,302.76,439.077,307.128z"/>
		</g>
		<g>
			<path style="fill:#EBEBEB;" d="M408.589,295.509c0,0,7.468-0.313,7.893,6.124c0.424,6.436-16.179,24.243-16.179,24.243
				s-11.849-4.284-9.304-20.345C393.544,289.469,406.733,291.55,408.589,295.509z"/>
		</g>
		<g>
			<path style="fill:#EBEBEB;" d="M402.266,264.7c0,0,4.979-0.535,4.578-3.567c-0.401-3.033-19.355-10.839-30.539,1.783
				c0,0,7.161,12.3,17.512,12.461C404.169,275.538,402.266,264.7,402.266,264.7z"/>
		</g>
		<g>
			<path style="fill:#EBEBEB;" d="M411.544,257.335c0,0-4.508,2.18-5.772-0.606c-1.264-2.786,10.694-19.435,26.861-14.638
				c0,0,0.428,14.226-8.272,19.838C415.662,267.54,411.544,257.335,411.544,257.335z"/>
		</g>
		<g>
			<path style="fill:#EBEBEB;" d="M387.97,304.675c0,0,3.436-2.774-0.272-4.129c-3.709-1.354-21.905-0.969-22.094,17.056
				c0,0,21.193,3.522,23.816-3.344C392.043,307.392,387.97,304.675,387.97,304.675z"/>
		</g>
		<g>
			<path style="fill:#EBEBEB;" d="M431.186,264.248c0,0-3.436-2.775,0.272-4.129c3.708-1.354,21.905-0.97,22.094,17.055
				c0,0-21.193,3.522-23.816-3.344C427.114,266.964,431.186,264.248,431.186,264.248z"/>
		</g>
		<g>
			<path style="fill:#EBEBEB;" d="M419.983,278.768c0,0-0.302-3.373,2.421-2.051c2.723,1.322,12.209,11.556,2.376,21.267
				c0,0-13.236-9.803-10.851-14.908C416.315,277.971,419.983,278.768,419.983,278.768z"/>
		</g>
		<g>
			<path style="fill:#EBEBEB;" d="M384.898,283.574c0,0,2.054-2.692-0.954-3.025c-3.008-0.334-16.491,3.265-13.351,16.724
				c0,0,16.425-1.234,17.129-6.825C388.426,284.856,384.898,283.574,384.898,283.574z"/>
		</g>
		<polygon style="fill:#F0F0F0;" points="427.072,385.487 393.942,385.487 385.13,344.841 435.047,344.841 		"/>
		<rect x="382.125" y="344.252" style="fill:#E6E6E6;" width="55.798" height="11.689"/>
	</g>
</g>
<g id="Background_simple" style="display:none;">
	<g style="display:inline;">
		<g>
			<path style="fill:#407BFF;" d="M464.762,142.883c-3.814-28.862-22.282-71.326-61.508-89.114
				c-32.004-13.717-73.248-15.279-107.578-9.457c-24.354,4.131-49.23,13.903-64.757,33.116s-19.303,49.17-3.833,68.428
				c11.045,13.75,41.675,22.322,55.252,33.579c14.366,11.912,23.364,30.068,24.141,48.715c0.832,19.977-6.958,41.622,2.825,59.058
				c5.604,9.988,16.158,16.394,27.138,19.647c24.853,7.363,52.614,0.05,73.365-15.483c20.751-15.533,35.055-38.449,44.208-62.7
				C464.293,201.434,468.575,171.745,464.762,142.883z"/>
		</g>
		<g style="opacity:0.9;">
			<path style="fill:#FFFFFF;" d="M464.762,142.883c-3.814-28.862-22.282-71.326-61.508-89.114
				c-32.004-13.717-73.248-15.279-107.578-9.457c-24.354,4.131-49.23,13.903-64.757,33.116s-19.303,49.17-3.833,68.428
				c11.045,13.75,41.675,22.322,55.252,33.579c14.366,11.912,23.364,30.068,24.141,48.715c0.832,19.977-6.958,41.622,2.825,59.058
				c5.604,9.988,16.158,16.394,27.138,19.647c24.853,7.363,52.614,0.05,73.365-15.483c20.751-15.533,35.055-38.449,44.208-62.7
				C464.293,201.434,468.575,171.745,464.762,142.883z"/>
		</g>
	</g>
</g>
<g id="Shadow">
	<g>
		<g>
			<path style="fill:#F5F5F5;" d="M461.757,437.074c0,3.387-93.516,6.132-208.875,6.132s-208.875-2.745-208.875-6.132
				c0-3.387,93.517-6.132,208.875-6.132S461.757,433.687,461.757,437.074z"/>
		</g>
	</g>
</g>
<g id="Wall">
	<g>
		<g>
			<g>
				<rect x="58.976" y="260.525" style="fill:#407BFF;" width="60.759" height="60.759"/>
				<rect x="58.976" y="260.525" style="opacity:0.6;fill:#FFFFFF;" width="60.759" height="60.759"/>
			</g>
		</g>
		<g>
			<g>
				<rect x="58.976" y="196.752" style="fill:#407BFF;" width="60.759" height="60.759"/>
				<rect x="58.976" y="196.752" style="opacity:0.6;fill:#FFFFFF;" width="60.759" height="60.759"/>
			</g>
			<polygon style="opacity:0.3;fill:#FFFFFF;" points="99.703,198.356 60.903,232.299 60.903,254.932 117.948,205.6 
				117.948,198.356 			"/>
			<polygon style="opacity:0.3;fill:#FFFFFF;" points="62.803,256.307 117.948,209.189 117.948,214.828 69.559,256.174 			"/>
		</g>
		<g>
			<g>
				<rect x="188.211" y="196.752" style="fill:#407BFF;" width="60.759" height="60.759"/>
				<rect x="188.211" y="196.752" style="opacity:0.6;fill:#FFFFFF;" width="60.759" height="60.759"/>
				<path style="opacity:0.2;enable-background:new    ;" d="M248.97,247.68c-0.602,0.265-10.683,9.831-10.683,9.831h10.683V247.68z
					"/>
			</g>
			<polygon style="opacity:0.3;fill:#FFFFFF;" points="228.938,198.356 190.139,232.299 190.139,254.932 247.184,205.6 
				247.184,198.356 			"/>
			<polygon style="opacity:0.3;fill:#FFFFFF;" points="192.038,256.307 247.184,209.189 247.184,214.828 198.794,256.174 			"/>
		</g>
		<g>
			<g>
				<rect x="123.593" y="196.752" style="fill:#407BFF;" width="60.759" height="60.759"/>
				<rect x="123.593" y="196.752" style="opacity:0.6;fill:#FFFFFF;" width="60.759" height="60.759"/>
			</g>
		</g>
		<g>
			<g>
				<g>
					<rect x="123.562" y="260.629" style="fill:#407BFF;" width="60.759" height="60.759"/>
					<rect x="123.562" y="260.629" style="opacity:0.6;fill:#FFFFFF;" width="60.759" height="60.759"/>
				</g>
			</g>
			<path style="opacity:0.3;fill:#FFFFFF;" d="M133.58,320.13c0.573,0,48.905-48.905,48.905-48.905v17.594l-31.707,31.707
				L133.58,320.13z"/>
			<polygon style="opacity:0.3;fill:#FFFFFF;" points="124.584,320.527 129.691,320.527 182.801,267.417 182.801,262.189 			"/>
		</g>
		<g>
			<g>
				<g>
					<rect x="123.562" y="132.11" style="fill:#407BFF;" width="60.759" height="60.759"/>
					<rect x="123.562" y="132.11" style="opacity:0.6;fill:#FFFFFF;" width="60.759" height="60.759"/>
				</g>
			</g>
			<path style="opacity:0.3;fill:#FFFFFF;" d="M133.58,191.612c0.573,0,48.905-48.905,48.905-48.905v17.594l-31.707,31.707
				L133.58,191.612z"/>
			<polygon style="opacity:0.3;fill:#FFFFFF;" points="124.584,192.009 129.691,192.009 182.801,138.898 182.801,133.67 			"/>
		</g>
		<g>
			<g>
				<rect x="58.647" y="324.945" style="fill:#407BFF;" width="60.759" height="60.759"/>
				<rect x="58.647" y="324.945" style="opacity:0.6;fill:#FFFFFF;" width="60.759" height="60.759"/>
			</g>
		</g>
		<g>
			<g>
				<rect x="187.985" y="324.849" style="fill:#407BFF;" width="60.759" height="60.759"/>
				<rect x="187.985" y="324.849" style="opacity:0.6;fill:#FFFFFF;" width="60.759" height="60.759"/>
			</g>
		</g>
		<polygon style="opacity:0.3;fill:#FFFFFF;" points="59.901,384.844 65.008,384.844 118.118,331.733 118.118,326.505 		"/>
		<g>
			<g>
				<g>
					<rect x="123.562" y="324.945" style="fill:#407BFF;" width="60.759" height="60.759"/>
					<rect x="123.562" y="324.945" style="opacity:0.6;fill:#FFFFFF;" width="60.759" height="60.759"/>
				</g>
			</g>
			<polygon style="opacity:0.3;fill:#FFFFFF;" points="125.726,383.754 125.726,369.325 169.249,326.789 182.684,326.789 
				182.684,329.78 128.71,383.754 			"/>
		</g>
	</g>
</g>
<g id="Bucket_2">
	<g>
		<g>
			
				<line style="fill:none;stroke:#263238;stroke-linecap:round;stroke-linejoin:round;stroke-miterlimit:10;" x1="213.465" y1="400.772" x2="213.465" y2="410.1"/>
			<path style="fill:#263238;" d="M215.814,403.968h-4.679l-0.516-19.754c0-1.434,1.163-2.597,2.597-2.597l0,0
				c1.434,0,2.597,1.163,2.597,2.597V403.968z"/>
		</g>
		<rect x="154.622" y="407.241" style="fill:#407BFF;" width="79.375" height="7.938"/>
		<polygon style="fill:#407BFF;" points="162.979,415.179 168.107,437.074 222.397,437.074 226.619,415.179 		"/>
		<polygon style="opacity:0.3;" points="162.979,415.179 226.619,415.179 226.089,417.929 163.623,417.929 		"/>
		<path style="fill:none;stroke:#E0E0E0;stroke-linecap:round;stroke-linejoin:round;stroke-miterlimit:10;" d="M158.863,411.21
			c0,0,34.615,15.634,40.653,16.603c1.186,0.19,40.843-0.801,40.843-0.801l-13.296-11.191"/>
		
			<rect x="209.039" y="425.67" transform="matrix(0.9996 -0.028 0.028 0.9996 -11.8764 6.3613)" style="fill:#263238;" width="24.649" height="3.754"/>
	</g>
</g>
<g id="Bucket_1">
	<g>
		<polygon style="fill:#263238;" points="131.31,437.074 82.364,437.074 73.364,374.061 140.672,374.061 		"/>
		<polygon style="opacity:0.6;fill:#FFFFFF;" points="131.31,437.074 82.364,437.074 73.364,374.061 140.672,374.061 		"/>
		<polygon style="opacity:0.6;fill:#FFFFFF;" points="79.346,415.943 138.375,389.52 136.313,403.398 81.075,428.048 		"/>
		<polygon style="opacity:0.6;fill:#FFFFFF;" points="78.915,412.923 138.899,385.991 139.351,382.948 78.512,410.104 		"/>
		<path style="fill:none;stroke:#263238;stroke-linecap:round;stroke-linejoin:round;stroke-miterlimit:10;" d="M75.946,377.56
			c1.73,5.523,3.475,11.082,6.168,16.205c2.692,5.124,6.416,9.843,11.361,12.85c4.84,2.943,10.702,4.099,16.326,3.425
			c4.617-0.553,8.92-2.601,12.664-5.359c9.156-6.746,15.124-26.386,15.124-26.386"/>
		<path style="fill:#407BFF;" d="M88.076,374.061c0,0,5.242,9.512,15.727,8.887c10.485-0.624,13.035-6.575,13.035-6.575
			s6.044,2.331,9.918,1.187c3.542-1.046,4.618-3.499,4.618-3.499H88.076z"/>
	</g>
</g>
<g id="Speech_Bubble">
	<g>
		<g>
			<g>
				<path style="fill:#407BFF;" d="M363.785,152.697c12.541-5.601,27.248,0.025,32.849,12.566
					c5.601,12.541-0.025,27.248-12.566,32.849c-9.682,4.324-20.637,1.935-27.714-5.139l-7.457,0.423l2.51-7.483
					c-0.059-0.125-0.13-0.241-0.187-0.368C345.618,173.005,351.244,158.298,363.785,152.697z"/>
			</g>
			<path style="fill:none;stroke:#407BFF;stroke-width:0.5;stroke-linecap:round;stroke-linejoin:round;stroke-miterlimit:10;" d="
				M368.729,147.65c-8.052,0.734-15.58,5.797-19.295,12.979"/>
			<path style="fill:none;stroke:#407BFF;stroke-width:0.5;stroke-linecap:round;stroke-linejoin:round;stroke-miterlimit:10;" d="
				M347.847,163.983c-0.646,1.051-1.072,2.235-1.243,3.457"/>
		</g>
		<g>
			<polygon style="fill:#FFFFFF;" points="370.943,184.547 360.445,174.967 363.788,171.304 370.828,177.728 382.524,166.306 
				385.989,169.854 			"/>
		</g>
	</g>
</g>
<g id="Character">
	<g>
		<path style="fill:#263238;" d="M303.499,254.239c0,0-2.322,3.394-2.503,8.8c-0.084,2.509-0.7,28.653-0.7,28.653l-19.873-14.867
			l-10.115,11.368c0,0,16.575,20.453,26.245,24.239c9.67,3.785,16.637,2.034,18.832-0.876c2.195-2.91,4.602-42.388,4.602-42.388
			L303.499,254.239z"/>
		<polygon style="opacity:0.2;enable-background:new    ;" points="297.951,289.938 295.63,292.242 300.209,292.229 
			300.297,291.693 		"/>
		<path style="fill:#407BFF;" d="M294.378,286.561l-12.226-8.244c0,0-3.655-9.456-7.893-14.036s-10.883-6.708-9.972-3.941
			c0.911,2.766,3.56,4.975,3.56,4.975s-11.214-6.297-12.178-1.888c-0.963,4.408-4.627,12.797-0.164,18.467
			c4.463,5.67,15.257,7.952,15.257,7.952l9.663,10.496L294.378,286.561z"/>
		<polygon style="fill:#FAAC6D;" points="325.256,426.939 313.57,429.408 301.082,408.879 312.768,406.41 		"/>
		<g>
			<path style="fill:#263238;" d="M311.115,424.457h13.083c0.439,0.006,0.817,0.31,0.918,0.737l2.146,9.592
				c0.175,0.856-0.373,1.693-1.228,1.875h-0.349c-4.227-0.065-7.317-0.323-12.63-0.323c-3.271,0-13.147,0.336-17.659,0.336
				c-4.512,0-5.171-4.46-3.258-4.874c8.287-1.81,14.544-4.318,17.194-6.697C309.822,424.669,310.46,424.438,311.115,424.457z"/>
			<path style="fill:#407BFF;" d="M310.313,425.969h-0.116c-1.112-0.608-3.258-2.973-3.038-4.111
				c0.07-0.394,0.415-0.678,0.814-0.672c0.392-0.054,0.788,0.064,1.086,0.323c1.241,1.021,1.525,4.111,1.525,4.266
				c-0.002,0.094-0.05,0.182-0.129,0.233C310.405,426.007,310.357,425.994,310.313,425.969z M308.723,421.82
				c-0.152-0.132-0.343-0.209-0.543-0.22h-0.129c-0.362,0-0.362,0.181-0.362,0.259c-0.142,0.737,1.228,2.495,2.34,3.322
				c-0.081-1.225-0.532-2.397-1.293-3.361H308.723z"/>
			<path style="fill:#407BFF;" d="M307.649,426.344c-0.727,0.065-1.455-0.128-2.055-0.543c-0.406-0.332-0.612-0.85-0.543-1.37
				c-0.005-0.302,0.167-0.58,0.439-0.711c1.177-0.621,4.667,1.512,5.055,1.758c0.092,0.052,0.143,0.154,0.129,0.258
				c-0.019,0.103-0.094,0.188-0.194,0.22C309.553,426.189,308.604,426.319,307.649,426.344z M306.007,424.185
				c-0.11-0.032-0.226-0.032-0.336,0c-0.065,0-0.168,0.091-0.168,0.297c-0.039,0.345,0.091,0.686,0.349,0.918
				c1.218,0.566,2.609,0.635,3.878,0.194C308.594,424.885,307.329,424.406,306.007,424.185z"/>
		</g>
		<polygon style="opacity:0.2;enable-background:new    ;" points="312.768,406.41 301.082,408.879 307.533,419.467 
			319.219,416.998 		"/>
		<polygon style="fill:#FAAC6D;" points="437.938,405.707 438.947,416.424 414.203,419.643 413.195,408.913 		"/>
		<g>
			<path style="fill:#263238;" d="M437.848,418.027l-1.293-13.031c-0.035-0.437,0.231-0.842,0.646-0.983l9.411-3.038
				c0.839-0.261,1.73,0.208,1.991,1.046c0,0,0,0.001,0,0.001c0.04,0.112,0.062,0.23,0.065,0.349
				c0.336,4.215,0.362,7.304,0.866,12.604c0.297,3.258,1.564,13.057,1.991,17.556c0.426,4.499-3.969,5.494-4.551,3.697
				c-2.585-8.093-5.649-14.078-8.274-16.496C438.209,419.294,437.904,418.684,437.848,418.027z"/>
			<path style="fill:#407BFF;" d="M440.032,421.362c0.127,0.722,0.004,1.465-0.349,2.107c-0.289,0.429-0.776,0.682-1.293,0.672
				c-0.301,0.026-0.591-0.119-0.75-0.375c-0.724-1.099,1.086-4.77,1.293-5.171c0.035-0.096,0.132-0.154,0.233-0.142
				c0.106,0,0.199,0.068,0.233,0.168C439.711,419.509,439.923,420.428,440.032,421.362z M437.99,423.237
				c0.002,0.116,0.038,0.228,0.103,0.323c0,0.065,0.103,0.129,0.31,0.129c0.346,0.016,0.677-0.144,0.879-0.427
				c0.45-1.266,0.389-2.656-0.168-3.878C438.499,420.586,438.117,421.893,437.99,423.237z"/>
			<path style="fill:#407BFF;" d="M439.502,418.686v0.129c-0.569,1.151-2.728,3.516-3.878,3.4c-0.396-0.037-0.707-0.354-0.737-0.75
				c-0.092-0.385-0.012-0.791,0.22-1.112c0.892-1.332,3.956-1.913,4.098-1.913c0.092,0.001,0.181,0.038,0.246,0.103
				C439.482,418.585,439.5,418.635,439.502,418.686z M435.288,421.194v0.129c0.026,0.336,0.22,0.336,0.297,0.336
				c0.698,0.129,2.366-1.409,3.09-2.585c-1.213,0.184-2.341,0.734-3.232,1.577C435.336,420.811,435.281,421.001,435.288,421.194z"/>
		</g>
		<polygon style="opacity:0.2;enable-background:new    ;" points="418.606,408.259 419.615,418.988 432.374,417.321 
			431.366,406.591 		"/>
		<path style="fill:#263238;" d="M397.715,329.129c-21.577,8.74-42.803,11.509-63.461,4.563c0,0-9.851-60.255-30.755-79.427
			c3.176-3.443,6.808-6.435,10.794-8.894c8.651-5.514,18.478-8.915,28.686-9.928c3.982-0.38,7.19-0.597,10.396-0.494
			c6.098,0.197,11.746,3.254,15.326,8.194C377.912,255.85,395.695,285.724,397.715,329.129z"/>
		<g>
			<g>
				<path style="fill:#FAAC6D;" d="M339.547,235.876c-4.806,8.621-16.6,15.533-23.685,8.526c2.14-2.013,4.346-3.857,3.868-6.791
					c-0.348-1.791-1.056-3.493-2.081-5.003c-0.539-0.86-1.126-1.688-1.758-2.482l8.597-17.801
					C326.194,220.159,329.049,237.13,339.547,235.876z"/>
				<path style="fill:#263238;" d="M295.115,196.145c0,0-2.654,13.027,4.818,19.232c7.472,6.205,9.269-21.356,9.269-21.356
					L295.115,196.145z"/>
				<path style="fill:#FAAC6D;" d="M327.346,205.932c0.042,10.808,0.29,16.901-4.941,22.777c-7.868,8.839-21.549,4.997-24.918-5.584
					c-3.032-9.523-2.592-25.599,7.978-30.562C315.878,187.673,327.303,195.124,327.346,205.932z"/>
				<path style="fill:#263238;" d="M312.97,208.958c0.074,1.101-0.467,2.031-1.209,2.077c-0.741,0.046-1.403-0.809-1.476-1.91
					c-0.074-1.101,0.467-2.031,1.209-2.077C312.235,207.002,312.896,207.857,312.97,208.958z"/>
				<path style="fill:#263238;" d="M301.89,211.133c0.074,1.101-0.467,2.031-1.209,2.078c-0.742,0.046-1.403-0.809-1.477-1.91
					c-0.074-1.101,0.467-2.031,1.209-2.077C301.155,209.177,301.816,210.032,301.89,211.133z"/>
				<path style="fill:#E97F3F;" d="M304.203,210.325c0,0-3.217,5.729-4.216,8.04c1.668,1.271,4.34,0.437,4.34,0.437L304.203,210.325
					z"/>
				<path style="fill:#263238;" d="M314.139,204.792c-0.166,0.08-0.371,0.074-0.536-0.034c-1.966-1.284-3.785-0.568-3.803-0.561
					c-0.271,0.11-0.584-0.012-0.697-0.274c-0.113-0.262,0.016-0.564,0.285-0.674c0.095-0.039,2.374-0.938,4.814,0.656
					c0.244,0.159,0.307,0.479,0.142,0.714C314.289,204.696,314.218,204.753,314.139,204.792z"/>
				<path style="fill:#263238;" d="M295.421,206.903c-0.1-0.013-0.196-0.055-0.277-0.125c-0.219-0.19-0.239-0.517-0.045-0.731
					c1.948-2.145,4.361-1.802,4.471-1.8c0.289,0.043,0.489,0.306,0.446,0.589c-0.043,0.282-0.31,0.476-0.598,0.436
					c-0.1-0.018-1.962-0.259-3.525,1.462C295.769,206.868,295.59,206.926,295.421,206.903z"/>
				<path style="opacity:0.3;enable-background:new    ;" d="M296.555,219.642c0.293,1.356,0.664,2.694,1.112,4.007
					c0.194,0.504,0.388,0.982,0.62,1.448c1.636,3.448,4.532,6.137,8.093,7.511c5.418,2.224,12.254,0.582,16.025-3.899
					c1.422-4.305,1.879-13.346-1.081-18.698c0,0-2.815,7.926-3.836,8.223c-1.021,0.297-1.836-3.611-7.123-1.078
					C305.077,219.69,303.135,223.133,296.555,219.642z"/>
				<path style="fill:#263238;" d="M327.931,192.808c-0.664-1.578-3.514-5.719-15.012-5.057
					c-14.156,0.814-18.654,6.942-17.698,9.347c0,0,3.284,3.878,12.837,2.922c-2.204-0.188-4.376-0.653-6.464-1.383
					c0,0,9.083,1.255,15.603,0.278c0.831,0.868,1.228,2.102,0.796,3.445c-1.293,4.033,1.293,10.032,4.473,12.294
					c0,0,0-1.706,1.461-1.383c0.069,0.015,0.137,0.067,0.205,0.119c0.322,1.081,0.69,2.117,1.111,3.058
					c0.481,3.041,0.263,6.691,0.775,6.836c-0.012,0,2.657-2.23,3.67-5.311c1.694-2.913,1.743-7.503,2.481-10.572
					C333.541,201.688,334.411,193.349,327.931,192.808z"/>
				<g>
					<path style="fill:#FAAC6D;" d="M330.998,213.898c-0.926,2.52-2.814,4.57-5.249,5.701c-3.232,1.487-5.404-1.293-4.977-4.628
						c0.414-2.973,2.585-7.408,6.037-7.446C330.261,207.486,332.097,210.783,330.998,213.898z"/>
					
						<path style="opacity:0.2;fill:none;stroke:#000000;stroke-width:0.5;stroke-linecap:round;stroke-linejoin:round;stroke-miterlimit:10;" d="
						M328.435,211.685c-0.489-0.61-1.414-0.781-2.175-0.54c-0.761,0.241-1.368,0.825-1.798,1.484
						c-0.516,0.79-0.817,1.712-0.862,2.644"/>
				</g>
				<g>
					<path style="fill:#263238;" d="M306.502,223.06c1.129,0.973,2.186,2.027,3.162,3.152c0.222-0.136,0.453-0.27,0.669-0.418
						c3.015-1.906,3.791-3.783,3.716-5.29c-0.049-0.736-0.27-1.451-0.646-2.086c-0.203-0.363-0.456-0.696-0.751-0.989
						c-0.995,1.967-3.661,3.957-5.135,4.96C306.861,222.792,306.502,223.06,306.502,223.06z"/>
					<path style="fill:#FFFFFF;" d="M307.473,222.378l0.96,0.905c2.828-1.798,4.582-3.434,4.927-4.876
						c-0.203-0.363-0.456-0.696-0.751-0.989C311.608,219.402,308.947,221.374,307.473,222.378z"/>
					<path style="fill:#FF4546;" d="M310.289,225.783c3.015-1.906,3.791-3.783,3.716-5.29c-1.132,0.745-2.124,1.684-2.929,2.775
						C310.558,224.004,310.283,224.883,310.289,225.783z"/>
				</g>
			</g>
			<g>
				<path style="fill:#407BFF;" d="M333.035,202.418c0,0,2.825-16.478-13.167-20.537c-12.296-3.121-21.502,5.256-23.811,12.14
					C309.374,190.407,323.522,195.798,333.035,202.418z"/>
				<path style="opacity:0.3;" d="M333.035,202.418c0,0,2.825-16.478-13.167-20.537c-12.296-3.121-21.502,5.256-23.811,12.14
					C309.374,190.407,323.522,195.798,333.035,202.418z"/>
				<path style="fill:#407BFF;" d="M329.537,200.171c0,0-27.488-19.599-40.974-12.535c-8.849,4.635,7.074,6.805,7.074,6.805
					C300.021,189.992,321.117,195.573,329.537,200.171z"/>
			</g>
		</g>
		<g>
			<path style="fill:#407BFF;" d="M357.407,374.22c-0.633,0-1.293-0.077-1.926-0.129c-13.225-1.099-27.083-4.538-37.749-7.757
				c-11.014-3.322-22.283-11.739-22.283-11.739c5.453,10.034,24.83,59.067,24.83,59.067l-22.328,5.326
				c0,0-51.152-67.12-28.089-92.031c17.232-18.422,63.966,1.706,63.966,1.706l63.914,0.465
				C397.741,329.129,402.421,376.612,357.407,374.22z"/>
			<path style="opacity:0.2;enable-background:new    ;" d="M357.407,374.22c-0.633,0-1.293-0.077-1.926-0.129
				c-13.225-1.099-27.083-4.538-37.749-7.757c18.732-3.439,36.611-16.909,36.611-16.909L357.407,374.22z"/>
			<path style="fill:#407BFF;" d="M351.086,336.084c-2.278,4.557-20.202,86.952,0.344,94.481c17.2,6.792,77.281-3.345,77.281-3.345
				l-1.585-23.253c0,0-50.739,2.089-51.335,2.275c-1.115,0.349,19.391-48.142,20.684-59.803
				C397.767,334.778,351.086,336.084,351.086,336.084z"/>
			<path style="fill:#407BFF;" d="M330.993,325.172L316.33,273.1c0,0,42.505-12.659,45.202-9.393s10.02,44.54,14.375,48.4
				c4.355,3.86,19.569-4.471,19.569-4.471s5.382,19.295,1.596,35.086c-3.786,15.791-67.534-8.642-67.534-8.642L330.993,325.172z"/>
			<path style="opacity:0.2;enable-background:new    ;" d="M330.418,290.818c0,0,3.986,25.147,7.152,26.207
				c6.637,2.223,29.76-0.303,29.627-5.205c-0.133-4.902-6.88-28.975-6.88-28.975L330.418,290.818L330.418,290.818z"/>
			<path style="fill:#407BFF;" d="M344.891,266.165c0-0.409-12.635-22.628,0.481-30.937c1.676-1.029,3.907-0.842,6.31-0.279
				c0,0-7.815,2.549-7.815,10.53s5.047,20.686,5.047,20.686H344.891z"/>
			<path style="fill:#407BFF;" d="M316.645,273.891l-10.143-22.614c0,0,0.715-0.83,2.825-2.419l12.742,25.033H316.645z"/>
			<path style="opacity:0.2;enable-background:new    ;" d="M375.79,406.242c0,0,0.352,7.08-3.385,10.319
				c0,0,6.378-2.692,7.611-10.563L375.79,406.242z"/>
		</g>
		<g>
			<path style="fill:#B97964;" d="M330.584,323.129c0,0,34.476,9.818,68.003,0c0,0,0.675,6.456,0,12.912
				c-30.377,2.85-53.087-0.374-68.003-8.733V323.129z"/>
			<path style="fill:#B97964;" d="M369.527,334.342c0,0-4.868,27.38,0,31.233c4.867,3.854,28.046,2.839,29.06-1.217
				c1.014-4.056-0.058-36.1-0.058-36.1L369.527,334.342z"/>
			<path style="fill:#263238;" d="M388.636,325.562h-10.77c0,0-3.913,3.172-8.46,3.278v1.904h9.721v8.123h4.066v-8.123h5.442
				V325.562z"/>
			<path style="opacity:0.5;fill:#FFFFFF;" d="M388.636,325.562h-10.77c0,0-3.913,3.172-8.46,3.278v1.904h9.721v8.123h4.066v-8.123
				h5.442V325.562z"/>
			<rect x="379.127" y="330.743" style="opacity:0.3;" width="4.066" height="0.916"/>
			<g>
				<path style="fill:#263238;" d="M396.505,336.173c-3.858,1.075-8.359,2.191-12.645,2.399c-6.451,0.313-12.16-0.646-12.419-0.646
					c0,0,6.09,2.172,14.541,1.13C395.156,337.927,396.505,336.173,396.505,336.173z"/>
			</g>
			<path style="fill:none;stroke:#E0E0E0;stroke-miterlimit:10;" d="M348.698,334.069l-8.349-1.955
				c-0.328-0.077-0.532-0.405-0.455-0.733l1.325-5.658c0.077-0.328,0.405-0.532,0.733-0.455l8.349,1.955
				c0.328,0.077,0.532,0.405,0.455,0.733l-1.325,5.658C349.354,333.942,349.026,334.145,348.698,334.069z"/>
			<path style="fill:none;stroke:#E0E0E0;stroke-linecap:round;stroke-miterlimit:10;" d="M337.98,328.157
				c2.15-0.298,4.392,0.112,6.296,1.152"/>
			<path style="fill:#263238;" d="M394.99,336.779l-5.218,1.147l0.069-5.726c0.017-1.41,1.165-2.543,2.574-2.543l0,0
				c1.422,0,2.574,1.153,2.574,2.574V336.779z"/>
		</g>
		<g>
			<path style="opacity:0.2;enable-background:new    ;" d="M353.459,281.492c0,0,6.008-9.848,13.739-17.398
				c0.981-4.532-0.521-6.416-2.628-9.855c-0.944-1.512-0.975-0.477-1.738-1.666L353.459,281.492z"/>
			<path style="fill:#263238;" d="M345.717,239.4c-0.768,0.679-21.913,52.54-24.998,52.847c-3.085,0.306-39.702-0.277-39.702-0.277
				l-0.593,16.051c0,0,37.328,10.722,49.166,8.271c11.838-2.451,32.694-55.791,34.979-62.053
				C366.854,247.978,351.844,233.983,345.717,239.4z"/>
			<g>
				<g>
					<g>
						
							<rect x="242.387" y="247.832" transform="matrix(0.7096 -0.7046 0.7046 0.7096 -116.0774 271.2073)" style="fill:#407BFF;" width="57.186" height="57.186"/>
						
							<rect x="242.387" y="247.832" transform="matrix(0.7096 -0.7046 0.7046 0.7096 -116.0774 271.2073)" style="opacity:0.6;fill:#FFFFFF;" width="57.186" height="57.186"/>
					</g>
					<polygon style="opacity:0.6;fill:#FFFFFF;" points="258.809,250.344 255.405,298.744 270.414,313.86 275.797,243.082 
						270.994,238.245 					"/>
					<polygon style="opacity:0.6;fill:#FFFFFF;" points="272.595,313.518 278.177,245.479 281.917,249.245 277.019,308.949 					"/>
				</g>
				<path style="fill:#407BFF;" d="M294.378,291.203l-15.908,0.057c0,0-12.446-5.048-18.622-5.948
					c-6.175-0.9-12.681,1.619-10.235,3.199c2.447,1.58,5.896,1.634,5.896,1.634s-12.681,2.147-10.661,6.182
					c2.02,4.035,4.44,12.863,11.475,14.471c7.035,1.607,18.366-2.185,18.366-2.185l18.27,3.208L294.378,291.203z"/>
			</g>
		</g>
		<polyline style="opacity:0.2;enable-background:new    ;" points="300.342,289.78 318.429,290.219 318.242,292.322 
			300.209,292.229 300.329,290.073 		"/>
	</g>
</g>
</svg>
